<svg width="24" height="24" viewBox="0 0 24 24" fill="none" xmlns="http://www.w3.org/2000/svg">
<path d="M15.1249 21.1004L6.69994 12.7004C6.59994 12.6004 6.52894 12.4921 6.48694 12.3754C6.44494 12.2587 6.42428 12.1337 6.42494 12.0004C6.42494 11.8671 6.44561 11.7421 6.48694 11.6254C6.52828 11.5087 6.59928 11.4004 6.69994 11.3004L15.1249 2.87539C15.3583 2.64206 15.6499 2.52539 15.9999 2.52539C16.3499 2.52539 16.6499 2.65039 16.8999 2.90039C17.1499 3.15039 17.2749 3.44206 17.2749 3.77539C17.2749 4.10872 17.1499 4.40039 16.8999 4.65039L9.54994 12.0004L16.8999 19.3504C17.1333 19.5837 17.2499 19.8714 17.2499 20.2134C17.2499 20.5554 17.1249 20.8511 16.8749 21.1004C16.6249 21.3504 16.3333 21.4754 15.9999 21.4754C15.6666 21.4754 15.3749 21.3504 15.1249 21.1004Z" fill="white"/>
</svg>
