<svg width="199" height="45" viewBox="0 0 199 45" fill="none" xmlns="http://www.w3.org/2000/svg">
<path d="M178.354 1C178.617 1 178.869 1.10367 179.056 1.28855L197.703 19.7064C197.893 19.8943 198 20.1505 198 20.4178V43C198 43.5523 197.552 44 197 44H2C1.44772 44 1 43.5523 1 43V2C1 1.44772 1.44771 1 2 1H178.354Z" fill="#86E4D4" fill-opacity="0.5"/>
<path d="M196.281 10.5529C196.905 11.1998 198 10.7576 198 9.85824V2C198 1.44771 197.552 1 197 1H189.411C188.529 1 188.079 2.05983 188.692 2.69466L196.281 10.5529Z" fill="#86E4D4" fill-opacity="0.5"/>
<path d="M178.354 1C178.617 1 178.869 1.10367 179.056 1.28855L197.703 19.7064C197.893 19.8943 198 20.1505 198 20.4178V43C198 43.5523 197.552 44 197 44H2C1.44772 44 1 43.5523 1 43V2C1 1.44772 1.44771 1 2 1H178.354Z" stroke="url(#paint0_linear_328_331)" stroke-width="2" stroke-linejoin="round"/>
<path d="M196.281 10.5529C196.905 11.1998 198 10.7576 198 9.85824V2C198 1.44771 197.552 1 197 1H189.411C188.529 1 188.079 2.05983 188.692 2.69466L196.281 10.5529Z" stroke="url(#paint1_linear_328_331)" stroke-width="2" stroke-linejoin="round"/>
<path d="M18.006 28.266C14.87 28.266 12.868 25.858 12.868 22.946C12.868 20.034 14.87 17.626 18.006 17.626C19.434 17.626 20.708 18.228 21.632 19.18L20.526 20.44C19.924 19.81 18.916 19.432 17.992 19.432C15.878 19.432 14.548 21 14.548 22.946C14.548 24.906 15.878 26.474 17.992 26.474C18.916 26.474 19.924 26.082 20.526 25.452L21.632 26.712C20.708 27.664 19.434 28.266 18.006 28.266ZM27.9344 26.572C30.0624 26.572 31.4764 24.976 31.4764 22.946C31.4764 20.93 30.0624 19.334 27.9344 19.334C25.8064 19.334 24.4064 20.93 24.4064 22.946C24.4064 24.976 25.8064 26.572 27.9344 26.572ZM22.7264 22.946C22.7264 20.034 24.8544 17.626 27.9344 17.626C31.0144 17.626 33.1564 20.034 33.1564 22.946C33.1564 25.872 31.0144 28.266 27.9344 28.266C24.8544 28.266 22.7264 25.872 22.7264 22.946ZM36.1799 17.738V26.488H41.2059V28.154H34.4859V17.738H36.1799ZM44.424 17.738V26.488H49.45V28.154H42.73V17.738H44.424ZM57.9601 17.738V19.39H52.5001V21.966H57.5121V23.632H52.5001V26.488H57.9601V28.154H50.8341V17.738H57.9601ZM69.4236 22.414C69.4796 22.764 69.4096 23.744 69.4096 23.744C69.1156 26.628 67.2536 28.238 64.3836 28.266C61.1076 28.266 59.1756 25.914 59.1756 22.946C59.1756 19.992 61.1076 17.64 64.3836 17.64C67.7436 17.64 68.8216 20.146 68.8216 20.146L67.3376 20.972C67.3376 20.972 66.5816 19.334 64.3836 19.334C62.1436 19.334 60.8416 20.916 60.8416 22.946C60.8416 24.99 62.1436 26.572 64.3836 26.572C65.8536 26.53 67.2396 25.956 67.6036 24.024H64.6216V22.414H69.4236ZM77.8664 17.738V19.39H72.4064V21.966H77.4184V23.632H72.4064V26.488H77.8664V28.154H70.7404V17.738H77.8664ZM79.2013 27.972H85.8933V29.624H79.2013V27.972ZM92.463 28.266C89.327 28.266 87.325 25.858 87.325 22.946C87.325 20.034 89.327 17.626 92.463 17.626C93.891 17.626 95.165 18.228 96.089 19.18L94.983 20.44C94.381 19.81 93.373 19.432 92.449 19.432C90.335 19.432 89.005 21 89.005 22.946C89.005 24.906 90.335 26.474 92.449 26.474C93.373 26.474 94.381 26.082 94.983 25.452L96.089 26.712C95.165 27.664 93.891 28.266 92.463 28.266ZM102.391 26.572C104.519 26.572 105.933 24.976 105.933 22.946C105.933 20.93 104.519 19.334 102.391 19.334C100.263 19.334 98.8634 20.93 98.8634 22.946C98.8634 24.976 100.263 26.572 102.391 26.572ZM97.1834 22.946C97.1834 20.034 99.3114 17.626 102.391 17.626C105.471 17.626 107.613 20.034 107.613 22.946C107.613 25.872 105.471 28.266 102.391 28.266C99.3114 28.266 97.1834 25.872 97.1834 22.946ZM120.115 17.738V28.154H118.421V20.3L115.355 25.844H113.745L110.651 20.3V28.154H108.957V17.738H111.239L114.543 23.716L117.819 17.738H120.115ZM126.683 22.974C127.649 22.974 128.433 22.162 128.433 21.21C128.433 20.244 127.649 19.46 126.683 19.46H123.967V22.974H126.683ZM122.287 28.154V17.738H126.655C128.573 17.738 130.099 19.292 130.099 21.21C130.099 23.1 128.573 24.668 126.655 24.668H123.967V28.154H122.287ZM138.542 17.738V19.39H133.082V21.966H138.094V23.632H133.082V26.488H138.542V28.154H131.416V17.738H138.542ZM147.01 17.738V19.39H144.154V28.154H142.46V19.39H139.562V17.738H147.01ZM148.674 17.738H150.354V28.154H148.674V17.738ZM159.519 17.738V19.39H156.663V28.154H154.969V19.39H152.071V17.738H159.519ZM161.184 17.738H162.864V28.154H161.184V17.738ZM169.712 26.572C171.84 26.572 173.254 24.976 173.254 22.946C173.254 20.93 171.84 19.334 169.712 19.334C167.584 19.334 166.184 20.93 166.184 22.946C166.184 24.976 167.584 26.572 169.712 26.572ZM164.504 22.946C164.504 20.034 166.632 17.626 169.712 17.626C172.792 17.626 174.934 20.034 174.934 22.946C174.934 25.872 172.792 28.266 169.712 28.266C166.632 28.266 164.504 25.872 164.504 22.946ZM185.853 17.738V28.154H183.669L177.957 20.062V28.154H176.249V17.738H178.377L184.173 25.816V17.738H185.853Z" fill="white"/>
<defs>
<linearGradient id="paint0_linear_328_331" x1="192.5" y1="44" x2="21" y2="44" gradientUnits="userSpaceOnUse">
<stop stop-color="white"/>
<stop offset="1" stop-color="#D1FFF7"/>
</linearGradient>
<linearGradient id="paint1_linear_328_331" x1="192.5" y1="44" x2="21" y2="44" gradientUnits="userSpaceOnUse">
<stop stop-color="white"/>
<stop offset="1" stop-color="#D1FFF7"/>
</linearGradient>
</defs>
</svg>
