<svg width="357" height="999" viewBox="0 0 357 999" fill="none" xmlns="http://www.w3.org/2000/svg">
<path d="M3.25 54.25H125H145H209H236H351.75V997.75H3.25V54.25Z" stroke="#FE01B0" stroke-opacity="0.48" stroke-width="2.5"/>
<path d="M307.602 43.5H2.5V6.5H75.5H75.5296L75.559 6.49651L126.03 0.5H229.607L274.434 6.49559L274.467 6.5H274.5H354.281V21.6818L307.602 43.5Z" fill="url(#paint0_linear_565_407)" fill-opacity="0.64" stroke="#FF98DF"/>
<path d="M341.675 32.0002L342.307 43.6341L312.701 44.9835L341.675 32.0002Z" fill="#FE01B0"/>
<path d="M344.852 29.5462L354.559 23.9112L355 43.9072L345.172 44.0887L344.852 29.5462Z" fill="#FE01B0"/>
<path d="M300.667 44C300.667 46.9455 303.054 49.3334 306 49.3334C308.946 49.3334 311.333 46.9455 311.333 44C311.333 41.0545 308.946 38.6667 306 38.6667C303.054 38.6667 300.667 41.0545 300.667 44ZM2 45.0011L306 45L306 43L2 43.0011L2 45.0011Z" fill="url(#paint1_linear_565_407)"/>
<path d="M145.655 101.16L145.755 101.208H145.867H313.158V146.966L277.082 193.069H41.8428V87.668H116.873L145.655 101.16Z" fill="url(#paint2_linear_565_407)" fill-opacity="0.64" stroke="#FF98DF"/>
<path d="M148.118 96.1021L148.222 96.1525H148.337H323.248V147.869L284.716 199.915H33.5859V82.5742H120.323L148.118 96.1021Z" stroke="#FFA3E3"/>
<path d="M238.448 214.676L238.322 214.592H238.172H170.271L157.735 204.32H280.706V224.425H253.137L238.448 214.676Z" fill="#FE01B0" stroke="#FF98DF"/>
<path d="M206.036 87.7059L205.946 87.7423H205.849H166.885L160.38 92.3828H230.314L236.962 82.452L218.3 82.7574L206.036 87.7059Z" stroke="#FF3AC2"/>
<line x1="23.5" y1="147.741" x2="23.5" y2="214.674" stroke="#FF98DF"/>
<line x1="23" y1="214.174" x2="87.1986" y2="214.174" stroke="#FF98DF"/>
<line x1="87.6982" y1="214.674" x2="87.6982" y2="224.925" stroke="#FF98DF"/>
<path d="M81.5543 227.337L84.3763 224.925H90.7256L93.5475 227.337L96.3694 229.749V234.874L93.5475 237.588L90.7256 240H84.0235L81.5543 237.588L78.7324 234.874V229.749L81.5543 227.337Z" fill="#FE01B0"/>
<path d="M31.4658 199.6H78.0275L74.8528 203.821H31.4658V199.6Z" fill="#FF91DD"/>
<path d="M32.877 203.82L32.877 185.73L27.2331 186.964L27.2331 203.82L32.877 203.82Z" fill="#FF98DF"/>
<path d="M243.815 79H252.986L242.756 94.0749H233.232L243.815 79Z" fill="#FE01B0"/>
<path d="M255.103 79H264.274L254.044 94.0749H244.521L255.103 79Z" fill="#FE01B0"/>
<path d="M266.391 79H275.562L265.333 94.0749H255.809L266.391 79Z" fill="#FE01B0"/>
<path d="M277.678 79H286.849L276.62 94.0749H267.096L277.678 79Z" fill="#FE01B0"/>
<path d="M288.966 79H298.137L287.908 94.0749H278.384L288.966 79Z" fill="#FE01B0"/>
<path d="M300.253 79H309.424L299.195 94.0749H289.671L300.253 79Z" fill="#FE01B0"/>
<path d="M311.541 79H320.712L310.483 94.0749H300.959L311.541 79Z" fill="#FE01B0"/>
<path d="M322.828 79H332L321.77 94.0749H312.246L322.828 79Z" fill="#FE01B0"/>
<path d="M143.247 268.161L143.347 268.208H143.457H312.92V313.964L276.376 360.069H38.0801V254.668H114.09L143.247 268.161Z" fill="url(#paint3_linear_565_407)" fill-opacity="0.64" stroke="#FF98DF"/>
<path d="M145.743 263.103L145.846 263.152H145.96H323.141V314.867L284.109 366.915H29.7168V249.574H117.586L145.743 263.103Z" stroke="#FFA3E3"/>
<path d="M237.231 381.674L237.106 381.592H236.956H168.173L155.475 371.32H280.048V391.425H252.113L237.231 381.674Z" fill="#FE01B0" stroke="#FF98DF"/>
<path d="M204.402 254.707L204.313 254.742H204.217H164.744L158.155 259.383H229.004L235.738 249.452L216.826 249.757L204.402 254.707Z" stroke="#FF3AC2"/>
<line x1="19.5" y1="314.741" x2="19.5" y2="381.674" stroke="#FF98DF"/>
<line x1="19" y1="381.174" x2="84.0297" y2="381.174" stroke="#FF98DF"/>
<line x1="84.5293" y1="381.674" x2="84.5293" y2="391.925" stroke="#FF98DF"/>
<path d="M78.3125 394.337L81.171 391.925H87.6025L90.4609 394.337L93.3194 396.749V401.874L90.4609 404.588L87.6025 407H80.8137L78.3125 404.588L75.4541 401.874V396.749L78.3125 394.337Z" fill="#FE01B0"/>
<path d="M27.5752 366.6H74.7396L71.5238 370.821H27.5752V366.6Z" fill="#FF91DD"/>
<path d="M29.0049 370.82L29.0049 352.73L23.288 353.964L23.288 370.82L29.0049 370.82Z" fill="#FF98DF"/>
<path d="M242.673 246H251.963L241.601 261.075H231.954L242.673 246Z" fill="#FE01B0"/>
<path d="M254.107 246H263.397L253.035 261.075H243.388L254.107 246Z" fill="#FE01B0"/>
<path d="M265.541 246H274.831L264.47 261.075H254.822L265.541 246Z" fill="#FE01B0"/>
<path d="M276.975 246H286.265L275.903 261.075H266.256L276.975 246Z" fill="#FE01B0"/>
<path d="M288.409 246H297.699L287.337 261.075H277.689L288.409 246Z" fill="#FE01B0"/>
<path d="M299.842 246H309.132L298.77 261.075H289.123L299.842 246Z" fill="#FE01B0"/>
<path d="M311.276 246H320.566L310.204 261.075H300.557L311.276 246Z" fill="#FE01B0"/>
<path d="M322.71 246H332L321.638 261.075H311.991L322.71 246Z" fill="#FE01B0"/>
<path d="M143.247 437.161L143.347 437.208H143.457H312.92V482.964L276.376 529.069H38.0801V423.668H114.09L143.247 437.161Z" fill="url(#paint4_linear_565_407)" fill-opacity="0.64" stroke="#FF98DF"/>
<path d="M145.743 432.103L145.846 432.152H145.96H323.141V483.867L284.109 535.915H29.7168V418.574H117.586L145.743 432.103Z" stroke="#FFA3E3"/>
<path d="M237.231 550.674L237.106 550.592H236.956H168.173L155.475 540.32H280.048V560.425H252.113L237.231 550.674Z" fill="#FE01B0" stroke="#FF98DF"/>
<path d="M204.402 423.707L204.313 423.742H204.217H164.744L158.155 428.383H229.004L235.738 418.452L216.826 418.757L204.402 423.707Z" stroke="#FF3AC2"/>
<line x1="19.5" y1="483.741" x2="19.5" y2="550.674" stroke="#FF98DF"/>
<line x1="19" y1="550.174" x2="84.0297" y2="550.174" stroke="#FF98DF"/>
<line x1="84.5293" y1="550.674" x2="84.5293" y2="560.925" stroke="#FF98DF"/>
<path d="M78.3125 563.337L81.171 560.925H87.6025L90.4609 563.337L93.3194 565.749V570.874L90.4609 573.588L87.6025 576H80.8137L78.3125 573.588L75.4541 570.874V565.749L78.3125 563.337Z" fill="#FE01B0"/>
<path d="M27.5752 535.6H74.7396L71.5238 539.821H27.5752V535.6Z" fill="#FF91DD"/>
<path d="M29.0049 539.82L29.0049 521.73L23.288 522.964L23.288 539.82L29.0049 539.82Z" fill="#FF98DF"/>
<path d="M242.673 415H251.963L241.601 430.075H231.954L242.673 415Z" fill="#FE01B0"/>
<path d="M254.107 415H263.397L253.035 430.075H243.388L254.107 415Z" fill="#FE01B0"/>
<path d="M265.541 415H274.831L264.47 430.075H254.822L265.541 415Z" fill="#FE01B0"/>
<path d="M276.975 415H286.265L275.903 430.075H266.256L276.975 415Z" fill="#FE01B0"/>
<path d="M288.409 415H297.699L287.337 430.075H277.689L288.409 415Z" fill="#FE01B0"/>
<path d="M299.842 415H309.132L298.77 430.075H289.123L299.842 415Z" fill="#FE01B0"/>
<path d="M311.276 415H320.566L310.204 430.075H300.557L311.276 415Z" fill="#FE01B0"/>
<path d="M322.71 415H332L321.638 430.075H311.991L322.71 415Z" fill="#FE01B0"/>
<path d="M143.247 606.161L143.347 606.208H143.457H312.92V651.964L276.376 698.069H38.0801V592.668H114.09L143.247 606.161Z" fill="url(#paint5_linear_565_407)" fill-opacity="0.64" stroke="#FF98DF"/>
<path d="M145.743 601.103L145.846 601.152H145.96H323.141V652.867L284.109 704.915H29.7168V587.574H117.586L145.743 601.103Z" stroke="#FFA3E3"/>
<path d="M237.231 719.674L237.106 719.592H236.956H168.173L155.475 709.32H280.048V729.425H252.113L237.231 719.674Z" fill="#FE01B0" stroke="#FF98DF"/>
<path d="M204.402 592.707L204.313 592.742H204.217H164.744L158.155 597.383H229.004L235.738 587.452L216.826 587.757L204.402 592.707Z" stroke="#FF3AC2"/>
<line x1="19.5" y1="652.741" x2="19.5" y2="719.674" stroke="#FF98DF"/>
<line x1="19" y1="719.174" x2="84.0297" y2="719.174" stroke="#FF98DF"/>
<line x1="84.5293" y1="719.674" x2="84.5293" y2="729.925" stroke="#FF98DF"/>
<path d="M78.3125 732.337L81.171 729.925H87.6025L90.4609 732.337L93.3194 734.749V739.874L90.4609 742.588L87.6025 745H80.8137L78.3125 742.588L75.4541 739.874V734.749L78.3125 732.337Z" fill="#FE01B0"/>
<path d="M27.5752 704.6H74.7396L71.5238 708.821H27.5752V704.6Z" fill="#FF91DD"/>
<path d="M29.0049 708.82L29.0049 690.73L23.288 691.964L23.288 708.82L29.0049 708.82Z" fill="#FF98DF"/>
<path d="M242.673 584H251.963L241.601 599.075H231.954L242.673 584Z" fill="#FE01B0"/>
<path d="M254.107 584H263.397L253.035 599.075H243.388L254.107 584Z" fill="#FE01B0"/>
<path d="M265.541 584H274.831L264.47 599.075H254.822L265.541 584Z" fill="#FE01B0"/>
<path d="M276.975 584H286.265L275.903 599.075H266.256L276.975 584Z" fill="#FE01B0"/>
<path d="M288.409 584H297.699L287.337 599.075H277.689L288.409 584Z" fill="#FE01B0"/>
<path d="M299.842 584H309.132L298.77 599.075H289.123L299.842 584Z" fill="#FE01B0"/>
<path d="M311.276 584H320.566L310.204 599.075H300.557L311.276 584Z" fill="#FE01B0"/>
<path d="M322.71 584H332L321.638 599.075H311.991L322.71 584Z" fill="#FE01B0"/>
<path d="M6 208L6.00003 911" stroke="#FE01B0" stroke-width="6"/>
<path d="M350 55L350 758" stroke="#FE01B0" stroke-width="6"/>
<path d="M13 79L3.25 86.7942L3.25 71.2058L13 79Z" fill="#FE01B0"/>
<path d="M13 107L3.25 114.794L3.25 99.2058L13 107Z" fill="#FE01B0"/>
<path d="M13 135L3.25 142.794L3.25 127.206L13 135Z" fill="#FE01B0"/>
<path d="M357 893L347.25 900.794L347.25 885.206L357 893Z" fill="#FE01B0"/>
<path d="M357 921L347.25 928.794L347.25 913.206L357 921Z" fill="#FE01B0"/>
<path d="M357 949L347.25 956.794L347.25 941.206L357 949Z" fill="#FE01B0"/>
<line x1="23.5" y1="237" x2="23.5" y2="958" stroke="#FE01B0" stroke-opacity="0.32"/>
<path d="M204.491 841.117L204.429 841.133H204.365H50.8249L45.7696 852.5H307.593L312.384 829.507L246.279 830.207L204.491 841.117Z" stroke="#FF3AC2"/>
<rect x="39.5" y="860.5" width="279" height="114" rx="4.5" fill="url(#paint6_linear_565_407)" stroke="#FF98DF"/>
<path d="M310.833 855.5C310.833 856.973 312.027 858.167 313.5 858.167C314.973 858.167 316.167 856.973 316.167 855.5C316.167 854.027 314.973 852.833 313.5 852.833C312.027 852.833 310.833 854.027 310.833 855.5ZM40.5 855.5L40.0606 855.261L39.6596 856H40.5V855.5ZM50 838V837.5H49.7025L49.5606 837.761L50 838ZM204 838.5C204.276 838.5 204.5 838.276 204.5 838C204.5 837.724 204.276 837.5 204 837.5V838.5ZM313.5 855H40.5V856H313.5V855ZM40.9394 855.739L50.4394 838.239L49.5606 837.761L40.0606 855.261L40.9394 855.739ZM50 838.5H204V837.5H50V838.5Z" fill="#FF98DF"/>
<defs>
<linearGradient id="paint0_linear_565_407" x1="178.39" y1="0" x2="178.39" y2="44" gradientUnits="userSpaceOnUse">
<stop stop-color="#FE01B0"/>
<stop offset="1" stop-color="#FE01B0" stop-opacity="0.35"/>
</linearGradient>
<linearGradient id="paint1_linear_565_407" x1="85.875" y1="39.5003" x2="5.60104" y2="41.1759" gradientUnits="userSpaceOnUse">
<stop stop-color="#FF98DF"/>
<stop offset="1" stop-color="#FF21BB"/>
</linearGradient>
<linearGradient id="paint2_linear_565_407" x1="177.5" y1="100.708" x2="177.5" y2="193.569" gradientUnits="userSpaceOnUse">
<stop stop-color="#FE01B0"/>
<stop offset="1" stop-color="#FE01B0" stop-opacity="0.35"/>
</linearGradient>
<linearGradient id="paint3_linear_565_407" x1="175.5" y1="267.708" x2="175.5" y2="360.569" gradientUnits="userSpaceOnUse">
<stop stop-color="#FE01B0"/>
<stop offset="1" stop-color="#FE01B0" stop-opacity="0.35"/>
</linearGradient>
<linearGradient id="paint4_linear_565_407" x1="175.5" y1="436.708" x2="175.5" y2="529.569" gradientUnits="userSpaceOnUse">
<stop stop-color="#FE01B0"/>
<stop offset="1" stop-color="#FE01B0" stop-opacity="0.35"/>
</linearGradient>
<linearGradient id="paint5_linear_565_407" x1="175.5" y1="605.708" x2="175.5" y2="698.569" gradientUnits="userSpaceOnUse">
<stop stop-color="#FE01B0"/>
<stop offset="1" stop-color="#FE01B0" stop-opacity="0.35"/>
</linearGradient>
<linearGradient id="paint6_linear_565_407" x1="179" y1="860" x2="179" y2="975" gradientUnits="userSpaceOnUse">
<stop stop-color="#FE01B0" stop-opacity="0.63"/>
<stop offset="1" stop-color="#FE01B0" stop-opacity="0"/>
</linearGradient>
</defs>
</svg>
