<svg width="57" height="16" viewBox="0 0 57 16" fill="none" xmlns="http://www.w3.org/2000/svg">
<path d="M7.65 10.85C8.154 10.022 8.19 9.032 8.19 7.484C8.19 5.954 8.154 4.982 7.65 4.154C7.38 3.668 6.822 3.002 5.544 3.002C4.266 3.002 3.708 3.65 3.456 4.136C2.934 4.982 2.898 5.954 2.898 7.484C2.898 9.014 2.934 10.004 3.456 10.832C3.708 11.336 4.266 11.984 5.544 11.984C6.822 11.984 7.38 11.336 7.65 10.85ZM0.774 7.484C0.774 5.774 0.792 4.28 1.62 2.948C2.124 2.066 3.294 0.877999 5.544 0.877999C7.794 0.877999 8.964 2.084 9.486 2.948C10.332 4.28 10.332 5.792 10.332 7.484C10.332 9.212 10.332 10.724 9.486 12.056C8.964 12.938 7.794 14.126 5.544 14.126C3.294 14.126 2.124 12.92 1.62 12.056C0.792 10.706 0.774 9.194 0.774 7.484ZM16.2758 12.056C17.6978 12.056 18.6698 11.102 18.6698 10.076C18.6698 9.05 17.6978 8.114 16.2758 8.114C14.8538 8.114 13.8818 9.05 13.8818 10.076C13.8818 11.102 14.8538 12.056 16.2758 12.056ZM11.8658 10.076C11.8658 9.464 12.0278 8.87 12.2978 8.33L17.1578 0.932L18.9758 2.084L16.2758 6.098C16.7438 6.08 16.9598 6.116 17.2838 6.17C19.2098 6.44 20.6858 7.916 20.6858 10.076C20.6858 12.398 18.7418 14.126 16.2758 14.126C13.7918 14.126 11.8658 12.398 11.8658 10.076ZM28.3389 0.0319996L24.4689 15.08H22.2909L26.1789 0.0319996H28.3389ZM39.7733 0.805999V2.93H32.9513V6.404H38.7832V8.582H32.9513V14.198H30.7913V0.805999H39.7733ZM47.5526 7.556C48.7946 7.556 49.8026 6.512 49.8026 5.27C49.8026 4.028 48.7946 3.02 47.5526 3.02H44.0426V7.556H47.5526ZM41.9366 14.198V0.805999H47.7866C50.0906 0.805999 51.9446 2.66 51.9446 5.198C51.8366 7.376 50.6126 8.708 49.0466 9.392L52.5746 14.198H49.9106L46.6526 9.716H44.0426V14.198H41.9366ZM54.628 0.805999H56.788V14.198H54.628V0.805999Z" fill="white"/>
</svg>
