<svg width="52" height="15" viewBox="0 0 52 15" fill="none" xmlns="http://www.w3.org/2000/svg">
<path d="M7.632 11.48C8.262 10.49 8.316 9.32 8.316 7.484C8.316 5.666 8.262 4.514 7.632 3.524C7.326 2.93 6.66 2.12 5.148 2.12C3.618 2.12 2.952 2.912 2.646 3.506C2.034 4.514 1.98 5.666 1.98 7.484C1.98 9.302 2.034 10.472 2.646 11.462C2.952 12.074 3.618 12.866 5.148 12.866C6.66 12.866 7.326 12.074 7.632 11.48ZM0.918 7.484C0.918 5.828 0.936 4.37 1.674 3.092C2.106 2.21 3.15 1.058 5.148 1.058C7.164 1.058 8.19 2.228 8.64 3.092C9.378 4.37 9.378 5.846 9.378 7.484C9.378 9.176 9.378 10.634 8.64 11.912C8.19 12.794 7.164 13.946 5.148 13.946C3.15 13.946 2.106 12.776 1.674 11.912C0.936 10.616 0.918 9.14 0.918 7.484ZM15.2868 12.866C17.1048 12.866 18.2748 11.498 18.2748 10.004C18.2748 8.492 17.1048 7.142 15.2868 7.142C13.4508 7.142 12.2808 8.492 12.2808 10.004C12.2808 11.498 13.4508 12.866 15.2868 12.866ZM11.2188 10.004C11.2188 9.41 11.3448 8.834 11.6328 8.312L16.1148 1.112L17.0508 1.67L14.1348 6.296C14.3688 6.242 14.5488 6.152 14.8728 6.116C17.4828 5.846 19.3548 7.682 19.3548 10.004C19.3548 12.254 17.5728 13.946 15.2868 13.946C13.0008 13.946 11.2188 12.254 11.2188 10.004ZM25.92 0.247999L22.158 14.864H21.078L24.858 0.247999H25.92ZM36.6815 1.004V2.048H29.6795V6.962H35.8715V8.024H29.6795V14H28.5815V1.004H36.6815ZM43.777 7.808C45.397 7.808 46.675 6.476 46.675 4.91C46.675 3.326 45.397 2.048 43.777 2.048H40.069V7.808H43.777ZM38.971 14V1.004H43.687C45.919 1.004 47.719 2.804 47.719 4.928C47.773 6.692 46.387 8.492 44.497 8.78L48.331 14H47.017L43.219 8.834H40.069V14H38.971ZM50.8186 1.004H51.8986V14H50.8186V1.004Z" fill="white"/>
</svg>
