<svg width="199" height="45" viewBox="0 0 199 45" fill="none" xmlns="http://www.w3.org/2000/svg">
<path d="M20.6463 1C20.3832 1 20.1307 1.10367 19.9436 1.28855L1.29727 19.7064C1.10706 19.8943 1 20.1505 1 20.4178V43C1 43.5523 1.44772 44 2 44H197C197.552 44 198 43.5523 198 43V2C198 1.44772 197.552 1 197 1H20.6463Z" fill="#F5E889" fill-opacity="0.5"/>
<path d="M2.71934 10.5529C2.0946 11.1998 1 10.7576 1 9.85824V2C1 1.44771 1.44772 1 2 1H9.5886C10.4711 1 10.921 2.05983 10.3079 2.69466L2.71934 10.5529Z" fill="#F5E889" fill-opacity="0.5"/>
<path d="M20.6463 1C20.3832 1 20.1307 1.10367 19.9436 1.28855L1.29727 19.7064C1.10706 19.8943 1 20.1505 1 20.4178V43C1 43.5523 1.44772 44 2 44H197C197.552 44 198 43.5523 198 43V2C198 1.44772 197.552 1 197 1H20.6463Z" stroke="url(#paint0_linear_328_340)" stroke-width="2" stroke-linejoin="round"/>
<path d="M2.71934 10.5529C2.0946 11.1998 1 10.7576 1 9.85824V2C1 1.44771 1.44772 1 2 1H9.5886C10.4711 1 10.921 2.05983 10.3079 2.69466L2.71934 10.5529Z" stroke="url(#paint1_linear_328_340)" stroke-width="2" stroke-linejoin="round"/>
<path d="M22.44 15.34H24.84V30.22H22.44V15.34ZM41.3734 15.34V30.22H38.2534L30.0934 18.66V30.22H27.6534V15.34H30.6934L38.9734 26.88V15.34H41.3734ZM54.0272 15.34V17.7H49.9472V30.22H47.5272V17.7H43.3872V15.34H54.0272ZM62.5277 22.84C63.9077 22.84 65.0277 21.68 65.0277 20.3C65.0277 18.92 63.9077 17.8 62.5277 17.8H58.6277V22.84H62.5277ZM56.2877 30.22V15.34H62.7877C65.3477 15.34 67.4077 17.4 67.4077 20.22C67.2877 22.64 65.9277 24.12 64.1877 24.88L68.1077 30.22H65.1477L61.5277 25.24H58.6277V30.22H56.2877ZM76.4783 27.96C79.5183 27.96 81.5383 25.68 81.5383 22.78C81.5383 19.9 79.5183 17.62 76.4783 17.62C73.4383 17.62 71.4383 19.9 71.4383 22.78C71.4383 25.68 73.4383 27.96 76.4783 27.96ZM69.0383 22.78C69.0383 18.62 72.0783 15.18 76.4783 15.18C80.8783 15.18 83.9383 18.62 83.9383 22.78C83.9383 26.96 80.8783 30.38 76.4783 30.38C72.0783 30.38 69.0383 26.96 69.0383 22.78ZM90.4775 27.8C93.2375 27.8 95.4975 25.56 95.4975 22.78C95.4975 20 93.2375 17.76 90.4775 17.76H88.2975V27.8H90.4775ZM85.8775 30.22V15.34H90.5175C94.5975 15.34 97.9375 18.68 97.9375 22.78C97.9375 26.88 94.5975 30.22 90.5175 30.22H85.8775ZM111.998 24.3C111.998 27.66 109.158 30.36 106.038 30.36C102.738 30.36 100.058 27.66 100.058 24.3V15.34H102.478V24.24C102.478 26.34 104.038 27.92 106.038 27.92C107.918 27.92 109.578 26.34 109.578 24.24V15.34H111.998V24.3ZM121.357 30.38C116.877 30.38 114.017 26.94 114.017 22.78C114.017 18.62 116.877 15.18 121.357 15.18C123.397 15.18 125.217 16.04 126.537 17.4L124.957 19.2C124.097 18.3 122.657 17.76 121.337 17.76C118.317 17.76 116.417 20 116.417 22.78C116.417 25.58 118.317 27.82 121.337 27.82C122.657 27.82 124.097 27.26 124.957 26.36L126.537 28.16C125.217 29.52 123.397 30.38 121.357 30.38ZM138.656 15.34V17.7H134.576V30.22H132.156V17.7H128.016V15.34H138.656ZM141.034 15.34H143.434V30.22H141.034V15.34ZM153.217 27.96C156.257 27.96 158.277 25.68 158.277 22.78C158.277 19.9 156.257 17.62 153.217 17.62C150.177 17.62 148.177 19.9 148.177 22.78C148.177 25.68 150.177 27.96 153.217 27.96ZM145.777 22.78C145.777 18.62 148.817 15.18 153.217 15.18C157.617 15.18 160.677 18.62 160.677 22.78C160.677 26.96 157.617 30.38 153.217 30.38C148.817 30.38 145.777 26.96 145.777 22.78ZM176.276 15.34V30.22H173.156L164.996 18.66V30.22H162.556V15.34H165.596L173.876 26.88V15.34H176.276Z" fill="white"/>
<defs>
<linearGradient id="paint0_linear_328_340" x1="6.5" y1="44" x2="178" y2="44" gradientUnits="userSpaceOnUse">
<stop stop-color="white"/>
<stop offset="1" stop-color="#F5E889"/>
</linearGradient>
<linearGradient id="paint1_linear_328_340" x1="6.5" y1="44" x2="178" y2="44" gradientUnits="userSpaceOnUse">
<stop stop-color="white"/>
<stop offset="1" stop-color="#F5E889"/>
</linearGradient>
</defs>
</svg>
