<svg width="331" height="54" viewBox="0 0 331 54" fill="none" xmlns="http://www.w3.org/2000/svg">
<rect x="0.5" y="0.5" width="330" height="53" rx="5.5" fill="#86E4D4" fill-opacity="0.25"/>
<path d="M83.5 4H9L4 9V19" stroke="#86E4D4" stroke-width="2" stroke-linecap="round"/>
<path d="M248 50H322.5L327.5 45V35" stroke="#86E4D4" stroke-width="2" stroke-linecap="round"/>
<mask id="path-4-inside-1_597_541" fill="white">
<path fill-rule="evenodd" clip-rule="evenodd" d="M320.038 44.7375C320.038 44.5836 320.023 44.4331 319.995 44.2873C320.604 43.8506 321 43.1372 321 42.3312C321 41.0023 319.923 39.925 318.594 39.925C318.578 39.925 318.562 39.9252 318.546 39.9255C318.323 38.8269 317.352 38 316.188 38C315.023 38 314.052 38.8269 313.829 39.9255C313.813 39.9252 313.797 39.925 313.781 39.925C312.452 39.925 311.375 41.0023 311.375 42.3312C311.375 43.1372 311.771 43.8506 312.38 44.2873C312.352 44.4331 312.337 44.5836 312.337 44.7375C312.337 46.0664 313.415 47.1437 314.744 47.1437C315.285 47.1437 315.785 46.9647 316.187 46.6627C316.59 46.9647 317.09 47.1437 317.631 47.1437C318.96 47.1437 320.038 46.0664 320.038 44.7375Z"/>
</mask>
<path d="M319.995 44.2873L319.412 43.4749L318.894 43.8468L319.013 44.4733L319.995 44.2873ZM318.546 39.9255L317.566 40.1242L317.731 40.9416L318.565 40.9253L318.546 39.9255ZM313.829 39.9255L313.81 40.9253L314.644 40.9416L314.809 40.1242L313.829 39.9255ZM312.38 44.2873L313.362 44.4733L313.481 43.8468L312.963 43.4749L312.38 44.2873ZM316.187 46.6627L316.788 45.8631L316.187 45.412L315.587 45.8631L316.187 46.6627ZM319.013 44.4733C319.029 44.5581 319.038 44.6463 319.038 44.7375H321.038C321.038 44.5209 321.017 44.3082 320.978 44.1013L319.013 44.4733ZM320 42.3312C320 42.8015 319.77 43.218 319.412 43.4749L320.579 45.0996C321.437 44.4832 322 43.4729 322 42.3312H320ZM318.594 40.925C319.37 40.925 320 41.5546 320 42.3312H322C322 40.45 320.475 38.925 318.594 38.925V40.925ZM318.565 40.9253C318.575 40.9251 318.584 40.925 318.594 40.925V38.925C318.571 38.925 318.549 38.9252 318.526 38.9257L318.565 40.9253ZM316.188 39C316.867 39 317.436 39.4826 317.566 40.1242L319.526 39.7267C319.21 38.1712 317.837 37 316.188 37V39ZM314.809 40.1242C314.939 39.4826 315.508 39 316.188 39V37C314.538 37 313.165 38.1712 312.849 39.7267L314.809 40.1242ZM313.781 40.925C313.791 40.925 313.8 40.9251 313.81 40.9253L313.849 38.9257C313.826 38.9252 313.804 38.925 313.781 38.925V40.925ZM312.375 42.3312C312.375 41.5546 313.005 40.925 313.781 40.925V38.925C311.9 38.925 310.375 40.45 310.375 42.3312H312.375ZM312.963 43.4749C312.605 43.218 312.375 42.8015 312.375 42.3312H310.375C310.375 43.4729 310.938 44.4832 311.796 45.0996L312.963 43.4749ZM313.337 44.7375C313.337 44.6463 313.346 44.5581 313.362 44.4733L311.397 44.1013C311.358 44.3082 311.337 44.5209 311.337 44.7375H313.337ZM314.744 46.1437C313.967 46.1437 313.337 45.5141 313.337 44.7375H311.337C311.337 46.6187 312.863 48.1437 314.744 48.1437V46.1437ZM315.587 45.8631C315.352 46.0396 315.061 46.1437 314.744 46.1437V48.1437C315.509 48.1437 316.219 47.8899 316.788 47.4622L315.587 45.8631ZM317.631 46.1437C317.314 46.1437 317.023 46.0396 316.788 45.8631L315.587 47.4622C316.156 47.8899 316.866 48.1437 317.631 48.1437V46.1437ZM319.038 44.7375C319.038 45.5141 318.408 46.1437 317.631 46.1437V48.1437C319.512 48.1437 321.038 46.6187 321.038 44.7375H319.038Z" fill="#86E4D4" mask="url(#path-4-inside-1_597_541)"/>
<mask id="path-6-inside-2_597_541" fill="white">
<path fill-rule="evenodd" clip-rule="evenodd" d="M308.663 44.7375C308.663 44.5836 308.648 44.4331 308.62 44.2873C309.229 43.8506 309.625 43.1372 309.625 42.3312C309.625 41.0023 308.548 39.925 307.219 39.925C307.203 39.925 307.187 39.9252 307.171 39.9255C306.948 38.8269 305.977 38 304.812 38C303.648 38 302.677 38.8269 302.454 39.9255C302.438 39.9252 302.422 39.925 302.406 39.925C301.077 39.925 300 41.0023 300 42.3312C300 43.1372 300.396 43.8506 301.005 44.2873C300.977 44.4331 300.963 44.5836 300.963 44.7375C300.963 46.0664 302.04 47.1437 303.369 47.1437C303.91 47.1437 304.41 46.9647 304.813 46.6627C305.215 46.9647 305.715 47.1437 306.256 47.1437C307.585 47.1437 308.663 46.0664 308.663 44.7375Z"/>
</mask>
<path d="M308.62 44.2873L308.037 43.4749L307.519 43.8468L307.638 44.4733L308.62 44.2873ZM307.171 39.9255L306.191 40.1242L306.356 40.9416L307.19 40.9253L307.171 39.9255ZM302.454 39.9255L302.435 40.9253L303.269 40.9416L303.434 40.1242L302.454 39.9255ZM301.005 44.2873L301.987 44.4733L302.106 43.8468L301.588 43.4749L301.005 44.2873ZM304.813 46.6627L305.413 45.8631L304.813 45.412L304.212 45.8631L304.813 46.6627ZM307.638 44.4733C307.654 44.5581 307.663 44.6463 307.663 44.7375H309.663C309.663 44.5209 309.642 44.3082 309.603 44.1013L307.638 44.4733ZM308.625 42.3312C308.625 42.8015 308.395 43.218 308.037 43.4749L309.204 45.0996C310.062 44.4832 310.625 43.4729 310.625 42.3312H308.625ZM307.219 40.925C307.995 40.925 308.625 41.5546 308.625 42.3312H310.625C310.625 40.45 309.1 38.925 307.219 38.925V40.925ZM307.19 40.9253C307.2 40.9251 307.209 40.925 307.219 40.925V38.925C307.196 38.925 307.174 38.9252 307.151 38.9257L307.19 40.9253ZM304.812 39C305.492 39 306.061 39.4826 306.191 40.1242L308.151 39.7267C307.835 38.1712 306.462 37 304.812 37V39ZM303.434 40.1242C303.564 39.4826 304.133 39 304.812 39V37C303.163 37 301.79 38.1712 301.474 39.7267L303.434 40.1242ZM302.406 40.925C302.416 40.925 302.425 40.9251 302.435 40.9253L302.474 38.9257C302.451 38.9252 302.429 38.925 302.406 38.925V40.925ZM301 42.3312C301 41.5546 301.63 40.925 302.406 40.925V38.925C300.525 38.925 299 40.45 299 42.3312H301ZM301.588 43.4749C301.23 43.218 301 42.8015 301 42.3312H299C299 43.4729 299.563 44.4832 300.421 45.0997L301.588 43.4749ZM301.963 44.7375C301.963 44.6463 301.971 44.5581 301.987 44.4733L300.022 44.1013C299.983 44.3082 299.963 44.5209 299.963 44.7375H301.963ZM303.369 46.1437C302.592 46.1437 301.963 45.5141 301.963 44.7375H299.963C299.963 46.6187 301.488 48.1437 303.369 48.1437V46.1437ZM304.212 45.8631C303.977 46.0396 303.686 46.1437 303.369 46.1437V48.1437C304.134 48.1437 304.844 47.8899 305.413 47.4622L304.212 45.8631ZM306.256 46.1437C305.939 46.1437 305.648 46.0396 305.413 45.8631L304.212 47.4622C304.781 47.8899 305.491 48.1437 306.256 48.1437V46.1437ZM307.663 44.7375C307.663 45.5141 307.033 46.1437 306.256 46.1437V48.1437C308.137 48.1437 309.663 46.6187 309.663 44.7375H307.663Z" fill="#86E4D4" mask="url(#path-6-inside-2_597_541)"/>
<path d="M4 42.5V50H13" stroke="#86E4D4" stroke-width="2" stroke-linecap="round" stroke-linejoin="round"/>
<path d="M327 11.5V4H318" stroke="#86E4D4" stroke-width="2" stroke-linecap="round" stroke-linejoin="round"/>
<rect x="0.5" y="0.5" width="330" height="53" rx="5.5" stroke="#D1FFF7"/>
</svg>
