<svg width="325" height="190" viewBox="0 0 325 190" fill="none" xmlns="http://www.w3.org/2000/svg">
<path d="M215.415 19.8433L211.303 36.3757L222.262 23.3318L211.781 36.7626L227.097 29.3035L212.06 37.3103L229.086 36.7258L212.092 37.9242L227.884 44.3153L211.872 38.4981L223.699 50.7597L211.437 38.9328L217.255 54.9448L210.863 39.153L209.665 56.1468L210.25 39.1209L202.243 54.158L209.702 38.8418L196.271 49.3223L209.315 38.3641L192.783 42.4757L209.156 37.7703L192.38 34.8021L209.252 37.1631L195.134 27.6284L209.587 36.6476L200.568 22.1949L210.102 36.3128L207.741 19.4412L210.71 36.2166L215.415 19.8433Z" fill="white"/>
<path d="M18 70.5805H51.2V75.3805C49.3067 75.6739 47.32 75.8872 45.24 76.0205C43.16 76.1272 40.7733 76.1805 38.08 76.1805H26V77.3005H38.08C40.7733 77.3005 43.16 77.2472 45.24 77.1405C47.32 77.0072 49.3067 76.7939 51.2 76.5005V82.9005H38.8V84.2605H51.2V90.4605H18V84.2605H30.4V82.9005H18V70.5805ZM51.4 98.0205C51.4 100.234 50.8267 101.847 49.68 102.861C48.5333 103.901 46.7467 104.421 44.32 104.421H24.88C22.4533 104.421 20.6667 103.901 19.52 102.861C18.3733 101.847 17.8 100.234 17.8 98.0205C17.8 95.8072 18.3733 94.1939 19.52 93.1805C20.6667 92.1405 22.4533 91.6205 24.88 91.6205H44.32C46.7467 91.6205 48.5333 92.1405 49.68 93.1805C50.8267 94.1939 51.4 95.8072 51.4 98.0205ZM34.6 103.981C34.6 102.007 35.8533 100.541 38.36 99.5805C40.8933 98.5939 44.68 98.0739 49.72 98.0205C44.68 97.9672 40.8933 97.4605 38.36 96.5005C35.8533 95.5405 34.6 94.0605 34.6 92.0605C34.6 94.0605 33.3333 95.5405 30.8 96.5005C28.2667 97.4605 24.48 97.9672 19.44 98.0205C24.48 98.0739 28.2667 98.5939 30.8 99.5805C33.3333 100.541 34.6 102.007 34.6 103.981ZM74.3475 76.7805H63.1875V83.3405C64.6275 83.3405 65.8808 83.3272 66.9475 83.3005C68.0142 83.2739 69.0008 83.2339 69.9075 83.1805C70.8408 83.1005 71.7608 83.0072 72.6675 82.9005C73.5742 82.7939 74.6008 82.6739 75.7475 82.5405V89.5405H55.1875V70.5805H75.1475V74.8205H80.3875V70.5805H88.3875V89.5405H80.3875V81.6205H74.3475V76.7805ZM80.3875 104.421V96.5405H55.1875V90.7405H88.3875V104.421H80.3875ZM111.996 104.141C108.449 104.834 105.716 104.421 103.796 102.901C101.902 101.407 100.956 98.8072 100.956 95.1005V79.1805H108.796V94.3005C108.796 97.5272 110.262 98.7539 113.196 97.9805L116.556 97.1005V79.1805H124.396V104.421H116.556V103.261L111.996 104.141ZM140 79.5005C143.547 78.8072 146.267 79.2205 148.16 80.7405C150.08 82.2339 151.04 84.8339 151.04 88.5405V104.421H143.2V89.3405C143.2 86.1139 141.733 84.8872 138.8 85.6605L135.44 86.5405V104.421H127.6V79.1805H135.44V80.3805L140 79.5005ZM158.004 76.5405C157.364 76.5405 156.778 76.4339 156.244 76.2205C155.711 75.9805 155.258 75.6605 154.884 75.2605C154.511 74.8605 154.218 74.3939 154.004 73.8605C153.791 73.3272 153.684 72.7539 153.684 72.1405C153.684 71.5272 153.791 70.9539 154.004 70.4205C154.218 69.8605 154.511 69.3805 154.884 68.9805C155.258 68.5805 155.711 68.2605 156.244 68.0205C156.778 67.7805 157.364 67.6605 158.004 67.6605C159.284 67.6605 160.324 68.1005 161.124 68.9805C161.924 69.8339 162.324 70.8872 162.324 72.1405C162.324 72.7539 162.218 73.3272 162.004 73.8605C161.791 74.3939 161.484 74.8605 161.084 75.2605C160.711 75.6605 160.258 75.9805 159.724 76.2205C159.218 76.4339 158.644 76.5405 158.004 76.5405ZM154.084 79.1805H161.924V104.421H154.084V79.1805ZM184.019 104.421H175.699L163.539 70.5805H171.619L177.579 87.3005C177.819 87.9939 178.032 88.6605 178.219 89.3005C178.432 89.9405 178.619 90.5805 178.779 91.2205C178.966 91.8605 179.139 92.5139 179.299 93.1805C179.486 93.8472 179.672 94.5405 179.859 95.2605C180.232 93.7939 180.579 92.4472 180.899 91.2205C181.219 89.9939 181.632 88.6872 182.139 87.3005L188.099 70.5805H196.179L184.019 104.421ZM198.195 104.421V70.5805H221.355V76.9805H206.195V83.9805H220.955V90.4605H206.195V98.8205C207.662 98.8205 209.049 98.7805 210.355 98.7005C211.689 98.5939 212.955 98.4472 214.155 98.2605C215.382 98.0739 216.582 97.8339 217.755 97.5405C218.955 97.2205 220.155 96.8472 221.355 96.4205V104.421H198.195ZM224.563 104.421V70.5805H239.563C241.403 70.5805 243.069 70.8605 244.563 71.4205C246.083 71.9539 247.376 72.7272 248.443 73.7405C249.509 74.7539 250.336 75.9805 250.923 77.4205C251.509 78.8605 251.803 80.4739 251.803 82.2605C251.803 84.6605 251.256 86.7005 250.163 88.3805C249.069 90.0605 247.603 91.3405 245.763 92.2205L253.203 104.421H244.403L237.723 93.5005H232.562V104.421H224.563ZM238.043 71.8605C238.043 73.3272 237.723 74.6739 237.083 75.9005C236.469 77.1272 235.656 78.1939 234.643 79.1005C233.629 79.9805 232.483 80.6739 231.203 81.1805C229.949 81.6872 228.669 81.9672 227.363 82.0205C228.669 82.0739 229.949 82.3805 231.203 82.9405C232.483 83.5005 233.629 84.2339 234.643 85.1405C235.656 86.0472 236.469 87.1139 237.083 88.3405C237.723 89.5405 238.043 90.8205 238.043 92.1805C238.043 90.8205 238.349 89.5405 238.963 88.3405C239.603 87.1139 240.429 86.0472 241.443 85.1405C242.456 84.2072 243.589 83.4605 244.843 82.9005C246.123 82.3405 247.416 82.0339 248.723 81.9805C247.416 81.9272 246.123 81.6472 244.843 81.1405C243.589 80.6339 242.456 79.9405 241.443 79.0605C240.429 78.1805 239.603 77.1272 238.963 75.9005C238.349 74.6739 238.043 73.3272 238.043 71.8605ZM267.517 104.941C265.517 104.941 263.664 104.687 261.957 104.181C260.25 103.674 258.77 102.941 257.517 101.981C256.29 101.021 255.33 99.8605 254.637 98.5005C253.944 97.1139 253.597 95.5539 253.597 93.8205H261.717C261.717 94.4872 261.864 95.1005 262.157 95.6605C262.477 96.2205 262.904 96.7005 263.437 97.1005C263.97 97.5005 264.597 97.8072 265.317 98.0205C266.037 98.2339 266.797 98.3405 267.597 98.3405C268.29 98.3405 268.93 98.2472 269.517 98.0605C270.104 97.8739 270.61 97.6339 271.037 97.3405C271.49 97.0205 271.837 96.6605 272.077 96.2605C272.317 95.8605 272.437 95.4339 272.437 94.9805C272.437 94.6072 272.317 94.2605 272.077 93.9405C271.864 93.6205 271.584 93.3272 271.237 93.0605C270.89 92.7672 270.49 92.5139 270.037 92.3005C269.61 92.0605 269.197 91.8605 268.797 91.7005L260.557 88.3005C258.797 87.5539 257.397 86.5272 256.357 85.2205C255.317 83.9139 254.797 82.1272 254.797 79.8605C254.797 78.3672 255.117 77.0205 255.757 75.8205C256.424 74.6205 257.317 73.5939 258.437 72.7405C259.584 71.8872 260.93 71.2339 262.477 70.7805C264.05 70.3005 265.757 70.0605 267.597 70.0605C269.25 70.0605 270.81 70.3139 272.277 70.8205C273.744 71.3005 275.024 71.9939 276.117 72.9005C277.21 73.7805 278.064 74.8472 278.677 76.1005C279.317 77.3539 279.637 78.7405 279.637 80.2605H272.117C272.117 79.7539 271.984 79.2872 271.717 78.8605C271.477 78.4072 271.144 78.0205 270.717 77.7005C270.317 77.3539 269.837 77.0872 269.277 76.9005C268.744 76.7139 268.184 76.6205 267.597 76.6205C267.037 76.6205 266.504 76.6872 265.997 76.8205C265.49 76.9539 265.037 77.1539 264.637 77.4205C264.264 77.6605 263.957 77.9672 263.717 78.3405C263.477 78.6872 263.357 79.0739 263.357 79.5005C263.357 79.9005 263.437 80.2472 263.597 80.5405C263.757 80.8339 263.997 81.1005 264.317 81.3405C264.637 81.5805 265.037 81.8205 265.517 82.0605C265.997 82.2739 266.557 82.5139 267.197 82.7805L275.317 86.1405C276.144 86.4872 276.89 86.9005 277.557 87.3805C278.25 87.8605 278.85 88.4339 279.357 89.1005C279.864 89.7405 280.25 90.4872 280.517 91.3405C280.81 92.1672 280.957 93.1139 280.957 94.1805C280.957 95.5139 280.637 96.8339 279.997 98.1405C279.357 99.4205 278.45 100.567 277.277 101.581C276.13 102.594 274.717 103.407 273.037 104.021C271.384 104.634 269.544 104.941 267.517 104.941ZM283.938 104.421V70.5805H307.098V76.9805H291.938V83.9805H306.698V90.4605H291.938V98.8205C293.404 98.8205 294.791 98.7805 296.098 98.7005C297.431 98.5939 298.698 98.4472 299.898 98.2605C301.124 98.0739 302.324 97.8339 303.498 97.5405C304.698 97.2205 305.898 96.8472 307.098 96.4205V104.421H283.938Z" fill="url(#paint0_linear_328_282)"/>
<path d="M151.751 58.4011C185.922 44.8839 220.073 34.4912 248.281 29.0212C262.386 26.2861 274.548 24.8704 284.328 24.7721C294.127 24.6737 301.465 25.8994 305.976 28.3852C308.221 29.6221 309.704 31.1366 310.488 32.8847C311.27 34.6308 311.382 36.6661 310.781 38.9936C309.574 43.6772 305.508 49.4485 298.521 56.0942C284.567 69.3661 260.088 85.0601 229.3 100.445C198.522 115.826 163.414 129.912 130.066 140.259C96.7093 150.608 67.2485 156.555 46.7816 157.088C36.5377 157.355 28.936 156.255 24.1365 153.952C21.7443 152.804 20.0783 151.371 19.1113 149.689C18.1482 148.014 17.8503 146.044 18.2791 143.759C19.1438 139.151 22.9267 133.475 29.4777 127.014C36.0114 120.57 45.2347 113.407 56.8611 105.819" stroke="white" stroke-linecap="round" stroke-linejoin="round"/>
<path d="M24.8479 50.4411L24.04 49.8518L23.6642 50.3669L23.9727 50.925L24.8479 50.4411ZM18.1417 41.4108L17.2728 41.9058L17.6857 42.6305L18.4727 42.3544L18.1417 41.4108ZM7.17785 45.018L7.47175 45.9738L8.26897 45.7287L8.17091 44.9004L7.17785 45.018ZM7.1438 56.2661L8.13526 56.1357L8.0521 55.5035L7.44388 55.3122L7.1438 56.2661ZM17.8123 58.8757L18.1331 57.9285L17.4215 57.6876L16.992 58.3039L17.8123 58.8757ZM14.8684 49.9254L14.5448 50.8716L15.2575 51.1154L15.6885 50.4975L14.8684 49.9254ZM14.8678 49.9252L14.5552 48.9753L11.724 49.9068L14.5442 50.8714L14.8678 49.9252ZM14.8687 49.9249L15.6889 50.497L17.4045 48.0378L14.5562 48.975L14.8687 49.9249ZM23.9727 50.925C24.1185 51.1887 24.2422 51.4704 24.3404 51.7687L26.2402 51.1436C26.1028 50.7261 25.9289 50.3297 25.723 49.9573L23.9727 50.925ZM24.7369 45.4386C25.2483 46.9931 24.9383 48.6205 24.04 49.8518L25.6557 51.0305C26.9173 49.3011 27.358 47.0058 26.6367 44.8135L24.7369 45.4386ZM18.5654 42.3229C21.13 41.4791 23.8931 42.874 24.7369 45.4386L26.6367 44.8135C25.4477 41.1997 21.5542 39.234 17.9404 40.423L18.5654 42.3229ZM18.4727 42.3544C18.5035 42.3436 18.5344 42.3331 18.5654 42.3229L17.9404 40.423C17.8969 40.4374 17.8536 40.4521 17.8106 40.4672L18.4727 42.3544ZM11.4995 39.6881C13.7454 38.9492 16.1456 39.9274 17.2728 41.9058L19.0105 40.9157C17.4217 38.1271 14.0418 36.7462 10.8744 37.7883L11.4995 39.6881ZM8.17091 44.9004C7.90321 42.6393 9.2537 40.427 11.4995 39.6881L10.8744 37.7883C7.70714 38.8304 5.80744 41.9483 6.18478 45.1356L8.17091 44.9004ZM7.37843 46.0035C7.40948 45.9933 7.44059 45.9834 7.47175 45.9738L6.88395 44.0622C6.8404 44.0755 6.79687 44.0894 6.75335 44.1037L7.37843 46.0035ZM4.26267 52.175C3.41887 49.6104 4.81384 46.8473 7.37843 46.0035L6.75335 44.1037C3.13953 45.2927 1.17384 49.1862 2.36286 52.8L4.26267 52.175ZM7.44388 55.3122C5.98997 54.8548 4.77416 53.7295 4.26267 52.175L2.36286 52.8C3.08419 54.9924 4.8017 56.5776 6.84371 57.22L7.44388 55.3122ZM8.34031 57.0324C8.24222 56.7342 8.17454 56.4343 8.13526 56.1357L6.15234 56.3965C6.20781 56.8183 6.3032 57.2402 6.4405 57.6575L8.34031 57.0324ZM14.5117 60.1481C11.9472 60.9919 9.18412 59.597 8.34031 57.0324L6.4405 57.6575C7.62953 61.2713 11.523 63.237 15.1368 62.0479L14.5117 60.1481ZM16.992 58.3039C16.4077 59.142 15.5582 59.8038 14.5117 60.1481L15.1368 62.0479C16.6087 61.5637 17.8093 60.6288 18.6327 59.4475L16.992 58.3039ZM21.2246 57.9401C20.1779 58.2845 19.101 58.2563 18.1331 57.9285L17.4916 59.8229C18.8558 60.2848 20.3774 60.3244 21.8497 59.8399L21.2246 57.9401ZM24.3404 51.7687C25.1842 54.3333 23.7892 57.0963 21.2246 57.9401L21.8497 59.8399C25.4635 58.6509 27.4292 54.7574 26.2402 51.1436L24.3404 51.7687ZM15.192 48.9792L15.1914 48.979L14.5442 50.8714L14.5448 50.8716L15.192 48.9792ZM14.0486 49.3527L14.0482 49.3532L15.6885 50.4975L15.6889 50.497L14.0486 49.3527ZM15.1803 50.8751L15.1813 50.8748L14.5562 48.975L14.5552 48.9753L15.1803 50.8751Z" fill="white"/>
<path d="M40.0456 61.8896L39.8171 60.9161L39.1964 61.0618L39.0666 61.686L40.0456 61.8896ZM40.5324 55.07L39.5508 54.8791L39.3915 55.6977L40.1683 56.0014L40.5324 55.07ZM34.0497 52.3883L33.6494 53.3047L34.4136 53.6385L34.8793 52.9466L34.0497 52.3883ZM29.5771 57.5598L30.4139 58.1072L30.7631 57.5736L30.4264 57.0319L29.5771 57.5598ZM33.4608 62.99L34.3214 62.4807L33.9388 61.8342L33.2114 62.0216L33.4608 62.99ZM39.0666 61.686C39.0342 61.8415 38.9868 61.9969 38.9233 62.1505L40.7714 62.9149C40.883 62.6453 40.9671 62.3703 41.0247 62.0932L39.0666 61.686ZM41.6139 59.3899C41.2841 60.1874 40.6012 60.732 39.8171 60.9161L40.2742 62.8631C41.6584 62.5382 42.8756 61.5722 43.4621 60.1543L41.6139 59.3899ZM40.2163 56.0207C41.5326 56.5651 42.1584 58.0736 41.6139 59.3899L43.4621 60.1543C44.4287 57.8173 43.3178 55.1392 40.9807 54.1725L40.2163 56.0207ZM40.1683 56.0014C40.1844 56.0077 40.2004 56.0141 40.2163 56.0207L40.9807 54.1725C40.9526 54.1609 40.9245 54.1496 40.8965 54.1386L40.1683 56.0014ZM38.0034 52.0068C39.1555 52.4834 39.7801 53.7001 39.5508 54.8791L41.514 55.2609C41.9213 53.1666 40.8163 51.006 38.7678 50.1587L38.0034 52.0068ZM34.8793 52.9466C35.5498 51.9503 36.8513 51.5303 38.0034 52.0068L38.7678 50.1587C36.7194 49.3114 34.4112 50.0601 33.2201 51.83L34.8793 52.9466ZM33.6016 53.2844C33.6176 53.291 33.6336 53.2978 33.6494 53.3047L34.4499 51.4719C34.4221 51.4598 34.3941 51.4479 34.366 51.4362L33.6016 53.2844ZM30.2323 54.682C30.7768 53.3656 32.2852 52.7399 33.6016 53.2844L34.366 51.4362C32.0289 50.4696 29.3508 51.5805 28.3842 53.9175L30.2323 54.682ZM30.4264 57.0319C30.0012 56.3477 29.9024 55.4796 30.2323 54.682L28.3842 53.9175C27.7976 55.3357 27.977 56.8797 28.7278 58.0876L30.4264 57.0319ZM30.1873 58.5372C30.2508 58.3835 30.327 58.2401 30.4139 58.1072L28.7403 57.0123C28.5853 57.2491 28.4506 57.5032 28.3391 57.7727L30.1873 58.5372ZM31.5849 61.9064C30.2686 61.3619 29.6428 59.8535 30.1873 58.5372L28.3391 57.7727C27.3725 60.1098 28.4834 62.7879 30.8205 63.7545L31.5849 61.9064ZM33.2114 62.0216C32.6894 62.156 32.1225 62.1288 31.5849 61.9064L30.8205 63.7545C31.7721 64.1481 32.7831 64.1972 33.7102 63.9584L33.2114 62.0216ZM35.5541 63.5481C35.0164 63.3257 34.5959 62.9446 34.3214 62.4807L32.6002 63.4993C33.0877 64.3232 33.838 65.0027 34.7896 65.3963L35.5541 63.5481ZM38.9233 62.1505C38.3788 63.4668 36.8704 64.0926 35.5541 63.5481L34.7896 65.3963C37.1267 66.3629 39.8048 65.252 40.7714 62.9149L38.9233 62.1505Z" fill="white"/>
<path d="M267.268 129.428L267.04 128.455L266.419 128.6L266.289 129.224L267.268 129.428ZM267.964 119.675L266.983 119.484L266.823 120.303L267.6 120.607L267.964 119.675ZM258.693 115.84L258.293 116.757L259.057 117.09L259.523 116.398L258.693 115.84ZM252.297 123.236L253.134 123.783L253.483 123.25L253.147 122.708L252.297 123.236ZM257.851 131.001L258.712 130.492L258.329 129.845L257.602 130.033L257.851 131.001ZM260.982 123.433L260.112 123.927L260.49 124.591L261.23 124.401L260.982 123.433ZM260.982 123.432L261.364 122.508L258.673 121.395L260.112 123.927L260.982 123.432ZM260.982 123.432L261.231 124.401L264.136 123.655L261.364 122.508L260.982 123.432ZM266.289 129.224C266.237 129.473 266.162 129.72 266.061 129.965L267.909 130.729C268.058 130.369 268.17 130.002 268.247 129.632L266.289 129.224ZM269.909 126.018C269.382 127.292 268.29 128.161 267.04 128.455L267.497 130.402C269.347 129.967 270.973 128.676 271.757 126.782L269.909 126.018ZM267.677 120.637C269.779 121.507 270.778 123.916 269.909 126.018L271.757 126.782C273.049 123.659 271.564 120.081 268.441 118.789L267.677 120.637ZM267.6 120.607C267.626 120.617 267.652 120.627 267.677 120.637L268.441 118.789C268.404 118.774 268.366 118.759 268.328 118.744L267.6 120.607ZM264.512 114.896C266.353 115.658 267.349 117.601 266.983 119.484L268.946 119.866C269.491 117.068 268.014 114.18 265.276 113.048L264.512 114.896ZM259.523 116.398C260.593 114.807 262.671 114.135 264.512 114.896L265.276 113.048C262.539 111.916 259.455 112.916 257.863 115.282L259.523 116.398ZM258.217 116.724C258.242 116.735 258.268 116.746 258.293 116.757L259.093 114.924C259.056 114.908 259.019 114.892 258.982 114.876L258.217 116.724ZM252.837 118.956C253.706 116.854 256.115 115.855 258.217 116.724L258.982 114.876C255.859 113.585 252.28 115.069 250.989 118.192L252.837 118.956ZM253.147 122.708C252.469 121.617 252.31 120.23 252.837 118.956L250.989 118.192C250.205 120.086 250.444 122.149 251.448 123.764L253.147 122.708ZM252.773 124.469C252.874 124.224 252.995 123.995 253.134 123.783L251.46 122.688C251.253 123.005 251.073 123.344 250.924 123.704L252.773 124.469ZM255.004 129.849C252.902 128.98 251.903 126.571 252.773 124.469L250.924 123.704C249.633 126.827 251.117 130.406 254.24 131.697L255.004 129.849ZM257.602 130.033C256.768 130.248 255.862 130.204 255.004 129.849L254.24 131.697C255.512 132.223 256.862 132.289 258.101 131.97L257.602 130.033ZM260.681 132.197C259.823 131.842 259.15 131.233 258.712 130.492L256.991 131.51C257.642 132.611 258.644 133.519 259.916 134.045L260.681 132.197ZM266.061 129.965C265.191 132.067 262.783 133.066 260.681 132.197L259.916 134.045C263.039 135.336 266.617 133.852 267.909 130.729L266.061 129.965ZM261.851 122.938L261.851 122.938L260.112 123.927L260.112 123.927L261.851 122.938ZM260.733 122.464L260.733 122.464L261.23 124.401L261.231 124.401L260.733 122.464ZM260.599 124.356L260.6 124.357L261.364 122.508L261.364 122.508L260.599 124.356Z" fill="white"/>
<path d="M121.941 111.296L114.001 143.222L135.162 118.033L114.923 143.969L144.5 129.565L115.462 145.026L148.341 143.898L115.524 146.212L146.019 158.554L115.099 147.32L137.938 170.998L114.259 148.16L125.493 179.08L113.151 148.585L110.837 181.401L111.966 148.523L96.5041 177.561L110.908 147.984L84.9723 168.222L110.161 147.061L78.2358 155.001L109.854 145.915L77.4592 140.183L110.039 144.742L82.7769 126.33L110.686 143.747L93.2693 115.838L111.682 143.1L107.122 110.52L112.854 142.914L121.941 111.296Z" fill="white"/>
<defs>
<linearGradient id="paint0_linear_328_282" x1="162.5" y1="61.0605" x2="162.5" y2="114.061" gradientUnits="userSpaceOnUse">
<stop stop-color="#FF87DA"/>
<stop offset="0.890625" stop-color="#B5F2FF"/>
</linearGradient>
</defs>
</svg>
