<svg width="199" height="45" viewBox="0 0 199 45" fill="none" xmlns="http://www.w3.org/2000/svg">
<path d="M178.354 1C178.617 1 178.869 1.10367 179.056 1.28855L197.703 19.7064C197.893 19.8943 198 20.1505 198 20.4178V43C198 43.5523 197.552 44 197 44H2C1.44772 44 1 43.5523 1 43V2C1 1.44772 1.44771 1 2 1H178.354Z" fill="#8AEAFF" fill-opacity="0.5"/>
<path d="M196.281 10.5529C196.905 11.1998 198 10.7576 198 9.85824V2C198 1.44771 197.552 1 197 1H189.411C188.529 1 188.079 2.05983 188.692 2.69466L196.281 10.5529Z" fill="#8AEAFF" fill-opacity="0.5"/>
<path d="M178.354 1C178.617 1 178.869 1.10367 179.056 1.28855L197.703 19.7064C197.893 19.8943 198 20.1505 198 20.4178V43C198 43.5523 197.552 44 197 44H2C1.44772 44 1 43.5523 1 43V2C1 1.44772 1.44771 1 2 1H178.354Z" stroke="url(#paint0_linear_328_334)" stroke-width="2" stroke-linejoin="round"/>
<path d="M196.281 10.5529C196.905 11.1998 198 10.7576 198 9.85824V2C198 1.44771 197.552 1 197 1H189.411C188.529 1 188.079 2.05983 188.692 2.69466L196.281 10.5529Z" stroke="url(#paint1_linear_328_334)" stroke-width="2" stroke-linejoin="round"/>
<path d="M51.832 14.408V32.264H48.928V18.8L43.672 28.304H40.912L35.608 18.8V32.264H32.704V14.408H36.616L42.28 24.656L47.896 14.408H51.832ZM64.5603 14.408L72.0003 32.264H68.9523L67.0083 27.608H58.9443L57.0243 32.264H53.9523L61.3923 14.408H64.5603ZM60.2643 24.488H65.6883L63.0003 17.912L60.2643 24.488ZM82.0759 23.384C83.7319 23.384 85.0759 21.992 85.0759 20.36C85.0759 18.704 83.7319 17.36 82.0759 17.36H77.4199V23.384H82.0759ZM74.5399 32.264V14.408H82.0279C85.3159 14.408 87.9319 17.072 87.9319 20.36C87.9319 23.6 85.3159 26.288 82.0279 26.288H77.4199V32.264H74.5399ZM90.5148 31.952H101.987V34.784H90.5148V31.952ZM112.193 23.384C113.849 23.384 115.193 21.992 115.193 20.36C115.193 18.704 113.849 17.36 112.193 17.36H107.537V23.384H112.193ZM104.657 32.264V14.408H112.145C115.433 14.408 118.049 17.072 118.049 20.36C118.049 23.6 115.433 26.288 112.145 26.288H107.537V32.264H104.657ZM127.888 14.408L135.328 32.264H132.28L130.336 27.608H122.272L120.352 32.264H117.28L124.72 14.408H127.888ZM123.592 24.488H129.016L126.328 17.912L123.592 24.488ZM153.112 22.424C153.208 23.024 153.088 24.704 153.088 24.704C152.584 29.648 149.392 32.408 144.472 32.456C138.856 32.456 135.544 28.424 135.544 23.336C135.544 18.272 138.856 14.24 144.472 14.24C150.232 14.24 152.08 18.536 152.08 18.536L149.536 19.952C149.536 19.952 148.24 17.144 144.472 17.144C140.632 17.144 138.4 19.856 138.4 23.336C138.4 26.84 140.632 29.552 144.472 29.552C146.992 29.48 149.368 28.496 149.992 25.184H144.88V22.424H153.112ZM167.586 14.408V17.24H158.226V21.656H166.818V24.512H158.226V29.408H167.586V32.264H155.37V14.408H167.586Z" fill="white"/>
<defs>
<linearGradient id="paint0_linear_328_334" x1="192.5" y1="44" x2="21" y2="44" gradientUnits="userSpaceOnUse">
<stop stop-color="white"/>
<stop offset="1" stop-color="#BBF3FF"/>
</linearGradient>
<linearGradient id="paint1_linear_328_334" x1="192.5" y1="44" x2="21" y2="44" gradientUnits="userSpaceOnUse">
<stop stop-color="white"/>
<stop offset="1" stop-color="#BBF3FF"/>
</linearGradient>
</defs>
</svg>
