<svg width="199" height="45" viewBox="0 0 199 45" fill="none" xmlns="http://www.w3.org/2000/svg">
<path d="M20.6463 1C20.3832 1 20.1307 1.10367 19.9436 1.28855L1.29727 19.7064C1.10706 19.8943 1 20.1505 1 20.4178V43C1 43.5523 1.44772 44 2 44H197C197.552 44 198 43.5523 198 43V2C198 1.44772 197.552 1 197 1H20.6463Z" fill="#BF9BF5" fill-opacity="0.33"/>
<path d="M2.71934 10.5529C2.0946 11.1998 1 10.7576 1 9.85824V2C1 1.44771 1.44772 1 2 1H9.5886C10.4711 1 10.921 2.05983 10.3079 2.69466L2.71934 10.5529Z" fill="#BF9BF5" fill-opacity="0.33"/>
<path d="M20.6463 1C20.3832 1 20.1307 1.10367 19.9436 1.28855L1.29727 19.7064C1.10706 19.8943 1 20.1505 1 20.4178V43C1 43.5523 1.44772 44 2 44H197C197.552 44 198 43.5523 198 43V2C198 1.44772 197.552 1 197 1H20.6463Z" stroke="url(#paint0_linear_328_328)" stroke-width="2" stroke-linejoin="round"/>
<path d="M2.71934 10.5529C2.0946 11.1998 1 10.7576 1 9.85824V2C1 1.44771 1.44772 1 2 1H9.5886C10.4711 1 10.921 2.05983 10.3079 2.69466L2.71934 10.5529Z" stroke="url(#paint1_linear_328_328)" stroke-width="2" stroke-linejoin="round"/>
<path d="M41.744 17.848C41.456 17.392 41.12 17.056 40.448 16.648C39.128 15.88 37.808 15.76 36.68 15.904C35.792 16.024 34.88 16.336 34.448 17.344C34.208 17.992 34.328 18.832 34.76 19.384C35 19.624 35.216 19.84 35.576 20.08C35.984 20.344 36.32 20.512 37.016 20.68L38.24 21.016C41.408 21.856 42.68 22.528 43.4 23.248C44.288 24.208 45.032 26.032 44.288 28.12C43.832 29.128 42.896 30.088 41.768 30.712C41.048 31.072 40.016 31.456 39.176 31.552C37.208 31.84 35.408 31.48 33.584 30.448C31.76 29.392 30.824 27.808 30.56 27.136L33.272 26.104C33.44 26.512 33.92 27.328 34.976 27.952C36.392 28.768 37.376 28.96 38.84 28.72C39.224 28.672 39.824 28.48 40.424 28.216C40.976 27.904 41.336 27.568 41.576 27.112C41.96 26.368 41.672 25.624 41.312 25.24C40.928 24.832 40.136 24.472 37.592 23.776L36.32 23.44C35.384 23.176 34.64 22.864 34.016 22.432C33.248 21.952 32.72 21.424 32.576 21.232C31.64 20.104 31.112 17.992 31.784 16.312C32.624 14.248 34.712 13.336 36.272 13.096C37.712 12.928 39.896 13.048 41.84 14.176C42.92 14.776 43.688 15.544 44.168 16.288L41.744 17.848ZM55.8239 28.552C59.4719 28.552 61.8959 25.816 61.8959 22.336C61.8959 18.88 59.4719 16.144 55.8239 16.144C52.1759 16.144 49.7759 18.88 49.7759 22.336C49.7759 25.816 52.1759 28.552 55.8239 28.552ZM46.8959 22.336C46.8959 17.344 50.5439 13.216 55.8239 13.216C61.1039 13.216 64.7759 17.344 64.7759 22.336C64.7759 27.352 61.1039 31.456 55.8239 31.456C50.5439 31.456 46.8959 27.352 46.8959 22.336ZM86.207 13.408V31.264H83.303V17.8L78.047 27.304H75.287L69.983 17.8V31.264H67.079V13.408H70.991L76.655 23.656L82.271 13.408H86.207ZM89.2882 30.952H100.76V33.784H89.2882V30.952ZM115.719 13.408V16.24H110.823V31.264H107.919V16.24H102.951V13.408H115.719ZM126.451 13.408L133.891 31.264H130.843L128.899 26.608H120.835L118.915 31.264H115.843L123.283 13.408H126.451ZM122.155 23.488H127.579L124.891 16.912L122.155 23.488ZM139.311 13.408V28.408H147.927V31.264H136.407V13.408H139.311ZM165.635 13.408L158.579 21.208L165.755 31.264H162.155L156.587 23.44L153.467 26.968V31.264H150.563V13.432H153.467V22.72L161.723 13.408H165.635Z" fill="white"/>
<defs>
<linearGradient id="paint0_linear_328_328" x1="6.5" y1="44" x2="178" y2="44" gradientUnits="userSpaceOnUse">
<stop stop-color="white"/>
<stop offset="1" stop-color="#8244B1"/>
</linearGradient>
<linearGradient id="paint1_linear_328_328" x1="6.5" y1="44" x2="178" y2="44" gradientUnits="userSpaceOnUse">
<stop stop-color="white"/>
<stop offset="1" stop-color="#8244B1"/>
</linearGradient>
</defs>
</svg>
