<svg width="357" height="739" viewBox="0 0 357 739" fill="none" xmlns="http://www.w3.org/2000/svg">
<path d="M3.25 54.25H125H145H209H236H351.75V737.75H3.25V54.25Z" stroke="#FE01B0" stroke-opacity="0.48" stroke-width="2.5"/>
<path d="M307.602 43.5H2.5V6.5H75.5H75.5296L75.559 6.49651L126.03 0.5H229.607L274.434 6.49559L274.467 6.5H274.5H354.281V21.6818L307.602 43.5Z" fill="url(#paint0_linear_565_285)" fill-opacity="0.64" stroke="#FF98DF"/>
<path d="M341.675 32.0002L342.307 43.6341L312.701 44.9835L341.675 32.0002Z" fill="#FE01B0"/>
<path d="M344.852 29.5462L354.559 23.9112L355 43.9072L345.172 44.0887L344.852 29.5462Z" fill="#FE01B0"/>
<path d="M177.667 44C177.667 46.9455 180.054 49.3333 183 49.3333C185.946 49.3333 188.333 46.9455 188.333 44C188.333 41.0545 185.946 38.6667 183 38.6667C180.054 38.6667 177.667 41.0545 177.667 44ZM2 45.0006L183 45L183 43L2 43.0006L2 45.0006Z" fill="url(#paint1_linear_565_285)"/>
<path d="M145.655 101.16L145.755 101.208H145.867H313.158V146.966L277.082 193.069H41.8428V87.668H116.873L145.655 101.16Z" fill="url(#paint2_linear_565_285)" fill-opacity="0.64" stroke="#FF98DF"/>
<path d="M148.118 96.1021L148.222 96.1525H148.337H323.248V147.869L284.716 199.915H33.5859V82.5742H120.323L148.118 96.1021Z" stroke="#FFA3E3"/>
<path d="M238.448 214.676L238.322 214.592H238.172H170.271L157.735 204.32H280.706V224.425H253.137L238.448 214.676Z" fill="#FE01B0" stroke="#FF98DF"/>
<path d="M206.036 87.7059L205.946 87.7423H205.849H166.885L160.38 92.3828H230.314L236.962 82.452L218.3 82.7574L206.036 87.7059Z" stroke="#FF3AC2"/>
<line x1="23.5" y1="147.741" x2="23.5" y2="214.674" stroke="#FF98DF"/>
<line x1="23" y1="214.174" x2="87.1986" y2="214.174" stroke="#FF98DF"/>
<line x1="87.6982" y1="214.674" x2="87.6982" y2="224.925" stroke="#FF98DF"/>
<path d="M81.5543 227.337L84.3763 224.925H90.7256L93.5475 227.337L96.3694 229.749V234.874L93.5475 237.588L90.7256 240H84.0235L81.5543 237.588L78.7324 234.874V229.749L81.5543 227.337Z" fill="#FE01B0"/>
<path d="M31.4658 199.6H78.0275L74.8528 203.821H31.4658V199.6Z" fill="#FF91DD"/>
<path d="M32.877 203.82L32.877 185.73L27.2331 186.964L27.2331 203.82L32.877 203.82Z" fill="#FF98DF"/>
<path d="M243.815 79H252.986L242.756 94.0749H233.232L243.815 79Z" fill="#FE01B0"/>
<path d="M255.103 79H264.274L254.044 94.0749H244.521L255.103 79Z" fill="#FE01B0"/>
<path d="M266.391 79H275.562L265.333 94.0749H255.809L266.391 79Z" fill="#FE01B0"/>
<path d="M277.678 79H286.849L276.62 94.0749H267.096L277.678 79Z" fill="#FE01B0"/>
<path d="M288.966 79H298.137L287.908 94.0749H278.384L288.966 79Z" fill="#FE01B0"/>
<path d="M300.253 79H309.424L299.195 94.0749H289.671L300.253 79Z" fill="#FE01B0"/>
<path d="M311.541 79H320.712L310.483 94.0749H300.959L311.541 79Z" fill="#FE01B0"/>
<path d="M322.828 79H332L321.77 94.0749H312.246L322.828 79Z" fill="#FE01B0"/>
<path d="M143.247 268.161L143.347 268.208H143.457H312.92V313.964L276.376 360.069H38.0801V254.668H114.09L143.247 268.161Z" fill="url(#paint3_linear_565_285)" fill-opacity="0.64" stroke="#FF98DF"/>
<path d="M145.743 263.103L145.846 263.152H145.96H323.141V314.867L284.109 366.915H29.7168V249.574H117.586L145.743 263.103Z" stroke="#FFA3E3"/>
<path d="M237.231 381.674L237.106 381.592H236.956H168.173L155.475 371.32H280.048V391.425H252.113L237.231 381.674Z" fill="#FE01B0" stroke="#FF98DF"/>
<path d="M204.402 254.707L204.313 254.742H204.217H164.744L158.155 259.383H229.004L235.738 249.452L216.826 249.757L204.402 254.707Z" stroke="#FF3AC2"/>
<line x1="19.5" y1="314.741" x2="19.5" y2="381.674" stroke="#FF98DF"/>
<line x1="19" y1="381.174" x2="84.0297" y2="381.174" stroke="#FF98DF"/>
<line x1="84.5293" y1="381.674" x2="84.5293" y2="391.925" stroke="#FF98DF"/>
<path d="M78.3125 394.337L81.171 391.925H87.6025L90.4609 394.337L93.3194 396.749V401.874L90.4609 404.588L87.6025 407H80.8137L78.3125 404.588L75.4541 401.874V396.749L78.3125 394.337Z" fill="#FE01B0"/>
<path d="M27.5752 366.6H74.7396L71.5238 370.821H27.5752V366.6Z" fill="#FF91DD"/>
<path d="M29.0049 370.82L29.0049 352.73L23.288 353.964L23.288 370.82L29.0049 370.82Z" fill="#FF98DF"/>
<path d="M242.673 246H251.963L241.601 261.075H231.954L242.673 246Z" fill="#FE01B0"/>
<path d="M254.107 246H263.397L253.035 261.075H243.388L254.107 246Z" fill="#FE01B0"/>
<path d="M265.541 246H274.831L264.47 261.075H254.822L265.541 246Z" fill="#FE01B0"/>
<path d="M276.975 246H286.265L275.903 261.075H266.256L276.975 246Z" fill="#FE01B0"/>
<path d="M288.409 246H297.699L287.337 261.075H277.689L288.409 246Z" fill="#FE01B0"/>
<path d="M299.842 246H309.132L298.77 261.075H289.123L299.842 246Z" fill="#FE01B0"/>
<path d="M311.276 246H320.566L310.204 261.075H300.557L311.276 246Z" fill="#FE01B0"/>
<path d="M322.71 246H332L321.638 261.075H311.991L322.71 246Z" fill="#FE01B0"/>
<path d="M6 166L6.00003 675" stroke="#FE01B0" stroke-width="6"/>
<path d="M350 54L350 565" stroke="#FE01B0" stroke-width="6"/>
<path d="M13 71.5L3.25 77.1292L3.25 65.8708L13 71.5Z" fill="#FE01B0"/>
<path d="M13 92.5L3.25 98.1292L3.25 86.8708L13 92.5Z" fill="#FE01B0"/>
<path d="M13 112.5L3.25 118.129L3.25 106.871L13 112.5Z" fill="#FE01B0"/>
<path d="M357 662.5L347.25 668.129L347.25 656.871L357 662.5Z" fill="#FE01B0"/>
<path d="M357 682L347.25 688.062L347.25 675.938L357 682Z" fill="#FE01B0"/>
<path d="M357 702.5L347.25 708.129L347.25 696.871L357 702.5Z" fill="#FE01B0"/>
<line x1="23.5" y1="187" x2="23.5" y2="709" stroke="#FE01B0" stroke-opacity="0.32"/>
<path d="M201.491 581.117L201.429 581.133H201.365H47.8249L42.7696 592.5H304.593L309.384 569.507L243.279 570.207L201.491 581.117Z" stroke="#FF3AC2"/>
<rect x="36.5" y="600.5" width="279" height="114" rx="4.5" fill="url(#paint4_linear_565_285)" stroke="#FF98DF"/>
<path d="M307.833 595.5C307.833 596.973 309.027 598.167 310.5 598.167C311.973 598.167 313.167 596.973 313.167 595.5C313.167 594.027 311.973 592.833 310.5 592.833C309.027 592.833 307.833 594.027 307.833 595.5ZM37.5 595.5L37.0606 595.261L36.6596 596H37.5V595.5ZM47 578V577.5H46.7025L46.5606 577.761L47 578ZM201 578.5C201.276 578.5 201.5 578.276 201.5 578C201.5 577.724 201.276 577.5 201 577.5V578.5ZM310.5 595H37.5V596H310.5V595ZM37.9394 595.739L47.4394 578.239L46.5606 577.761L37.0606 595.261L37.9394 595.739ZM47 578.5H201V577.5H47V578.5Z" fill="#FF98DF"/>
<defs>
<linearGradient id="paint0_linear_565_285" x1="178.39" y1="0" x2="178.39" y2="44" gradientUnits="userSpaceOnUse">
<stop stop-color="#FE01B0"/>
<stop offset="1" stop-color="#FE01B0" stop-opacity="0.35"/>
</linearGradient>
<linearGradient id="paint1_linear_565_285" x1="85.875" y1="39.5003" x2="5.60104" y2="41.1759" gradientUnits="userSpaceOnUse">
<stop stop-color="#FF98DF"/>
<stop offset="1" stop-color="#FF21BB"/>
</linearGradient>
<linearGradient id="paint2_linear_565_285" x1="177.5" y1="100.708" x2="177.5" y2="193.569" gradientUnits="userSpaceOnUse">
<stop stop-color="#FE01B0"/>
<stop offset="1" stop-color="#FE01B0" stop-opacity="0.35"/>
</linearGradient>
<linearGradient id="paint3_linear_565_285" x1="175.5" y1="267.708" x2="175.5" y2="360.569" gradientUnits="userSpaceOnUse">
<stop stop-color="#FE01B0"/>
<stop offset="1" stop-color="#FE01B0" stop-opacity="0.35"/>
</linearGradient>
<linearGradient id="paint4_linear_565_285" x1="176" y1="600" x2="176" y2="715" gradientUnits="userSpaceOnUse">
<stop stop-color="#FE01B0" stop-opacity="0.63"/>
<stop offset="1" stop-color="#FE01B0" stop-opacity="0"/>
</linearGradient>
</defs>
</svg>
