<svg width="357" height="739" viewBox="0 0 357 739" fill="none" xmlns="http://www.w3.org/2000/svg">
<path d="M3.25 54.25H125H145H209H236H351.75V737.75H3.25V54.25Z" stroke="#FE01B0" stroke-opacity="0.48" stroke-width="2.5"/>
<path d="M307.602 43.5H2.5V6.5H75.5H75.5296L75.559 6.49651L126.03 0.5H229.607L274.434 6.49559L274.467 6.5H274.5H354.281V21.6818L307.602 43.5Z" fill="url(#paint0_linear_679_78)" fill-opacity="0.64" stroke="#FF98DF"/>
<path d="M341.675 32.0002L342.307 43.6341L312.701 44.9835L341.675 32.0002Z" fill="#FE01B0"/>
<path d="M344.852 29.5462L354.559 23.9112L355 43.9072L345.172 44.0887L344.852 29.5462Z" fill="#FE01B0"/>
<path d="M177.667 44C177.667 46.9455 180.054 49.3333 183 49.3333C185.946 49.3333 188.333 46.9455 188.333 44C188.333 41.0545 185.946 38.6667 183 38.6667C180.054 38.6667 177.667 41.0545 177.667 44ZM2 45.0006L183 45L183 43L2 43.0006L2 45.0006Z" fill="url(#paint1_linear_679_78)"/>
<path d="M145.655 101.16L145.755 101.208H145.867H313.158V146.966L277.082 193.069H41.8428V87.668H116.873L145.655 101.16Z" fill="url(#paint2_linear_679_78)" fill-opacity="0.64" stroke="#FF98DF"/>
<path d="M148.118 96.1021L148.222 96.1525H148.337H323.248V147.869L284.716 199.915H33.5859V82.5742H120.323L148.118 96.1021Z" stroke="#FFA3E3"/>
<path d="M238.448 214.676L238.322 214.592H238.172H170.271L157.735 204.32H280.706V224.425H253.137L238.448 214.676Z" fill="#FE01B0" stroke="#FF98DF"/>
<path d="M206.036 87.7059L205.946 87.7423H205.849H166.885L160.38 92.3828H230.314L236.962 82.452L218.3 82.7574L206.036 87.7059Z" stroke="#FF3AC2"/>
<line x1="23.5" y1="147.741" x2="23.5" y2="214.674" stroke="#FF98DF"/>
<line x1="23" y1="214.174" x2="87.1986" y2="214.174" stroke="#FF98DF"/>
<line x1="87.6982" y1="214.674" x2="87.6982" y2="224.925" stroke="#FF98DF"/>
<path d="M81.5543 227.337L84.3763 224.925H90.7256L93.5475 227.337L96.3694 229.749V234.874L93.5475 237.588L90.7256 240H84.0235L81.5543 237.588L78.7324 234.874V229.749L81.5543 227.337Z" fill="#FE01B0"/>
<path d="M31.4658 199.6H78.0275L74.8528 203.821H31.4658V199.6Z" fill="#FF91DD"/>
<path d="M32.877 203.82L32.877 185.73L27.2331 186.964L27.2331 203.82L32.877 203.82Z" fill="#FF98DF"/>
<path d="M243.815 79H252.986L242.756 94.0749H233.232L243.815 79Z" fill="#FE01B0"/>
<path d="M255.103 79H264.274L254.044 94.0749H244.521L255.103 79Z" fill="#FE01B0"/>
<path d="M266.391 79H275.562L265.333 94.0749H255.809L266.391 79Z" fill="#FE01B0"/>
<path d="M277.678 79H286.849L276.62 94.0749H267.096L277.678 79Z" fill="#FE01B0"/>
<path d="M288.966 79H298.137L287.908 94.0749H278.384L288.966 79Z" fill="#FE01B0"/>
<path d="M300.253 79H309.424L299.195 94.0749H289.671L300.253 79Z" fill="#FE01B0"/>
<path d="M311.541 79H320.712L310.483 94.0749H300.959L311.541 79Z" fill="#FE01B0"/>
<path d="M322.828 79H332L321.77 94.0749H312.246L322.828 79Z" fill="#FE01B0"/>
<path d="M143.247 268.161L143.347 268.208H143.457H312.92V313.964L276.376 360.069H38.0801V254.668H114.09L143.247 268.161Z" fill="url(#paint3_linear_679_78)" fill-opacity="0.64" stroke="#FF98DF"/>
<path d="M145.743 263.103L145.846 263.152H145.96H323.141V314.867L284.109 366.915H29.7168V249.574H117.586L145.743 263.103Z" stroke="#FFA3E3"/>
<path d="M237.231 381.674L237.106 381.592H236.956H168.173L155.475 371.32H280.048V391.425H252.113L237.231 381.674Z" fill="#FE01B0" stroke="#FF98DF"/>
<path d="M204.402 254.707L204.313 254.742H204.217H164.744L158.155 259.383H229.004L235.738 249.452L216.826 249.757L204.402 254.707Z" stroke="#FF3AC2"/>
<line x1="19.5" y1="314.741" x2="19.5" y2="381.674" stroke="#FF98DF"/>
<line x1="19" y1="381.174" x2="84.0297" y2="381.174" stroke="#FF98DF"/>
<line x1="84.5293" y1="381.674" x2="84.5293" y2="391.925" stroke="#FF98DF"/>
<path d="M78.3125 394.337L81.171 391.925H87.6025L90.4609 394.337L93.3194 396.749V401.874L90.4609 404.588L87.6025 407H80.8137L78.3125 404.588L75.4541 401.874V396.749L78.3125 394.337Z" fill="#FE01B0"/>
<path d="M27.5752 366.6H74.7396L71.5238 370.821H27.5752V366.6Z" fill="#FF91DD"/>
<path d="M29.0049 370.82L29.0049 352.73L23.288 353.964L23.288 370.82L29.0049 370.82Z" fill="#FF98DF"/>
<path d="M242.673 246H251.963L241.601 261.075H231.954L242.673 246Z" fill="#FE01B0"/>
<path d="M254.107 246H263.397L253.035 261.075H243.388L254.107 246Z" fill="#FE01B0"/>
<path d="M265.541 246H274.831L264.47 261.075H254.822L265.541 246Z" fill="#FE01B0"/>
<path d="M276.975 246H286.265L275.903 261.075H266.256L276.975 246Z" fill="#FE01B0"/>
<path d="M288.409 246H297.699L287.337 261.075H277.689L288.409 246Z" fill="#FE01B0"/>
<path d="M299.842 246H309.132L298.77 261.075H289.123L299.842 246Z" fill="#FE01B0"/>
<path d="M311.276 246H320.566L310.204 261.075H300.557L311.276 246Z" fill="#FE01B0"/>
<path d="M322.71 246H332L321.638 261.075H311.991L322.71 246Z" fill="#FE01B0"/>
<path d="M6 166L6.00003 675" stroke="#FE01B0" stroke-width="6"/>
<path d="M350 54L350 565" stroke="#FE01B0" stroke-width="6"/>
<path d="M13 71.5L3.25 77.1292L3.25 65.8708L13 71.5Z" fill="#FE01B0"/>
<path d="M13 92.5L3.25 98.1292L3.25 86.8708L13 92.5Z" fill="#FE01B0"/>
<path d="M13 112.5L3.25 118.129L3.25 106.871L13 112.5Z" fill="#FE01B0"/>
<path d="M357 662.5L347.25 668.129L347.25 656.871L357 662.5Z" fill="#FE01B0"/>
<path d="M357 682L347.25 688.062L347.25 675.938L357 682Z" fill="#FE01B0"/>
<path d="M357 702.5L347.25 708.129L347.25 696.871L357 702.5Z" fill="#FE01B0"/>
<line x1="23.5" y1="187" x2="23.5" y2="709" stroke="#FE01B0" stroke-opacity="0.32"/>
<path d="M201.491 581.117L201.429 581.133H201.365H47.8249L42.7696 592.5H304.593L309.384 569.507L243.279 570.207L201.491 581.117Z" stroke="#FF3AC2"/>
<rect x="36.5" y="600.5" width="279" height="114" rx="4.5" fill="url(#paint4_linear_679_78)" stroke="#FF98DF"/>
<path d="M307.833 595.5C307.833 596.973 309.027 598.167 310.5 598.167C311.973 598.167 313.167 596.973 313.167 595.5C313.167 594.027 311.973 592.833 310.5 592.833C309.027 592.833 307.833 594.027 307.833 595.5ZM37.5 595.5L37.0606 595.261L36.6596 596H37.5V595.5ZM47 578V577.5H46.7025L46.5606 577.761L47 578ZM201 578.5C201.276 578.5 201.5 578.276 201.5 578C201.5 577.724 201.276 577.5 201 577.5V578.5ZM310.5 595H37.5V596H310.5V595ZM37.9394 595.739L47.4394 578.239L46.5606 577.761L37.0606 595.261L37.9394 595.739ZM47 578.5H201V577.5H47V578.5Z" fill="#FF98DF"/>
<path d="M53.66 94.336V103H52.256V95.908L50.996 96.532L50.42 95.284L52.256 94.336H53.66ZM59.7306 98.512C60.4866 98.956 61.1226 99.676 61.1226 100.552C61.1226 102.004 59.9226 103.06 58.0866 103.06C56.2626 103.06 55.0746 102.004 55.0746 100.444H56.4186C56.4186 101.08 56.9706 101.728 58.0866 101.728C59.2146 101.728 59.7906 101.092 59.7906 100.444C59.7906 99.796 59.3226 99.16 58.1106 99.16H57.4986V97.888H58.1346C59.1306 97.888 59.6586 97.312 59.6586 96.724C59.6586 96.172 59.1546 95.608 58.1706 95.608C57.1746 95.608 56.6826 96.16 56.6826 96.736H55.3386C55.3386 95.272 56.4906 94.276 58.1706 94.276C59.8266 94.276 60.9786 95.272 60.9786 96.628C60.9786 97.42 60.4266 98.092 59.7306 98.512ZM62.705 96.208H64.181V97.636H62.705V96.208ZM62.705 101.404V99.976H64.181V101.404H62.705ZM70.3578 100.9C70.6938 100.348 70.7178 99.688 70.7178 98.656C70.7178 97.636 70.6938 96.988 70.3578 96.436C70.1778 96.112 69.8058 95.668 68.9538 95.668C68.1018 95.668 67.7298 96.1 67.5618 96.424C67.2138 96.988 67.1898 97.636 67.1898 98.656C67.1898 99.676 67.2138 100.336 67.5618 100.888C67.7298 101.224 68.1018 101.656 68.9538 101.656C69.8058 101.656 70.1778 101.224 70.3578 100.9ZM65.7738 98.656C65.7738 97.516 65.7858 96.52 66.3378 95.632C66.6738 95.044 67.4538 94.252 68.9538 94.252C70.4538 94.252 71.2338 95.056 71.5818 95.632C72.1458 96.52 72.1458 97.528 72.1458 98.656C72.1458 99.808 72.1458 100.816 71.5818 101.704C71.2338 102.292 70.4538 103.084 68.9538 103.084C67.4538 103.084 66.6738 102.28 66.3378 101.704C65.7858 100.804 65.7738 99.796 65.7738 98.656ZM77.7523 100.9C78.0883 100.348 78.1123 99.688 78.1123 98.656C78.1123 97.636 78.0883 96.988 77.7523 96.436C77.5723 96.112 77.2003 95.668 76.3483 95.668C75.4963 95.668 75.1243 96.1 74.9563 96.424C74.6083 96.988 74.5843 97.636 74.5843 98.656C74.5843 99.676 74.6083 100.336 74.9563 100.888C75.1243 101.224 75.4963 101.656 76.3483 101.656C77.2003 101.656 77.5723 101.224 77.7523 100.9ZM73.1683 98.656C73.1683 97.516 73.1803 96.52 73.7323 95.632C74.0683 95.044 74.8483 94.252 76.3483 94.252C77.8483 94.252 78.6283 95.056 78.9763 95.632C79.5403 96.52 79.5403 97.528 79.5403 98.656C79.5403 99.808 79.5403 100.816 78.9763 101.704C78.6283 102.292 77.8483 103.084 76.3483 103.084C74.8483 103.084 74.0683 102.28 73.7323 101.704C73.1803 100.804 73.1683 99.796 73.1683 98.656ZM80.8269 98.692C81.2349 97.516 82.2429 97.096 82.9629 97.084C83.5029 97.084 84.0429 97.336 84.2469 97.456L84.7029 97.696L84.8589 97.804L85.2669 98.008C85.4109 98.08 85.5189 98.2 85.8189 98.2C86.0469 98.2 86.5149 98.044 86.6949 97.492L88.1109 97.972C87.6789 99.268 86.3709 99.688 85.8189 99.688C85.3029 99.688 84.6429 99.376 84.5949 99.352L84.0909 99.1L83.9109 98.968L83.5029 98.752C83.3349 98.644 83.2629 98.584 82.9629 98.572C82.6989 98.584 82.4109 98.668 82.2429 99.172L80.8269 98.692ZM89.482 102.88V101.572L93.13 98.152C93.25 98.032 93.394 97.864 93.454 97.732C93.778 97.024 93.526 96.148 92.746 95.812C91.978 95.476 91.006 95.788 90.754 96.592L89.434 96.328C89.95 94.468 91.894 93.976 93.274 94.588C94.69 95.152 95.338 96.832 94.702 98.296C94.57 98.572 94.354 98.908 94.054 99.16L91.546 101.5H95.026V102.88H89.482ZM99.1991 94.336V103H97.7951V95.908L96.5351 96.532L95.9591 95.284L97.7951 94.336H99.1991ZM101.178 96.208H102.654V97.636H101.178V96.208ZM101.178 101.404V99.976H102.654V101.404H101.178ZM108.902 98.512C109.658 98.956 110.294 99.676 110.294 100.552C110.294 102.004 109.094 103.06 107.258 103.06C105.434 103.06 104.246 102.004 104.246 100.444H105.59C105.59 101.08 106.142 101.728 107.258 101.728C108.386 101.728 108.962 101.092 108.962 100.444C108.962 99.796 108.494 99.16 107.282 99.16H106.67V97.888H107.306C108.302 97.888 108.83 97.312 108.83 96.724C108.83 96.172 108.326 95.608 107.342 95.608C106.346 95.608 105.854 96.16 105.854 96.736H104.51C104.51 95.272 105.662 94.276 107.342 94.276C108.998 94.276 110.15 95.272 110.15 96.628C110.15 97.42 109.598 98.092 108.902 98.512ZM115.897 100.9C116.233 100.348 116.257 99.688 116.257 98.656C116.257 97.636 116.233 96.988 115.897 96.436C115.717 96.112 115.345 95.668 114.493 95.668C113.641 95.668 113.269 96.1 113.101 96.424C112.753 96.988 112.729 97.636 112.729 98.656C112.729 99.676 112.753 100.336 113.101 100.888C113.269 101.224 113.641 101.656 114.493 101.656C115.345 101.656 115.717 101.224 115.897 100.9ZM111.313 98.656C111.313 97.516 111.325 96.52 111.877 95.632C112.213 95.044 112.993 94.252 114.493 94.252C115.993 94.252 116.773 95.056 117.121 95.632C117.685 96.52 117.685 97.528 117.685 98.656C117.685 99.808 117.685 100.816 117.121 101.704C116.773 102.292 115.993 103.084 114.493 103.084C112.993 103.084 112.213 102.28 111.877 101.704C111.325 100.804 111.313 99.796 111.313 98.656Z" fill="white"/>
<path d="M67.86 135.74C71.58 135.74 73.9 137.04 73.9 139.22C73.9 141.4 71.58 142.72 67.86 142.72C64.14 142.72 61.8 141.4 61.8 139.22C61.8 137.04 64.14 135.74 67.86 135.74ZM60.14 134.3V125.9H62.6V128.16H66.26V125.9H68.74V134.3H60.14ZM62.6 132.36H66.26V130.08H62.6V132.36ZM64.28 139.22C64.28 140.26 65.54 140.76 67.86 140.76C70.18 140.76 71.46 140.26 71.46 139.22C71.46 138.18 70.18 137.7 67.86 137.7C65.54 137.7 64.28 138.18 64.28 139.22ZM71.22 135.34V124.76H73.7V128.96H76.1V131H73.7V135.34H71.22ZM77.7605 125.5H86.1405V127.42H80.2205V128.6H85.7805V130.46H80.2205V131.72C83.2205 131.7 85.0605 131.64 87.2205 131.32L87.4605 133.24C85.0405 133.62 82.9005 133.66 79.2405 133.66H77.7605V125.5ZM79.3805 136.62V134.72H91.1805V139.46H81.8605V140.66H91.7005V142.56H79.4205V137.7H88.7205V136.62H79.3805ZM88.6805 133.96V124.76H91.1805V128.3H93.5605V130.3H91.1805V133.96H88.6805ZM94.6209 132.4H110.761V134.22H103.901V135.36H108.821V139.72H98.9209V140.72H109.281V142.56H96.4809V138.08H106.361V137.14H96.4409V135.36H101.441V134.22H94.6209V132.4ZM95.2409 130.08C98.8609 129.92 100.681 129.04 101.161 127.98H96.1409V126.16H101.441V124.72H103.901V126.16H109.221V127.98H104.201C104.661 129.04 106.481 129.92 110.081 130.08L109.401 131.9C106.101 131.74 103.801 130.9 102.681 129.58C101.541 130.9 99.2409 131.74 95.9409 131.9L95.2409 130.08ZM117.003 135.232H123.527V136.45H117.003V135.232ZM128.217 136.744H139.403V137.808H134.405V142.078H133.131V137.808H128.217V136.744ZM129.435 132.922C129.435 131.256 131.185 130.206 133.775 130.206C136.379 130.206 138.129 131.256 138.129 132.922C138.129 134.588 136.379 135.652 133.775 135.652C131.185 135.652 129.435 134.588 129.435 132.922ZM130.751 132.922C130.751 133.958 131.969 134.602 133.775 134.602C135.609 134.602 136.813 133.958 136.813 132.922C136.813 131.886 135.609 131.228 133.775 131.228C131.969 131.228 130.751 131.886 130.751 132.922ZM140.454 136.688H151.626V137.752H146.642V142.078H145.368V137.752H140.454V136.688ZM141.084 134.728C143.38 134.406 145.298 133.02 145.326 131.48H141.476V130.458H150.562V131.48H146.754C146.782 133.02 148.7 134.406 150.996 134.728L150.52 135.75C148.532 135.428 146.796 134.42 146.04 133.006C145.298 134.42 143.548 135.428 141.574 135.75L141.084 134.728ZM152.69 136.226H163.848V137.276H152.69V136.226ZM153.936 139.376V138.34H162.434V142.092H161.132V139.376H153.936ZM154.132 135.162V130.038H162.504V131.046H155.42V132.082H162.182V133.062H155.42V134.168H162.574V135.162H154.132ZM170.456 137.486C173.102 137.486 174.782 138.354 174.782 139.782C174.782 141.21 173.102 142.05 170.456 142.05C167.824 142.05 166.144 141.21 166.144 139.782C166.144 138.354 167.824 137.486 170.456 137.486ZM164.94 136.45V135.414H169.406V133.09H170.68V135.414H176.07V136.45H164.94ZM166.242 131.354V130.332H174.684V131.368C174.684 132.362 174.684 133.37 174.348 134.644L173.074 134.504C173.41 133.244 173.41 132.32 173.41 131.368V131.354H166.242ZM167.432 139.782C167.432 140.58 168.594 141.07 170.456 141.07C172.332 141.07 173.508 140.58 173.508 139.782C173.508 138.956 172.332 138.494 170.456 138.494C168.594 138.494 167.432 138.956 167.432 139.782ZM182.091 133.986H183.365V135.68H188.335V136.73H177.163V135.68H182.091V133.986ZM177.807 133.65C180.145 133.328 182.077 131.942 182.077 130.374V129.87H183.379V130.374C183.379 131.956 185.311 133.328 187.663 133.65L187.187 134.658C185.241 134.336 183.519 133.412 182.735 132.054C181.951 133.412 180.243 134.35 178.283 134.658L177.807 133.65ZM178.521 141.91V137.85H186.977V141.91H178.521ZM179.767 140.888H185.703V138.9H179.767V140.888ZM190.253 133.314H191.569V134.588H190.253V133.314ZM190.253 138.9V137.626H191.569V138.9H190.253ZM205.534 129.702H206.822V142.106H205.534V129.702ZM197.372 139.138V130.738H198.646V133.958H201.978V130.738H203.252V139.138H197.372ZM198.646 138.088H201.978V134.966H198.646V138.088ZM209.566 130.388H215.39V135.484H209.566V130.388ZM210.812 134.448H214.116V131.41H210.812V134.448ZM211.022 137.654V136.646H219.072V139.726H212.324V140.93H219.464V141.952H211.05V138.774H217.798V137.654H211.022ZM217.784 136.044V129.73H219.072V136.044H217.784ZM227.361 133.846H230.105V129.702H231.393V142.106H230.105V134.882H227.361V133.846ZM221.117 138.466C223.007 137.542 224.281 135.176 224.281 132.866V130.752H225.569V132.866C225.569 135.134 226.843 137.402 228.691 138.256L227.935 139.278C226.535 138.578 225.485 137.178 224.953 135.484C224.407 137.262 223.329 138.76 221.929 139.502L221.117 138.466ZM233.395 137.052H244.581V138.074H241.753V142.092H240.465V138.074H237.511V142.092H236.209V138.074H233.395V137.052ZM234.725 131.214V130.178H243.237V133.454H236.041V134.84H243.531V135.876H234.739V132.488H241.949V131.214H234.725ZM245.631 135.428H256.817V136.38H245.631V135.428ZM246.947 138.2V137.29H255.431V139.992H248.235V141.028H255.809V141.924H246.975V139.124H254.171V138.2H246.947ZM247.045 130.948V130.052H255.403V132.712H248.333V133.664H255.627V134.588H247.059V131.844H254.129V130.948H247.045ZM261.43 131.102H264.09V129.674H265.378V131.102H268.038V132.124H265.378V132.278C265.378 133.678 266.498 135.008 268.36 135.54L267.758 136.534C266.344 136.128 265.308 135.26 264.762 134.154C264.23 135.372 263.138 136.324 261.682 136.786L261.08 135.764C262.942 135.218 264.09 133.832 264.09 132.278V132.124H261.43V131.102ZM262.27 141.056C264.342 140.748 265.91 139.712 266.134 138.536H262.774V137.486H270.908V138.536H267.534C267.772 139.698 269.354 140.748 271.398 141.056L270.922 142.064C269.074 141.756 267.548 140.888 266.848 139.726C266.134 140.902 264.608 141.742 262.76 142.05L262.27 141.056ZM269.424 136.87V129.73H270.712V132.698H272.476V133.762H270.712V136.87H269.424ZM276.621 130.654C278.441 130.654 279.743 132.32 279.743 134.98C279.743 137.626 278.441 139.32 276.621 139.32C274.787 139.32 273.471 137.626 273.471 134.98C273.471 132.32 274.787 130.654 276.621 130.654ZM274.717 134.98C274.717 136.954 275.487 138.172 276.621 138.172C277.741 138.172 278.511 136.954 278.511 134.98C278.511 133.02 277.741 131.816 276.621 131.816C275.487 131.816 274.717 133.02 274.717 134.98ZM281.577 142.092V129.73H282.865V134.588H284.811V135.666H282.865V142.092H281.577ZM293.813 129.702H295.101V134.56H297.047V135.652H295.101V142.106H293.813V129.702ZM286.043 131.9V130.836H291.629V135.372H287.331V138.074C289.445 138.074 291.027 137.99 292.805 137.654L292.931 138.704C291.013 139.054 289.361 139.152 287.051 139.152H286.057V134.322H290.369V131.9H286.043ZM300.365 130.668L300.169 138.55H299.021L298.797 130.668H300.365ZM298.895 141.098V139.726H300.295V141.098H298.895Z" fill="white"/>
<path d="M56.9965 166C58.852 166 60.6316 166.737 61.9437 168.049C63.2558 169.361 63.9929 171.141 63.9929 172.996C63.9929 175.953 61.9155 179.175 57.8145 182.697C57.5865 182.893 57.2957 183 56.9951 183C56.6945 183 56.404 182.892 56.1763 182.695L55.905 182.46C51.9856 179.03 50 175.887 50 172.996C50 171.141 50.7371 169.361 52.0492 168.049C53.3613 166.737 55.1409 166 56.9965 166ZM56.9965 167.076C55.4264 167.076 53.9206 167.7 52.8103 168.81C51.7001 169.921 51.0764 171.426 51.0764 172.996C51.0764 175.509 52.9048 178.405 56.6118 181.648L56.8795 181.88C56.912 181.908 56.9535 181.924 56.9965 181.924C57.0394 181.924 57.0809 181.908 57.1134 181.88C60.9999 178.542 62.9165 175.569 62.9165 172.996C62.9165 172.219 62.7634 171.449 62.4659 170.731C62.1684 170.013 61.7323 169.36 61.1826 168.81C60.6329 168.261 59.9802 167.825 59.262 167.527C58.5437 167.23 57.7739 167.076 56.9965 167.076ZM56.9965 170.306C57.7101 170.306 58.3946 170.589 58.8992 171.094C59.4039 171.598 59.6874 172.283 59.6874 172.996C59.6874 173.71 59.4039 174.395 58.8992 174.899C58.3946 175.404 57.7101 175.687 56.9965 175.687C56.2828 175.687 55.5983 175.404 55.0937 174.899C54.589 174.395 54.3055 173.71 54.3055 172.996C54.3055 172.283 54.589 171.598 55.0937 171.094C55.5983 170.589 56.2828 170.306 56.9965 170.306ZM56.9965 171.382C56.5683 171.382 56.1576 171.552 55.8548 171.855C55.552 172.158 55.3819 172.568 55.3819 172.996C55.3819 173.425 55.552 173.835 55.8548 174.138C56.1576 174.441 56.5683 174.611 56.9965 174.611C57.4247 174.611 57.8353 174.441 58.1381 174.138C58.4409 173.835 58.611 173.425 58.611 172.996C58.611 172.568 58.4409 172.158 58.1381 171.855C57.8353 171.552 57.4247 171.382 56.9965 171.382Z" fill="white"/>
<path d="M70.41 173.32H73.98V172.28H71.41V169.38H77.32V169.99H72.16V171.66H77.38V172.28H74.72V173.32H78.31V173.93H70.41V173.32ZM71.36 176.15C71.36 175.15 72.48 174.57 74.35 174.57C76.22 174.57 77.34 175.15 77.34 176.15C77.34 177.16 76.22 177.72 74.35 177.72C72.48 177.72 71.36 177.16 71.36 176.15ZM72.12 176.15C72.12 176.77 72.97 177.13 74.35 177.13C75.73 177.13 76.57 176.77 76.57 176.15C76.57 175.53 75.73 175.18 74.35 175.18C72.97 175.18 72.12 175.53 72.12 176.15ZM79.6202 169.59H83.6102V170.22H80.3702V173.17C82.0202 173.17 82.9802 173.12 84.0902 172.89L84.1902 173.5C83.0102 173.73 82.0102 173.78 80.2702 173.78H79.6202V169.59ZM80.5002 175.29V174.67H86.3302V177.75H85.5702V175.29H80.5002ZM83.0802 171.87V171.26H85.5702V168.97H86.3302V174.21H85.5702V171.87H83.0802ZM90.2205 169.66C91.0205 169.66 91.6805 170.13 92.0605 170.95H94.3305V168.97H95.0805V177.75H94.3305V174.35H92.1005C91.7405 175.23 91.0605 175.75 90.2205 175.75C88.9505 175.75 88.0505 174.56 88.0505 172.7C88.0505 170.84 88.9505 169.66 90.2205 169.66ZM88.7605 172.7C88.7605 174.14 89.3605 175.08 90.2205 175.08C91.0705 175.08 91.6705 174.14 91.6705 172.7C91.6705 171.27 91.0705 170.34 90.2205 170.34C89.3605 170.34 88.7605 171.27 88.7605 172.7ZM92.2705 171.57C92.3605 171.91 92.4005 172.29 92.4005 172.7C92.4005 173.07 92.3605 173.41 92.3005 173.72H94.3305V171.57H92.2705ZM96.7907 169.88H101.501V170.52H99.5507V171.68C99.5507 173.08 100.561 174.63 101.811 175.24L101.371 175.84C100.401 175.35 99.5707 174.31 99.1807 173.13C98.7807 174.41 97.9107 175.54 96.9307 176.06L96.4807 175.45C97.7107 174.84 98.8007 173.18 98.8007 171.68V170.52H96.7907V169.88ZM102.571 177.75V168.98H103.331V172.53H104.781V173.18H103.331V177.75H102.571ZM112.061 168.97H112.791V177.74H112.061V173.14H110.781V177.28H110.071V169.18H110.781V172.5H112.061V168.97ZM105.691 175.56V170.06H108.941V170.67H106.441V174.92C107.631 174.92 108.471 174.88 109.431 174.66L109.511 175.3C108.461 175.52 107.581 175.56 106.261 175.56H105.691ZM114.131 169.92H116.321V168.93H117.091V169.92H119.301V170.54H114.131V169.92ZM114.611 172.59C114.611 171.63 115.461 171.01 116.711 171.01C117.951 171.01 118.801 171.63 118.801 172.59C118.801 173.54 117.951 174.15 116.711 174.15C115.461 174.15 114.611 173.54 114.611 172.59ZM115.211 175.56V174.94H120.881V177.75H120.121V175.56H115.211ZM115.341 172.59C115.341 173.18 115.891 173.56 116.711 173.56C117.521 173.56 118.071 173.18 118.071 172.59C118.071 171.99 117.521 171.61 116.711 171.61C115.891 171.61 115.341 171.99 115.341 172.59ZM120.121 174.45V168.99H120.881V171.41H122.181V172.05H120.881V174.45H120.121ZM123.661 169.88H129.801V170.85C129.801 171.97 129.801 173.1 129.501 174.73L128.751 174.63C129.051 173.09 129.051 171.95 129.051 170.85V170.5H123.661V169.88ZM122.841 176.49V175.87H124.811V172.96H125.561V175.87H126.971V172.96H127.721V175.87H130.751V176.49H122.841ZM134.286 169.55H135.006V170.95H136.946V169.55H137.666V173.61H134.286V169.55ZM135.006 172.99H136.946V171.53H135.006V172.99ZM135.406 175.4V174.77H141.256V177.75H140.496V175.4H135.406ZM138.646 174.19V169.15H139.366V171.27H140.536V168.98H141.256V174.24H140.536V171.9H139.366V174.19H138.646ZM142.627 173.97H150.537V174.61H146.937V177.73H146.187V174.61H142.627V173.97ZM143.097 172.61C144.607 172.39 146.167 171.39 146.167 170.21V170.14H143.367V169.53H149.777V170.14H146.997V170.21C146.997 171.39 148.557 172.39 150.067 172.61L149.777 173.22C148.437 172.99 147.107 172.25 146.587 171.19C146.057 172.25 144.737 172.99 143.397 173.22L143.097 172.61ZM157.797 168.99H158.557V175.48H157.797V172.44H155.287V171.82H157.797V170.76H155.287V170.14H157.797V168.99ZM151.877 174.16V169.62H152.647V173.51C153.857 173.51 154.997 173.44 156.327 173.2L156.407 173.84C154.997 174.1 153.807 174.16 152.527 174.16H151.877ZM152.977 177.54V174.92H153.727V176.91H158.797V177.54H152.977ZM166.537 168.97H167.287V177.74H166.537V168.97ZM160.237 175.48C162.587 174.35 163.787 172.65 163.947 170.55H160.627V169.92H164.717C164.717 172.44 163.547 174.66 160.637 176.09L160.237 175.48ZM169.387 169.42H170.137V173.1C171.517 173.1 172.547 173.03 173.737 172.79L173.837 173.41C172.587 173.67 171.487 173.73 170.017 173.73H169.387V169.42ZM170.437 177.61V174.53H176.037V177.61H170.437ZM171.167 177H175.287V175.14H171.167V177ZM172.787 172.13V171.53H175.277V170.57H172.787V169.98H175.277V168.98H176.037V174.14H175.277V172.13H172.787ZM178.068 169.66H182.388V170.13C182.388 170.68 182.388 171.56 182.168 172.71L181.418 172.63C181.628 171.59 181.648 170.83 181.648 170.29H178.068V169.66ZM177.528 173.53C178.088 173.53 178.738 173.53 179.408 173.51V171.61H180.158V173.49C181.128 173.45 182.118 173.38 183.018 173.25L183.078 173.82C181.258 174.12 179.158 174.16 177.628 174.17L177.528 173.53ZM178.878 177.54V174.98H179.638V176.91H184.658V177.54H178.878ZM183.618 175.57V168.98H184.388V171.85H185.658V172.49H184.388V175.57H183.618ZM192.932 169.89V174.47H193.992V175.13H192.932V176.89H192.222V175.13H188.742V174.47L192.222 169.89H192.932ZM189.632 174.47H192.222V170.97L189.632 174.47ZM198.742 175.51C199.072 174.99 199.102 174.36 199.102 173.38C199.102 172.41 199.072 171.79 198.742 171.27C198.582 170.95 198.222 170.52 197.412 170.52C196.602 170.52 196.242 170.94 196.082 171.26C195.752 171.79 195.722 172.41 195.722 173.38C195.722 174.35 195.752 174.98 196.082 175.5C196.242 175.83 196.602 176.25 197.412 176.25C198.222 176.25 198.582 175.83 198.742 175.51ZM195.012 173.38C195.012 172.46 195.022 171.65 195.442 170.94C195.692 170.45 196.282 169.81 197.412 169.81C198.552 169.81 199.132 170.46 199.392 170.94C199.812 171.65 199.812 172.47 199.812 173.38C199.812 174.32 199.812 175.13 199.392 175.84C199.132 176.33 198.552 176.97 197.412 176.97C196.282 176.97 195.692 176.32 195.442 175.84C195.022 175.12 195.012 174.3 195.012 173.38ZM205.362 169.99V170.67L202.002 176.93L201.372 176.6L204.562 170.68H200.832V169.99H205.362ZM206.659 170.29H209.849V169.13H210.599V170.29H213.759V170.91H206.659V170.29ZM206.269 176.71V176.08H209.849V174.84C208.299 174.76 207.369 174.15 207.369 173.17C207.369 172.13 208.449 171.52 210.219 171.52C211.969 171.52 213.069 172.13 213.069 173.17C213.069 174.15 212.129 174.76 210.599 174.84V176.08H214.199V176.71H206.269ZM208.139 173.17C208.139 173.84 208.929 174.23 210.219 174.23C211.509 174.23 212.299 173.84 212.299 173.17C212.299 172.52 211.509 172.11 210.219 172.11C208.929 172.11 208.139 172.52 208.139 173.17Z" fill="white"/>
<path d="M233.76 575.832H235.26V576.936C235.26 578.244 236.004 579.504 237.684 580.032L236.916 581.196C235.776 580.8 234.984 580.068 234.528 579.12C234.072 580.212 233.232 581.076 232.008 581.496L231.216 580.32C232.992 579.72 233.76 578.28 233.76 576.804V575.832ZM232.692 583.944C232.692 582.648 234.084 581.88 236.316 581.88C238.548 581.88 239.952 582.648 239.952 583.944C239.952 585.24 238.548 586.02 236.316 586.02C234.084 586.02 232.692 585.24 232.692 583.944ZM234.168 583.944C234.168 584.556 234.936 584.856 236.316 584.856C237.72 584.856 238.476 584.556 238.476 583.944C238.476 583.332 237.72 583.032 236.316 583.032C234.936 583.032 234.168 583.332 234.168 583.944ZM238.332 581.628V575.256H239.832V577.776H241.272V579.012H239.832V581.628H238.332ZM244.512 576.084H246.024V577.692C246.024 579.684 246.912 581.652 248.724 582.432L247.848 583.644C246.624 583.068 245.772 581.988 245.292 580.656C244.812 582.108 243.936 583.272 242.64 583.884L241.74 582.66C243.588 581.844 244.512 579.78 244.512 577.692V576.084ZM249.288 586.032V575.232H250.788V586.032H249.288ZM255.114 580.5H264.858V581.688H260.826V583.548H259.314V581.688H255.114V580.5ZM256.134 577.68C256.134 576.312 257.658 575.46 259.974 575.46C262.29 575.46 263.826 576.312 263.826 577.68C263.826 579.048 262.29 579.9 259.974 579.9C257.658 579.9 256.134 579.048 256.134 577.68ZM256.266 585.816V582.612H257.766V584.616H263.79V585.816H256.266ZM257.718 577.68C257.718 578.364 258.594 578.724 259.974 578.724C261.366 578.724 262.23 578.364 262.23 577.68C262.23 576.996 261.366 576.648 259.974 576.648C258.594 576.648 257.718 576.996 257.718 577.68ZM268.578 575.832C269.43 575.832 270.174 576.144 270.69 576.672H273.102V575.256H274.602V581.556H273.102V580.26H270.678C270.162 580.776 269.418 581.076 268.578 581.076C266.97 581.076 265.746 579.984 265.746 578.46C265.746 576.936 266.97 575.832 268.578 575.832ZM267.162 578.46C267.162 579.312 267.762 579.828 268.578 579.828C269.394 579.828 269.994 579.312 269.994 578.46C269.994 577.596 269.394 577.092 268.578 577.092C267.762 577.092 267.162 577.596 267.162 578.46ZM267.294 583.896C267.294 582.576 268.698 581.784 270.966 581.784C273.222 581.784 274.638 582.576 274.638 583.896C274.638 585.228 273.222 586.02 270.966 586.02C268.698 586.02 267.294 585.228 267.294 583.896ZM268.758 583.896C268.758 584.532 269.538 584.856 270.966 584.856C272.394 584.856 273.162 584.532 273.162 583.896C273.162 583.248 272.394 582.936 270.966 582.936C269.538 582.936 268.758 583.248 268.758 583.896ZM271.338 579.06H273.102V577.86H271.338C271.386 578.052 271.41 578.256 271.41 578.46C271.41 578.664 271.386 578.868 271.338 579.06ZM278.856 581.46H288.6V582.636H284.424V586.02H282.936V582.636H278.856V581.46ZM279.972 580.416V575.664H281.448V576.9H285.972V575.664H287.436V580.416H279.972ZM281.448 579.216H285.972V578.076H281.448V579.216ZM293.365 575.88H294.949V576.672C294.949 578.268 296.353 579.936 298.741 580.344L298.093 581.592C296.233 581.22 294.853 580.164 294.157 578.784C293.473 580.164 292.093 581.22 290.245 581.592L289.609 580.344C291.973 579.936 293.365 578.244 293.365 576.672V575.88ZM289.345 584.688V583.476H299.089V584.688H289.345Z" fill="white"/>
<path d="M65.7952 613.61C67.0952 613.61 68.0252 614.8 68.0252 616.7C68.0252 618.59 67.0952 619.8 65.7952 619.8C64.4852 619.8 63.5452 618.59 63.5452 616.7C63.5452 614.8 64.4852 613.61 65.7952 613.61ZM64.4352 616.7C64.4352 618.11 64.9852 618.98 65.7952 618.98C66.5952 618.98 67.1452 618.11 67.1452 616.7C67.1452 615.3 66.5952 614.44 65.7952 614.44C64.9852 614.44 64.4352 615.3 64.4352 616.7ZM69.3352 621.78V612.95H70.2552V616.42H71.6452V617.19H70.2552V621.78H69.3352ZM72.1854 619.93H80.1754V620.7H72.1854V619.93ZM73.1454 614.35V613.59H79.2154V616.34H74.0754V617.67H79.4254V618.41H73.1654V615.61H78.3054V614.35H73.1454ZM84.5757 616.26H85.7657V613.15H86.6357V621.33H85.7657V617.01H84.5757V616.26ZM81.2457 619.69V613.98H84.5157V614.73H82.1157V616.37H84.1257V617.09H82.1157V618.95C83.2757 618.94 84.0257 618.91 84.9157 618.73L85.0057 619.48C84.0057 619.66 83.1657 619.69 81.8157 619.69H81.2457ZM87.5657 621.77V612.94H88.4457V621.77H87.5657ZM90.1559 613.79H94.2559V619.58H90.1559V613.79ZM91.0559 618.84H93.3659V614.53H91.0559V618.84ZM95.9859 621.79V612.93H96.9059V621.79H95.9859ZM101.926 615.99H102.836V617.2H106.386V617.95H98.4061V617.2H101.926V615.99ZM98.8661 615.75C100.536 615.52 101.916 614.53 101.916 613.41V613.05H102.846V613.41C102.846 614.54 104.226 615.52 105.906 615.75L105.566 616.47C104.176 616.24 102.946 615.58 102.386 614.61C101.826 615.58 100.606 616.25 99.2061 616.47L98.8661 615.75ZM99.3761 621.65V618.75H105.416V621.65H99.3761ZM100.266 620.92H104.506V619.5H100.266V620.92ZM124.99 612.93H125.92V621.79H124.99V612.93ZM118.98 616.7C118.98 614.8 119.93 613.61 121.24 613.61C122.55 613.61 123.51 614.8 123.51 616.7C123.51 618.59 122.55 619.8 121.24 619.8C119.93 619.8 118.98 618.59 118.98 616.7ZM119.87 616.7C119.87 618.11 120.43 618.98 121.24 618.98C122.06 618.98 122.62 618.11 122.62 616.7C122.62 615.3 122.06 614.44 121.24 614.44C120.43 614.44 119.87 615.3 119.87 616.7ZM133.99 612.95H134.86V619.63H133.99V612.95ZM127.78 618V613.64H128.65V615.1H130.35V613.64H131.21V615.47H132.28V613.12H133.15V619.37H132.28V616.23H131.21V618H127.78ZM128.65 617.26H130.35V615.81H128.65V617.26ZM129.07 621.59V618.75H129.98V620.83H135.12V621.59H129.07ZM137.16 613.68H143.16V614.43H138.08V615.63H142.97V616.37H138.08V617.65H143.25V618.39H137.16V613.68ZM136.15 620.68V619.91H144.14V620.68H136.15ZM147.745 613.73H152.055V614.48H148.645V616.2H151.725V616.93H148.645V618.93C150.175 618.93 151.295 618.87 152.595 618.65L152.685 619.4C151.295 619.64 150.115 619.68 148.455 619.68H147.745V613.73ZM153.545 621.78V612.95H154.465V621.78H153.545ZM162.555 612.95H163.435V618.92H162.555V612.95ZM155.975 618.01C157.195 617.49 157.975 616.83 158.435 616.03L156.135 616.27L155.995 615.51L158.735 615.34C158.825 615.05 158.885 614.74 158.915 614.42H156.405V613.67H159.835C159.835 614.32 159.755 614.94 159.575 615.5H160.795V613.1H161.665V618.13H160.795V616.25H159.265C158.745 617.25 157.835 618.07 156.425 618.68L155.975 618.01ZM157.025 621.01C158.675 620.77 159.985 619.78 159.985 618.65V618.41H160.915V618.65C160.915 619.78 162.225 620.77 163.875 621.01L163.525 621.74C162.165 621.51 160.995 620.83 160.445 619.87C159.905 620.83 158.735 621.51 157.385 621.74L157.025 621.01ZM179.669 613.53H180.639V614.2C180.639 615.66 182.169 617 183.829 617.3L183.419 618.07C182.019 617.77 180.729 616.84 180.159 615.6C179.589 616.84 178.299 617.77 176.909 618.07L176.509 617.3C178.149 617 179.669 615.64 179.669 614.2V613.53ZM176.199 620.61V619.86H184.189V620.61H176.199ZM185.299 613.5H188.729V614.24H186.189V615.22H188.629V615.93H186.189V616.99C187.359 616.98 188.139 616.94 189.039 616.77L189.119 617.5C188.109 617.7 187.259 617.72 185.879 617.72H185.299V613.5ZM186.559 621.65V618.58H192.399V621.65H186.559ZM187.459 620.92H191.509V619.3H187.459V620.92ZM189.589 618.06V613.12H190.459V615.16H191.519V612.95H192.399V618.16H191.519V615.92H190.459V618.06H189.589ZM193.68 619.91H201.67V620.67H193.68V619.91ZM194.36 614.55V613.8H200.95V614.55H199.62V617.51H200.93V618.26H194.38V617.51H195.69V614.55H194.36ZM196.61 617.51H198.7V614.55H196.61V617.51ZM204.714 618.26H212.704V619.02H209.164V621.78H208.254V619.02H204.714V618.26ZM205.764 617.42V613.34H211.734V614.07H206.674V614.99H211.534V615.71H206.674V616.68H211.834V617.42H205.764ZM215.845 613.61C217.035 613.61 217.915 614.62 218.045 616.27H219.855V612.93H220.775V621.79H219.855V617.01H218.055C217.965 618.72 217.065 619.8 215.845 619.8C214.555 619.8 213.625 618.59 213.625 616.7C213.625 614.8 214.555 613.61 215.845 613.61ZM214.495 616.7C214.495 618.11 215.045 618.98 215.845 618.98C216.635 618.98 217.175 618.11 217.175 616.7C217.175 615.3 216.635 614.44 215.845 614.44C215.045 614.44 214.495 615.3 214.495 616.7ZM238.848 613.74V614.6H235.028V616.95H238.348V617.82H235.028V621.04H234.138V613.74H238.848ZM239.857 613.54H240.737V621.04H239.857V613.54ZM245.581 617.96C245.381 617.18 245.041 616.71 244.141 616.71C243.241 616.71 242.761 617.22 242.571 617.96H245.581ZM241.671 618.46C241.671 617.05 242.541 615.86 244.121 615.86C245.781 615.86 246.211 617.15 246.251 617.26C246.561 617.99 246.451 618.78 246.451 618.78H242.541C242.671 619.63 243.151 620.24 244.131 620.24C245.231 620.24 245.461 619.55 245.461 619.55L246.211 619.91C246.211 619.91 245.771 621.06 244.121 621.06C242.541 621.06 241.671 619.87 241.671 618.46ZM249.894 620.25C250.744 620.25 251.484 619.5 251.494 618.51C251.484 617.51 250.744 616.76 249.894 616.76C248.834 616.76 248.294 617.52 248.294 618.51C248.294 619.5 248.834 620.25 249.894 620.25ZM247.404 618.51C247.404 617.1 248.284 615.91 249.854 615.91C250.434 615.91 251.074 616.21 251.514 616.89V615.88H252.394V621.03H251.514V620.12C251.054 620.83 250.444 621.11 249.854 621.11C248.284 621.11 247.404 619.9 247.404 618.51ZM253.784 616.88H258.444V617.75H253.784V616.88ZM263.42 618.08C263.42 617.38 262.98 616.79 262.13 616.79C261.31 616.79 260.7 617.39 260.7 618.08V621.03H259.82V615.88H260.7V616.71C261.03 616.13 261.56 615.88 262.19 615.88C263.39 615.88 264.3 616.72 264.3 617.98V621.03H263.42V618.08ZM269.126 617.96C268.926 617.18 268.586 616.71 267.686 616.71C266.786 616.71 266.306 617.22 266.116 617.96H269.126ZM265.216 618.46C265.216 617.05 266.086 615.86 267.666 615.86C269.326 615.86 269.756 617.15 269.796 617.26C270.106 617.99 269.996 618.78 269.996 618.78H266.086C266.216 619.63 266.696 620.24 267.676 620.24C268.776 620.24 269.006 619.55 269.006 619.55L269.756 619.91C269.756 619.91 269.316 621.06 267.666 621.06C266.086 621.06 265.216 619.87 265.216 618.46ZM273.826 620.63C273.586 620.84 273.246 621.02 272.826 621.02C272.026 621.02 271.356 620.35 271.356 619.54V616.63H270.506V615.79H271.356V614.17H272.256V615.79H273.516V616.63H272.256V619.54C272.256 619.91 272.466 620.12 272.826 620.12C273.006 620.12 273.086 620.08 273.226 619.95L273.826 620.63ZM279.578 620.15C281.088 620.15 282.328 618.91 282.328 617.39C282.328 615.87 281.088 614.63 279.578 614.63H278.378V620.15H279.578ZM277.488 621.04V613.74H279.578C281.578 613.74 283.218 615.38 283.218 617.39C283.218 619.4 281.578 621.04 279.578 621.04H277.488ZM65.9647 636.96H73.9547V637.72H70.3847V640.77H69.4747V637.72H65.9647V636.96ZM66.8347 634.23C66.8347 633.04 68.0847 632.29 69.9347 632.29C71.7947 632.29 73.0447 633.04 73.0447 634.23C73.0447 635.42 71.7947 636.18 69.9347 636.18C68.0847 636.18 66.8347 635.42 66.8347 634.23ZM67.7747 634.23C67.7747 634.97 68.6447 635.43 69.9347 635.43C71.2447 635.43 72.1047 634.97 72.1047 634.23C72.1047 633.49 71.2447 633.02 69.9347 633.02C68.6447 633.02 67.7747 633.49 67.7747 634.23ZM74.705 636.92H82.685V637.68H79.125V640.77H78.215V637.68H74.705V636.92ZM75.155 635.52C76.795 635.29 78.165 634.3 78.185 633.2H75.435V632.47H81.925V633.2H79.205C79.225 634.3 80.595 635.29 82.235 635.52L81.895 636.25C80.475 636.02 79.235 635.3 78.695 634.29C78.165 635.3 76.915 636.02 75.505 636.25L75.155 635.52ZM85.7499 636.34H89.2699V635.05H90.1799V636.34H93.7399V637.08H85.7499V636.34ZM86.2099 634.79C87.8799 634.57 89.2599 633.58 89.2599 632.45V632.09H90.1899V632.45C90.1899 633.59 91.5699 634.57 93.2499 634.79L92.9099 635.52C91.5199 635.29 90.2899 634.62 89.7299 633.65C89.1699 634.63 87.9499 635.3 86.5499 635.52L86.2099 634.79ZM86.6399 638.62V637.89H92.7499V640.78H91.8199V638.62H86.6399ZM97.0948 632.83H102.035V633.6H100.025V634.56C100.025 636.04 100.995 637.56 102.335 638.14L101.815 638.87C100.795 638.41 99.9748 637.42 99.5648 636.24C99.1648 637.5 98.3448 638.59 97.3248 639.09L96.7948 638.36C98.1148 637.74 99.0948 636.08 99.0948 634.56V633.6H97.0948V632.83ZM103.125 640.78V631.95H104.045V640.78H103.125ZM106.525 632.5H112.495V633.27C112.495 634.11 112.495 635.02 112.255 636.29H113.515V637.03H109.965V640.77H109.035V637.03H105.535V636.29H111.325C111.595 635.03 111.595 634.1 111.595 633.27V633.23H106.525V632.5ZM114.275 636.02H122.265V636.7H114.275V636.02ZM115.215 638V637.35H121.275V639.28H116.135V640.02H121.545V640.66H115.235V638.66H120.375V638H115.215ZM115.285 632.82V632.18H121.255V634.08H116.205V634.76H121.415V635.42H115.295V633.46H120.345V632.82H115.285ZM131.26 631.94H132.19V634.04H133.45V634.8H132.19V636.88H131.26V631.94ZM125.72 636.29V632.44H126.63V635.52C127.8 635.51 129.04 635.41 130.39 635.14L130.5 635.9C129.02 636.21 127.71 636.29 126.42 636.29H125.72ZM126.26 638.09V637.34H129.02V640.78H128.11V638.09H126.26ZM129.43 638.09V637.34H132.19V640.78H131.27V638.09H129.43ZM136.41 632.61C137.71 632.61 138.64 633.8 138.64 635.7C138.64 637.59 137.71 638.8 136.41 638.8C135.1 638.8 134.16 637.59 134.16 635.7C134.16 633.8 135.1 632.61 136.41 632.61ZM135.05 635.7C135.05 637.11 135.6 637.98 136.41 637.98C137.21 637.98 137.76 637.11 137.76 635.7C137.76 634.3 137.21 633.44 136.41 633.44C135.6 633.44 135.05 634.3 135.05 635.7ZM139.95 640.78V631.95H140.87V635.42H142.26V636.19H140.87V640.78H139.95ZM148.691 631.93H149.611V635.4H151.001V636.18H149.611V640.79H148.691V631.93ZM143.141 633.5V632.74H147.131V635.98H144.061V637.91C145.571 637.91 146.701 637.85 147.971 637.61L148.061 638.36C146.691 638.61 145.511 638.68 143.861 638.68H143.151V635.23H146.231V633.5H143.141ZM166.584 634.99H167.494V636.2H171.044V636.95H163.064V636.2H166.584V634.99ZM163.524 634.75C165.194 634.52 166.574 633.53 166.574 632.41V632.05H167.504V632.41C167.504 633.54 168.884 634.52 170.564 634.75L170.224 635.47C168.834 635.24 167.604 634.58 167.044 633.61C166.484 634.58 165.264 635.25 163.864 635.47L163.524 634.75ZM164.034 640.65V637.75H170.074V640.65H164.034ZM164.924 639.92H169.164V638.5H164.924V639.92ZM175.325 634.99H176.235V636.2H179.785V636.95H171.805V636.2H175.325V634.99ZM172.265 634.75C173.935 634.52 175.315 633.53 175.315 632.41V632.05H176.245V632.41C176.245 633.54 177.625 634.52 179.305 634.75L178.965 635.47C177.575 635.24 176.345 634.58 175.785 633.61C175.225 634.58 174.005 635.25 172.605 635.47L172.265 634.75ZM172.775 640.65V637.75H178.815V640.65H172.775ZM173.665 639.92H177.905V638.5H173.665V639.92ZM180.905 632.73H185.035V633.48H181.825V635.2H184.845V635.93H181.825V637.93C183.305 637.92 184.385 637.87 185.665 637.66L185.745 638.4C184.395 638.64 183.225 638.68 181.605 638.68H180.905V632.73ZM186.425 640.78V631.95H187.355V635.44H188.745V636.21H187.355V640.78H186.425ZM189.285 638.96H192.805V637.39H190.265V634.59H195.405V633.32H190.245V632.57H196.315V635.32H191.175V636.64H196.525V637.39H193.715V638.96H197.275V639.71H189.285V638.96ZM209.549 637.01H217.539V637.77H213.969V640.77H213.059V637.77H209.549V637.01ZM210.539 635.89V632.42H216.529V635.89H210.539ZM211.439 635.16H215.629V633.15H211.439V635.16ZM224.659 631.95H225.579V637.97H224.659V635.08H222.959C222.779 636.12 221.859 636.82 220.709 636.82C219.389 636.82 218.419 635.93 218.419 634.68C218.419 633.42 219.389 632.54 220.709 632.54C221.869 632.54 222.799 633.26 222.969 634.32H224.659V631.95ZM219.299 634.68C219.299 635.49 219.889 636.05 220.709 636.05C221.499 636.05 222.099 635.49 222.099 634.68C222.099 633.86 221.499 633.31 220.709 633.31C219.889 633.31 219.299 633.86 219.299 634.68ZM219.319 640C220.959 639.74 222.239 638.75 222.239 637.63V637.31H223.189V637.63C223.189 638.78 224.449 639.74 226.109 640L225.749 640.73C224.379 640.49 223.229 639.81 222.709 638.85C222.179 639.8 221.029 640.5 219.669 640.73L219.319 640ZM233.349 631.93H234.279V640.79H233.349V631.93ZM227.339 635.7C227.339 633.8 228.289 632.61 229.599 632.61C230.909 632.61 231.869 633.8 231.869 635.7C231.869 637.59 230.909 638.8 229.599 638.8C228.289 638.8 227.339 637.59 227.339 635.7ZM228.229 635.7C228.229 637.11 228.789 637.98 229.599 637.98C230.419 637.98 230.979 637.11 230.979 635.7C230.979 634.3 230.419 633.44 229.599 633.44C228.789 633.44 228.229 634.3 228.229 635.7ZM235.779 636.38H243.749V637.13H235.779V636.38ZM236.769 640.58V637.99H237.689V639.83H242.919V640.58H236.769ZM236.769 635.47V632.31H242.759V633.04H237.689V634.72H242.839V635.47H236.769ZM247.534 632.1H248.414V633.01H249.614V632.1H250.474V635.18H251.134V632.1H252.004V633.01H253.194V632.1H254.064V635.31H251.254V636.2H254.794V636.95H246.814V636.2H250.344V635.31H247.534V632.1ZM247.804 640.65V637.49H248.714V638.31H252.874V637.49H253.784V640.65H247.804ZM248.414 634.57H249.614V633.7H248.414V634.57ZM248.714 639.92H252.874V639.01H248.714V639.92ZM252.004 634.57H253.194V633.7H252.004V634.57ZM257.905 632.61C259.205 632.61 260.135 633.8 260.135 635.7C260.135 637.59 259.205 638.8 257.905 638.8C256.595 638.8 255.655 637.59 255.655 635.7C255.655 633.8 256.595 632.61 257.905 632.61ZM256.545 635.7C256.545 637.11 257.095 637.98 257.905 637.98C258.705 637.98 259.255 637.11 259.255 635.7C259.255 634.3 258.705 633.44 257.905 633.44C257.095 633.44 256.545 634.3 256.545 635.7ZM261.445 640.78V631.95H262.365V635.42H263.755V636.19H262.365V640.78H261.445ZM264.295 638.92H267.815V637.09H265.215V632.55H266.135V634.08H270.435V632.55H271.355V637.09H268.725V638.92H272.285V639.68H264.295V638.92ZM266.135 636.34H270.435V634.83H266.135V636.34ZM276.555 634.99H277.465V636.2H281.015V636.95H273.035V636.2H276.555V634.99ZM273.495 634.75C275.165 634.52 276.545 633.53 276.545 632.41V632.05H277.475V632.41C277.475 633.54 278.855 634.52 280.535 634.75L280.195 635.47C278.805 635.24 277.575 634.58 277.015 633.61C276.455 634.58 275.235 635.25 273.835 635.47L273.495 634.75ZM274.005 640.65V637.75H280.045V640.65H274.005ZM274.895 639.92H279.135V638.5H274.895V639.92ZM79.7045 653.99H80.6145V655.2H84.1645V655.95H76.1845V655.2H79.7045V653.99ZM76.6445 653.75C78.3145 653.52 79.6945 652.53 79.6945 651.41V651.05H80.6245V651.41C80.6245 652.54 82.0045 653.52 83.6845 653.75L83.3445 654.47C81.9545 654.24 80.7245 653.58 80.1645 652.61C79.6045 653.58 78.3845 654.25 76.9845 654.47L76.6445 653.75ZM77.1545 659.65V656.75H83.1945V659.65H77.1545ZM78.0445 658.92H82.2845V657.5H78.0445V658.92ZM87.3847 658.15C88.2847 658.15 88.8747 657.5 88.8747 656.79C88.8747 656.08 88.2847 655.44 87.3847 655.44C86.4747 655.44 85.8847 656.08 85.8847 656.79C85.8847 657.5 86.4747 658.15 87.3847 658.15ZM85.0347 656.79C85.0347 656.46 85.1247 656.14 85.2747 655.84L87.8547 651.81L88.6047 652.27L87.0547 654.65C87.2447 654.63 87.3247 654.61 87.5047 654.62C88.7547 654.63 89.7147 655.55 89.7147 656.79C89.7147 658.06 88.6947 659 87.3847 659C86.0647 659 85.0347 658.06 85.0347 656.79ZM92.879 651.85V658.93H92.029V652.83L90.979 653.38L90.609 652.62L92.029 651.85H92.879ZM94.1958 658.83V658L97.2958 654.79C97.3758 654.69 97.4758 654.57 97.5258 654.46C97.8258 653.83 97.5658 653.08 96.8458 652.77C96.1358 652.47 95.2858 652.72 95.0358 653.49L94.1558 653.35C94.5458 651.92 96.0858 651.53 97.1958 652.01C98.3058 652.46 98.7958 653.71 98.3158 654.83C98.2058 655.04 98.0758 655.26 97.8858 655.44L95.4358 657.98H98.5958V658.83H94.1958ZM101.751 657.95H105.261V656.04H102.451V655.3H103.761V652.51H102.431V651.75H109.021V652.51H107.691V655.3H109.001V656.04H106.171V657.95H109.741V658.71H101.751V657.95ZM104.681 655.3H106.771V652.51H104.681V655.3ZM111.501 651.63H117.501V652.38H112.421V653.52H117.311V654.26H112.421V655.48H117.591V656.22H114.931V657.96H118.481V658.71H110.491V657.96H114.021V656.22H111.501V651.63ZM119.961 651.37H126.491V652.1H123.821C123.861 653.09 125.141 653.94 126.751 654.15L126.421 654.89C124.931 654.68 123.691 653.97 123.221 652.97C122.751 653.97 121.521 654.68 120.021 654.89L119.681 654.15C121.301 653.94 122.571 653.09 122.611 652.1H119.961V651.37ZM119.231 656.41V655.66H122.751V654.26H123.661V655.66H127.221V656.41H119.231ZM120.251 659.59V657.1H121.161V658.83H126.311V659.59H120.251ZM143.015 653.99H143.925V655.2H147.475V655.95H139.495V655.2H143.015V653.99ZM139.955 653.75C141.625 653.52 143.005 652.53 143.005 651.41V651.05H143.935V651.41C143.935 652.54 145.315 653.52 146.995 653.75L146.655 654.47C145.265 654.24 144.035 653.58 143.475 652.61C142.915 653.58 141.695 654.25 140.295 654.47L139.955 653.75ZM140.465 659.65V656.75H146.505V659.65H140.465ZM141.355 658.92H145.595V657.5H141.355V658.92ZM151.755 653.99H152.665V655.2H156.215V655.95H148.235V655.2H151.755V653.99ZM148.695 653.75C150.365 653.52 151.745 652.53 151.745 651.41V651.05H152.675V651.41C152.675 652.54 154.055 653.52 155.735 653.75L155.395 654.47C154.005 654.24 152.775 653.58 152.215 652.61C151.655 653.58 150.435 654.25 149.035 654.47L148.695 653.75ZM149.205 659.65V656.75H155.245V659.65H149.205ZM150.095 658.92H154.335V657.5H150.095V658.92ZM159.28 655.96H167.27V656.72H163.7V659.77H162.79V656.72H159.28V655.96ZM160.15 653.23C160.15 652.04 161.4 651.29 163.25 651.29C165.11 651.29 166.36 652.04 166.36 653.23C166.36 654.42 165.11 655.18 163.25 655.18C161.4 655.18 160.15 654.42 160.15 653.23ZM161.09 653.23C161.09 653.97 161.96 654.43 163.25 654.43C164.56 654.43 165.42 653.97 165.42 653.23C165.42 652.49 164.56 652.02 163.25 652.02C161.96 652.02 161.09 652.49 161.09 653.23ZM168.02 655.92H176V656.68H172.44V659.77H171.53V656.68H168.02V655.92ZM168.47 654.52C170.11 654.29 171.48 653.3 171.5 652.2H168.75V651.47H175.24V652.2H172.52C172.54 653.3 173.91 654.29 175.55 654.52L175.21 655.25C173.79 655.02 172.55 654.3 172.01 653.29C171.48 654.3 170.23 655.02 168.82 655.25L168.47 654.52ZM183.111 650.95H184.031V655.5H183.111V650.95ZM176.921 654.49L177.981 654.48V652.25H177.161V651.53H181.891V652.25H181.071V654.36C181.491 654.33 181.901 654.3 182.291 654.25L182.341 654.92C180.601 655.19 178.561 655.24 177.021 655.24L176.921 654.49ZM178.231 656.64V655.92H184.031V658.1H179.151V658.95H184.341V659.68H178.251V657.43H183.121V656.64H178.231ZM178.861 654.46C179.291 654.45 179.741 654.44 180.181 654.41V652.25H178.861V654.46ZM185.501 655.47H193.491V656.22H185.501V655.47ZM186.511 651.87V651.16H192.481V653.31H187.431V654.08H192.661V654.79H186.521V652.63H191.571V651.87H186.511ZM186.561 659.65V656.95H192.501V659.65H186.561ZM187.461 658.92H191.601V657.68H187.461V658.92ZM209.285 653.99H210.195V655.2H213.745V655.95H205.765V655.2H209.285V653.99ZM206.225 653.75C207.895 653.52 209.275 652.53 209.275 651.41V651.05H210.205V651.41C210.205 652.54 211.585 653.52 213.265 653.75L212.925 654.47C211.535 654.24 210.305 653.58 209.745 652.61C209.185 653.58 207.965 654.25 206.565 654.47L206.225 653.75ZM206.735 659.65V656.75H212.775V659.65H206.735ZM207.625 658.92H211.865V657.5H207.625V658.92ZM218.025 653.99H218.935V655.2H222.485V655.95H214.505V655.2H218.025V653.99ZM214.965 653.75C216.635 653.52 218.015 652.53 218.015 651.41V651.05H218.945V651.41C218.945 652.54 220.325 653.52 222.005 653.75L221.665 654.47C220.275 654.24 219.045 653.58 218.485 652.61C217.925 653.58 216.705 654.25 215.305 654.47L214.965 653.75ZM215.475 659.65V656.75H221.515V659.65H215.475ZM216.365 658.92H220.605V657.5H216.365V658.92ZM225.55 655.55H233.53V656.3H225.55V655.55ZM226.42 653.01C226.42 651.9 227.63 651.24 229.53 651.24C231.44 651.24 232.66 651.9 232.66 653.01C232.66 654.12 231.44 654.78 229.53 654.78C227.63 654.78 226.42 654.12 226.42 653.01ZM226.57 659.59V657.03H227.48V658.83H232.63V659.59H226.57ZM227.36 653.01C227.36 653.65 228.21 654.04 229.53 654.04C230.88 654.04 231.71 653.65 231.71 653.01C231.71 652.35 230.88 651.98 229.53 651.98C228.21 651.98 227.36 652.35 227.36 653.01ZM240.19 650.95H241.1V654.53H242.5V655.3H241.1V659.78H240.19V650.95ZM234.24 653.08V652.33H236.39V651.07H237.33V652.33H239.43V653.08H234.24ZM234.71 655.79C234.71 654.59 235.62 653.75 236.86 653.75C238.12 653.75 239.04 654.59 239.04 655.79C239.04 657 238.12 657.84 236.86 657.84C235.62 657.84 234.71 657 234.71 655.79ZM235.58 655.79C235.58 656.56 236.13 657.08 236.86 657.08C237.61 657.08 238.17 656.56 238.17 655.79C238.17 655.04 237.61 654.51 236.86 654.51C236.13 654.51 235.58 655.04 235.58 655.79ZM246.54 651.25H247.5V651.72C247.5 652.89 248.94 654 250.64 654.25L250.27 654.98C248.85 654.75 247.6 654 247.03 652.96C246.46 654.01 245.21 654.75 243.78 654.98L243.41 654.25C245.13 654 246.54 652.91 246.54 651.72V651.25ZM243.03 656.62V655.86H251.01V656.62H247.45V659.78H246.54V656.62H243.03ZM254.525 651.48H258.925V651.99C258.925 652.54 258.925 653.34 258.715 654.35L257.815 654.28C257.995 653.41 258.025 652.75 258.025 652.23H254.525V651.48ZM253.995 655.12C254.545 655.12 255.155 655.12 255.795 655.11V653.41H256.705V655.08C257.645 655.05 258.615 654.98 259.495 654.87L259.565 655.53C257.735 655.83 255.685 655.88 254.105 655.88L253.995 655.12ZM255.145 658.13C255.145 657.12 256.275 656.52 258.105 656.52C259.925 656.52 261.055 657.12 261.055 658.13C261.055 659.15 259.925 659.76 258.105 659.76C256.275 659.76 255.145 659.15 255.145 658.13ZM256.075 658.13C256.075 658.71 256.845 659.02 258.105 659.02C259.375 659.02 260.125 658.71 260.125 658.13C260.125 657.56 259.375 657.24 258.105 657.24C256.845 657.24 256.075 657.56 256.075 658.13ZM260.055 656.42V650.94H260.985V653.28H262.195V654.06H260.985V656.42H260.055ZM263.015 651.58H267.755V652.33H265.865V652.57C265.865 653.7 266.645 654.73 267.965 655.15L267.515 655.87C266.525 655.55 265.805 654.89 265.425 654.04C265.045 655.01 264.275 655.78 263.235 656.15L262.755 655.41C264.115 654.95 264.945 653.81 264.945 652.58V652.33H263.015V651.58ZM263.935 658.11C263.935 657.07 265.045 656.46 266.855 656.46C268.655 656.46 269.775 657.07 269.775 658.11C269.775 659.14 268.655 659.76 266.855 659.76C265.045 659.76 263.935 659.14 263.935 658.11ZM264.835 658.11C264.835 658.69 265.595 659.03 266.855 659.03C268.115 659.03 268.865 658.69 268.865 658.11C268.865 657.51 268.115 657.19 266.855 657.19C265.595 657.19 264.835 657.51 264.835 658.11ZM268.765 656.24V650.95H269.695V653.13H270.955V653.9H269.695V656.24H268.765ZM91.2621 672.99H92.1721V674.2H95.7221V674.95H87.7421V674.2H91.2621V672.99ZM88.2021 672.75C89.8721 672.52 91.2521 671.53 91.2521 670.41V670.05H92.1821V670.41C92.1821 671.54 93.5621 672.52 95.2421 672.75L94.9021 673.47C93.5121 673.24 92.2821 672.58 91.7221 671.61C91.1621 672.58 89.9421 673.25 88.5421 673.47L88.2021 672.75ZM88.7121 678.65V675.75H94.7521V678.65H88.7121ZM89.6021 677.92H93.8421V676.5H89.6021V677.92ZM96.8223 670.46H100.802V672.97H97.7423V674.13C99.2723 674.13 100.362 674.07 101.642 673.86L101.722 674.6C100.372 674.83 99.2123 674.88 97.5423 674.88H96.8423V672.27H99.9023V671.21H96.8223V670.46ZM97.5723 676.5V675.76H103.352V678.78H102.432V676.5H97.5723ZM102.432 675.32V669.95H103.352V672.17H104.622V672.93H103.352V675.32H102.432ZM111.553 669.95H112.473V674.48H111.553V669.95ZM105.273 673.7C106.633 673.24 107.463 672.08 107.463 670.85V670.19H108.403V670.85C108.403 672.04 109.253 673.12 110.593 673.55L110.133 674.28C109.103 673.93 108.343 673.23 107.943 672.32C107.563 673.29 106.773 674.07 105.723 674.43L105.273 673.7ZM106.733 675.64V674.92H112.473V677.11H107.653V677.95H112.763V678.68H106.753V676.43H111.573V675.64H106.733ZM116.917 672.51H117.847V673.42H116.917V672.51ZM116.587 677.65L116.917 675.59H117.847L117.237 677.65H116.587ZM125.022 672.99H125.932V674.2H129.482V674.95H121.502V674.2H125.022V672.99ZM121.962 672.75C123.632 672.52 125.012 671.53 125.012 670.41V670.05H125.942V670.41C125.942 671.54 127.322 672.52 129.002 672.75L128.662 673.47C127.272 673.24 126.042 672.58 125.482 671.61C124.922 672.58 123.702 673.25 122.302 673.47L121.962 672.75ZM122.472 678.65V675.75H128.512V678.65H122.472ZM123.362 677.92H127.602V676.5H123.362V677.92ZM133.762 672.99H134.672V674.2H138.222V674.95H130.242V674.2H133.762V672.99ZM130.702 672.75C132.372 672.52 133.752 671.53 133.752 670.41V670.05H134.682V670.41C134.682 671.54 136.062 672.52 137.742 672.75L137.402 673.47C136.012 673.24 134.782 672.58 134.222 671.61C133.662 672.58 132.442 673.25 131.042 673.47L130.702 672.75ZM131.212 678.65V675.75H137.252V678.65H131.212ZM132.102 677.92H136.342V676.5H132.102V677.92ZM139.282 670.83H144.222V671.6H142.212V672.56C142.212 674.04 143.182 675.56 144.522 676.14L144.002 676.87C142.982 676.41 142.162 675.42 141.752 674.24C141.352 675.5 140.532 676.59 139.512 677.09L138.982 676.36C140.302 675.74 141.282 674.08 141.282 672.56V671.6H139.282V670.83ZM145.312 678.78V669.95H146.232V678.78H145.312ZM148.713 670.5H154.683V671.27C154.683 672.11 154.683 673.02 154.443 674.29H155.703V675.03H152.153V678.77H151.223V675.03H147.723V674.29H153.513C153.783 673.03 153.783 672.1 153.783 671.27V671.23H148.713V670.5ZM160.443 670.5C162.323 670.5 163.683 671.42 163.683 672.84C163.683 674.14 162.533 675.03 160.893 675.16V676.92H164.453V677.68H156.463V676.92H159.983V675.16C158.363 675.02 157.223 674.14 157.223 672.84C157.223 671.42 158.583 670.5 160.443 670.5ZM158.113 672.84C158.113 673.82 159.093 674.44 160.443 674.44C161.803 674.44 162.773 673.82 162.773 672.84C162.773 671.86 161.803 671.23 160.443 671.23C159.093 671.23 158.113 671.86 158.113 672.84ZM165.543 670.46H169.523V672.97H166.463V674.13C167.993 674.13 169.083 674.07 170.363 673.86L170.443 674.6C169.093 674.83 167.933 674.88 166.263 674.88H165.563V672.27H168.623V671.21H165.543V670.46ZM166.293 676.5V675.76H172.073V678.78H171.153V676.5H166.293ZM171.153 675.32V669.95H172.073V672.17H173.343V672.93H172.073V675.32H171.153ZM180.273 669.95H181.193V674.48H180.273V669.95ZM173.993 673.7C175.353 673.24 176.183 672.08 176.183 670.85V670.19H177.123V670.85C177.123 672.04 177.973 673.12 179.313 673.55L178.853 674.28C177.823 673.93 177.063 673.23 176.663 672.32C176.283 673.29 175.493 674.07 174.443 674.43L173.993 673.7ZM175.453 675.64V674.92H181.193V677.11H176.373V677.95H181.483V678.68H175.473V676.43H180.293V675.64H175.453ZM200.032 672.99H200.942V674.2H204.492V674.95H196.512V674.2H200.032V672.99ZM196.972 672.75C198.642 672.52 200.022 671.53 200.022 670.41V670.05H200.952V670.41C200.952 671.54 202.332 672.52 204.012 672.75L203.672 673.47C202.282 673.24 201.052 672.58 200.492 671.61C199.932 672.58 198.712 673.25 197.312 673.47L196.972 672.75ZM197.482 678.65V675.75H203.522V678.65H197.482ZM198.372 677.92H202.612V676.5H198.372V677.92ZM205.972 670.21H212.482V670.91H211.192V672.46H212.432V673.16H206.022V672.46H207.262V670.91H205.972V670.21ZM205.252 674.56V673.81H213.232V674.56H205.252ZM206.202 675.94V675.26H212.222V677.26H207.132V677.99H212.472V678.68H206.232V676.61H211.312V675.94H206.202ZM208.182 672.46H210.282V670.91H208.182V672.46ZM214.262 670.88H217.572V674.06H215.162V675.94C216.112 675.93 217.002 675.89 218.062 675.71L218.132 676.46C216.942 676.68 215.952 676.7 214.872 676.7H214.272V673.32H216.682V671.63H214.262V670.88ZM218.632 678.32V670.13H219.492V673.38H220.632V669.94H221.512V678.77H220.632V674.14H219.492V678.32H218.632ZM229.062 669.94H229.982V675.89H229.062V669.94ZM223.262 674.55V670.55H224.182V673.79C225.612 673.78 226.852 673.68 228.172 673.41L228.282 674.16C226.842 674.46 225.532 674.55 223.982 674.55H223.262ZM223.682 678.01C225.362 677.74 226.612 676.75 226.612 675.51V675.2H227.582V675.51C227.582 676.74 228.812 677.74 230.502 678.01L230.132 678.75C228.762 678.48 227.622 677.8 227.092 676.8C226.552 677.8 225.412 678.48 224.052 678.75L223.682 678.01ZM234.137 670.73H238.267V671.48H235.057V673.2H238.077V673.93H235.057V675.93C236.537 675.92 237.617 675.87 238.897 675.66L238.977 676.4C237.627 676.64 236.457 676.68 234.837 676.68H234.137V670.73ZM239.657 678.78V669.95H240.587V673.44H241.977V674.21H240.587V678.78H239.657ZM242.517 674.19H244.697C245.037 672.9 245.107 671.93 245.117 671.28H243.157V670.53H246.007V670.9C246.007 671.51 246.007 672.62 245.627 674.19H248.357C248.647 672.9 248.687 671.94 248.697 671.28H246.647V670.53H249.597V670.99C249.597 671.64 249.597 672.69 249.287 674.19H250.497V674.94H246.937V678.76H246.027V674.94H242.517V674.19ZM253.368 670.34H254.298V671.13C254.298 672.3 255.118 673.39 256.418 673.85L255.928 674.56C254.968 674.22 254.258 673.53 253.868 672.65C253.488 673.64 252.728 674.4 251.688 674.78L251.198 674.05C252.578 673.58 253.368 672.42 253.368 671.15V670.34ZM252.518 678.65V675.21H253.438V676.19H257.218V675.21H258.138V678.65H252.518ZM253.438 677.91H257.218V676.91H253.438V677.91ZM257.208 674.79V669.95H258.138V671.08H259.378V671.83H258.138V672.86H259.378V673.62H258.138V674.79H257.208ZM129.437 693.39C129.437 691.9 129.887 690.5 130.657 689.29H131.607C130.747 690.48 130.237 691.89 130.237 693.39C130.237 694.89 130.747 696.3 131.607 697.49H130.657C129.887 696.28 129.437 694.88 129.437 693.39ZM137.505 691.47C137.365 691.24 137.205 691.06 136.925 690.87C136.395 690.51 135.845 690.44 135.375 690.49C134.975 690.53 134.535 690.65 134.285 691.14C134.105 691.53 134.215 691.95 134.395 692.19C134.515 692.32 134.615 692.42 134.795 692.55C135.005 692.69 135.185 692.8 135.455 692.87L135.945 693.03C137.185 693.41 137.675 693.72 137.935 694C138.245 694.36 138.555 695.07 138.205 695.89C137.995 696.31 137.635 696.62 137.235 696.83C136.955 696.96 136.545 697.12 136.215 697.14C135.455 697.22 134.765 697.05 134.075 696.6C133.405 696.16 133.075 695.54 132.985 695.28L133.835 694.99C133.905 695.18 134.105 695.6 134.565 695.9C135.115 696.26 135.545 696.37 136.135 696.3C136.315 696.28 136.585 696.2 136.815 696.09C137.065 695.95 137.255 695.8 137.395 695.55C137.595 695.12 137.435 694.77 137.265 694.57C137.105 694.36 136.755 694.19 135.695 693.84L135.205 693.68C134.835 693.55 134.545 693.4 134.305 693.24C133.995 693.03 133.795 692.82 133.725 692.74C133.395 692.33 133.135 691.57 133.475 690.8C133.865 689.97 134.735 689.71 135.285 689.65C135.845 689.6 136.685 689.67 137.415 690.16C137.815 690.43 138.085 690.74 138.255 691.02L137.505 691.47ZM141.755 693.39C141.755 694.88 141.305 696.28 140.545 697.49H139.585C140.455 696.3 140.955 694.89 140.955 693.39C140.955 691.89 140.455 690.48 139.585 689.29H140.545C141.305 690.5 141.755 691.9 141.755 693.39ZM148.282 689.74V690.6H144.462V692.95H147.782V693.82H144.462V697.04H143.572V689.74H148.282ZM152.177 689.74L155.217 697.04H154.267L153.417 695H149.977L149.137 697.04H148.187L151.227 689.74H152.177ZM150.347 694.1H153.047L151.707 690.84L150.347 694.1ZM159.035 697.12C156.835 697.12 155.435 695.43 155.435 693.39C155.435 691.35 156.835 689.66 159.035 689.66C160.035 689.66 160.925 690.09 161.575 690.75L160.955 691.39C160.475 690.88 159.765 690.59 159.025 690.59C157.355 690.59 156.325 691.83 156.325 693.39C156.325 694.96 157.355 696.2 159.025 696.2C159.765 696.2 160.475 695.9 160.955 695.39L161.575 696.03C160.925 696.69 160.035 697.12 159.035 697.12ZM167.579 689.74V690.6H163.649V692.85H167.269V693.72H163.649V696.17H167.579V697.04H162.769V689.74H167.579ZM174.05 693.48C174.84 693.48 175.48 692.82 175.48 692.04C175.48 691.25 174.84 690.61 174.05 690.61H172.05V693.48H174.05ZM171.16 697.04V689.74H174.05C175.32 689.74 176.33 690.77 176.33 692.04C176.33 693.3 175.32 694.34 174.05 694.34H172.05V697.04H171.16ZM180.166 689.74L183.206 697.04H182.256L181.406 695H177.966L177.126 697.04H176.176L179.216 689.74H180.166ZM178.336 694.1H181.036L179.696 690.84L178.336 694.1ZM184.529 689.74H185.409V697.04H184.529V689.74ZM193.15 689.74V697.04H192.16L187.87 691.12V697.04H186.98V689.74H187.97L192.28 695.65V689.74H193.15ZM199.449 689.74V690.6H197.329V697.04H196.439V690.6H194.319V689.74H199.449ZM200.76 689.74H201.64V697.04H200.76V689.74ZM209.38 689.74V697.04H208.39L204.1 691.12V697.04H203.21V689.74H204.2L208.51 695.65V689.74H209.38ZM217.76 693.14C217.8 693.39 217.75 693.95 217.75 693.95C217.56 696.01 216.25 697.08 214.3 697.12C212.06 697.12 210.69 695.47 210.69 693.39C210.69 691.32 212.06 689.67 214.3 689.67C216.59 689.67 217.36 691.43 217.36 691.43L216.58 691.85C216.58 691.85 216.01 690.56 214.3 690.56C212.57 690.56 211.57 691.81 211.57 693.39C211.57 694.98 212.57 696.23 214.3 696.23C215.7 696.18 216.66 695.55 216.84 693.99H214.44V693.14H217.76Z" fill="white"/>
<path d="M50.564 269.88V268.572L54.212 265.152C54.332 265.032 54.476 264.864 54.536 264.732C54.86 264.024 54.608 263.148 53.828 262.812C53.06 262.476 52.088 262.788 51.836 263.592L50.516 263.328C51.032 261.468 52.976 260.976 54.356 261.588C55.772 262.152 56.42 263.832 55.784 265.296C55.652 265.572 55.436 265.908 55.136 266.16L52.628 268.5H56.108V269.88H50.564ZM61.7211 267.9C62.0571 267.348 62.0811 266.688 62.0811 265.656C62.0811 264.636 62.0571 263.988 61.7211 263.436C61.5411 263.112 61.1691 262.668 60.3171 262.668C59.4651 262.668 59.0931 263.1 58.9251 263.424C58.5771 263.988 58.5531 264.636 58.5531 265.656C58.5531 266.676 58.5771 267.336 58.9251 267.888C59.0931 268.224 59.4651 268.656 60.3171 268.656C61.1691 268.656 61.5411 268.224 61.7211 267.9ZM57.1371 265.656C57.1371 264.516 57.1491 263.52 57.7011 262.632C58.0371 262.044 58.8171 261.252 60.3171 261.252C61.8171 261.252 62.5971 262.056 62.9451 262.632C63.5091 263.52 63.5091 264.528 63.5091 265.656C63.5091 266.808 63.5091 267.816 62.9451 268.704C62.5971 269.292 61.8171 270.084 60.3171 270.084C58.8171 270.084 58.0371 269.28 57.7011 268.704C57.1491 267.804 57.1371 266.796 57.1371 265.656ZM65.0956 263.208H66.5716V264.636H65.0956V263.208ZM65.0956 268.404V266.976H66.5716V268.404H65.0956ZM72.7484 267.9C73.0844 267.348 73.1084 266.688 73.1084 265.656C73.1084 264.636 73.0844 263.988 72.7484 263.436C72.5684 263.112 72.1964 262.668 71.3444 262.668C70.4924 262.668 70.1204 263.1 69.9524 263.424C69.6044 263.988 69.5804 264.636 69.5804 265.656C69.5804 266.676 69.6044 267.336 69.9524 267.888C70.1204 268.224 70.4924 268.656 71.3444 268.656C72.1964 268.656 72.5684 268.224 72.7484 267.9ZM68.1644 265.656C68.1644 264.516 68.1764 263.52 68.7284 262.632C69.0644 262.044 69.8444 261.252 71.3444 261.252C72.8444 261.252 73.6244 262.056 73.9724 262.632C74.5364 263.52 74.5364 264.528 74.5364 265.656C74.5364 266.808 74.5364 267.816 73.9724 268.704C73.6244 269.292 72.8444 270.084 71.3444 270.084C69.8444 270.084 69.0644 269.28 68.7284 268.704C68.1764 267.804 68.1644 266.796 68.1644 265.656ZM80.143 267.9C80.479 267.348 80.503 266.688 80.503 265.656C80.503 264.636 80.479 263.988 80.143 263.436C79.963 263.112 79.591 262.668 78.739 262.668C77.887 262.668 77.515 263.1 77.347 263.424C76.999 263.988 76.975 264.636 76.975 265.656C76.975 266.676 76.999 267.336 77.347 267.888C77.515 268.224 77.887 268.656 78.739 268.656C79.591 268.656 79.963 268.224 80.143 267.9ZM75.559 265.656C75.559 264.516 75.571 263.52 76.123 262.632C76.459 262.044 77.239 261.252 78.739 261.252C80.239 261.252 81.019 262.056 81.367 262.632C81.931 263.52 81.931 264.528 81.931 265.656C81.931 266.808 81.931 267.816 81.367 268.704C81.019 269.292 80.239 270.084 78.739 270.084C77.239 270.084 76.459 269.28 76.123 268.704C75.571 267.804 75.559 266.796 75.559 265.656ZM83.2175 265.692C83.6255 264.516 84.6335 264.096 85.3535 264.084C85.8935 264.084 86.4335 264.336 86.6375 264.456L87.0935 264.696L87.2495 264.804L87.6575 265.008C87.8015 265.08 87.9095 265.2 88.2095 265.2C88.4375 265.2 88.9055 265.044 89.0855 264.492L90.5015 264.972C90.0695 266.268 88.7615 266.688 88.2095 266.688C87.6935 266.688 87.0335 266.376 86.9855 266.352L86.4815 266.1L86.3015 265.968L85.8935 265.752C85.7255 265.644 85.6535 265.584 85.3535 265.572C85.0895 265.584 84.8015 265.668 84.6335 266.172L83.2175 265.692ZM91.8726 269.88V268.572L95.5206 265.152C95.6406 265.032 95.7846 264.864 95.8446 264.732C96.1686 264.024 95.9166 263.148 95.1366 262.812C94.3686 262.476 93.3966 262.788 93.1446 263.592L91.8246 263.328C92.3406 261.468 94.2846 260.976 95.6646 261.588C97.0806 262.152 97.7286 263.832 97.0926 265.296C96.9606 265.572 96.7446 265.908 96.4446 266.16L93.9366 268.5H97.4166V269.88H91.8726ZM98.4937 269.88V268.572L102.142 265.152C102.262 265.032 102.406 264.864 102.466 264.732C102.79 264.024 102.538 263.148 101.758 262.812C100.99 262.476 100.018 262.788 99.7657 263.592L98.4457 263.328C98.9617 261.468 100.906 260.976 102.286 261.588C103.702 262.152 104.35 263.832 103.714 265.296C103.582 265.572 103.366 265.908 103.066 266.16L100.558 268.5H104.038V269.88H98.4937ZM105.631 263.208H107.107V264.636H105.631V263.208ZM105.631 268.404V266.976H107.107V268.404H105.631ZM113.284 267.9C113.62 267.348 113.644 266.688 113.644 265.656C113.644 264.636 113.62 263.988 113.284 263.436C113.104 263.112 112.732 262.668 111.88 262.668C111.028 262.668 110.656 263.1 110.488 263.424C110.14 263.988 110.116 264.636 110.116 265.656C110.116 266.676 110.14 267.336 110.488 267.888C110.656 268.224 111.028 268.656 111.88 268.656C112.732 268.656 113.104 268.224 113.284 267.9ZM108.7 265.656C108.7 264.516 108.712 263.52 109.264 262.632C109.6 262.044 110.38 261.252 111.88 261.252C113.38 261.252 114.16 262.056 114.508 262.632C115.072 263.52 115.072 264.528 115.072 265.656C115.072 266.808 115.072 267.816 114.508 268.704C114.16 269.292 113.38 270.084 111.88 270.084C110.38 270.084 109.6 269.28 109.264 268.704C108.712 267.804 108.7 266.796 108.7 265.656ZM120.678 267.9C121.014 267.348 121.038 266.688 121.038 265.656C121.038 264.636 121.014 263.988 120.678 263.436C120.498 263.112 120.126 262.668 119.274 262.668C118.422 262.668 118.05 263.1 117.882 263.424C117.534 263.988 117.51 264.636 117.51 265.656C117.51 266.676 117.534 267.336 117.882 267.888C118.05 268.224 118.422 268.656 119.274 268.656C120.126 268.656 120.498 268.224 120.678 267.9ZM116.094 265.656C116.094 264.516 116.106 263.52 116.658 262.632C116.994 262.044 117.774 261.252 119.274 261.252C120.774 261.252 121.554 262.056 121.902 262.632C122.466 263.52 122.466 264.528 122.466 265.656C122.466 266.808 122.466 267.816 121.902 268.704C121.554 269.292 120.774 270.084 119.274 270.084C117.774 270.084 116.994 269.28 116.658 268.704C116.106 267.804 116.094 266.796 116.094 265.656Z" fill="white"/>
<path d="M64.46 297.98H66.92V300.18H73.84V302.14H57.6V300.18H64.46V297.98ZM58.44 297.12C62.38 296.62 64.42 294.58 64.42 292.56V291.98H66.96V292.56C66.96 294.66 68.96 296.62 72.94 297.12L72.04 299.06C69.04 298.6 66.82 297.36 65.68 295.58C64.54 297.34 62.36 298.62 59.36 299.06L58.44 297.12ZM59.52 309.48V303.44H71.9V309.48H59.52ZM61.94 307.52H69.44V305.42H61.94V307.52ZM81.9405 297.98H84.4005V300.18H91.3205V302.14H75.0805V300.18H81.9405V297.98ZM75.9205 297.12C79.8605 296.62 81.9005 294.58 81.9005 292.56V291.98H84.4405V292.56C84.4405 294.66 86.4405 296.62 90.4205 297.12L89.5205 299.06C86.5205 298.6 84.3005 297.36 83.1605 295.58C82.0205 297.34 79.8405 298.62 76.8405 299.06L75.9205 297.12ZM77.0005 309.48V303.44H89.3805V309.48H77.0005ZM79.4205 307.52H86.9205V305.42H79.4205V307.52ZM93.9809 292.24H107.341V294.1H105.001V296.5H107.201V298.34H94.1409V296.5H96.3409V294.1H93.9809V292.24ZM92.5609 301.26V299.32H108.801V301.26H92.5609ZM94.4409 304.1V302.32H106.821V306.74H96.9209V307.72H107.281V309.56H94.4809V305.04H104.361V304.1H94.4409ZM98.8009 296.5H102.541V294.1H98.8009V296.5ZM110.541 293.52H117.321V300.38H112.981V303.66C114.661 303.62 116.241 303.54 118.061 303.24L118.241 305.26C115.941 305.66 114.001 305.7 111.821 305.7H110.561V298.44H114.921V295.5H110.541V293.52ZM119.081 308.82V292.08H121.361V298.54H123.081V291.74H125.441V309.68H123.081V300.54H121.361V308.82H119.081ZM139.902 291.74H142.402V303.68H139.902V291.74ZM128.542 301.3V292.94H131.042V299.28C133.502 299.24 135.922 299.02 138.442 298.52L138.702 300.5C135.762 301.12 132.962 301.3 130.102 301.3H128.542ZM129.342 307.66C133.182 307.1 135.082 305.04 135.082 302.88V302.48H137.662V302.88C137.662 305.04 139.522 307.1 143.422 307.66L142.482 309.64C139.542 309.14 137.442 307.84 136.362 306.02C135.282 307.82 133.202 309.12 130.302 309.64L129.342 307.66ZM149.964 302.232H156.488V303.45H149.964V302.232ZM161.206 297.976H164.188V296.646H165.49V297.976H168.5V299.012H161.206V297.976ZM161.864 301.84C161.864 300.482 163.082 299.586 164.846 299.586C166.61 299.586 167.828 300.482 167.828 301.84C167.828 303.184 166.61 304.052 164.846 304.052C163.082 304.052 161.864 303.184 161.864 301.84ZM162.718 306.124V305.088H170.796V309.092H169.508V306.124H162.718ZM163.096 301.84C163.096 302.596 163.796 303.072 164.846 303.072C165.882 303.072 166.582 302.596 166.582 301.84C166.582 301.056 165.882 300.594 164.846 300.594C163.796 300.594 163.096 301.056 163.096 301.84ZM169.508 304.458V296.73H170.796V300.076H172.56V301.154H170.796V304.458H169.508ZM173.414 303.744H184.6V304.808H179.602V309.078H178.328V304.808H173.414V303.744ZM174.632 299.922C174.632 298.256 176.382 297.206 178.972 297.206C181.576 297.206 183.326 298.256 183.326 299.922C183.326 301.588 181.576 302.652 178.972 302.652C176.382 302.652 174.632 301.588 174.632 299.922ZM175.948 299.922C175.948 300.958 177.166 301.602 178.972 301.602C180.806 301.602 182.01 300.958 182.01 299.922C182.01 298.886 180.806 298.228 178.972 298.228C177.166 298.228 175.948 298.886 175.948 299.922ZM185.665 301.798H196.823V302.834H185.665V301.798ZM186.981 304.808V303.814H195.409V306.81H188.283V307.93H195.759V308.938H187.023V305.858H194.135V304.808H186.981ZM187.107 300.874V297.094H195.381V298.116H188.395V299.838H195.479V300.874H187.107ZM201.905 297.598C203.837 297.598 205.237 298.816 205.237 300.538C205.237 302.288 203.837 303.478 201.905 303.478C199.959 303.478 198.559 302.288 198.559 300.538C198.559 298.816 199.959 297.598 201.905 297.598ZM197.971 305.368C200.197 305.368 203.305 305.354 205.965 304.962L206.063 305.886C203.319 306.432 200.323 306.446 198.125 306.446L197.971 305.368ZM199.833 300.538C199.833 301.644 200.701 302.386 201.905 302.386C203.095 302.386 203.977 301.644 203.977 300.538C203.977 299.432 203.095 298.718 201.905 298.718C200.701 298.718 199.833 299.432 199.833 300.538ZM206.735 309.106V296.702H208.023V309.106H206.735ZM222.268 296.73H223.556V305.116H222.268V300.832H219.58V303.17H213.91V297.64H219.58V299.81H222.268V296.73ZM214.792 308.014C217.074 307.65 218.88 306.264 218.88 304.682V304.248H220.196V304.682C220.196 306.306 221.96 307.65 224.284 308.014L223.78 309.036C221.876 308.7 220.266 307.762 219.524 306.404C218.782 307.748 217.186 308.714 215.282 309.036L214.792 308.014ZM215.156 302.162H218.334V298.69H215.156V302.162ZM226.076 297.724H232.824V298.76H230.122V299.306C230.122 300.916 231.326 302.414 233.188 303.03L232.544 304.038C231.13 303.562 230.052 302.582 229.492 301.336C228.96 302.68 227.868 303.758 226.398 304.276L225.74 303.254C227.644 302.596 228.82 301 228.82 299.306V298.76H226.076V297.724ZM227.756 308.826V304.906H229.03V307.762H236.114V308.826H227.756ZM234.448 305.746V296.73H235.736V305.746H234.448ZM246.579 304.486C249.225 304.486 250.905 305.354 250.905 306.782C250.905 308.21 249.225 309.05 246.579 309.05C243.947 309.05 242.267 308.21 242.267 306.782C242.267 305.354 243.947 304.486 246.579 304.486ZM241.063 303.45V302.414H245.529V300.09H246.803V302.414H252.193V303.45H241.063ZM242.365 298.354V297.332H250.807V298.368C250.807 299.362 250.807 300.37 250.471 301.644L249.197 301.504C249.533 300.244 249.533 299.32 249.533 298.368V298.354H242.365ZM243.555 306.782C243.555 307.58 244.717 308.07 246.579 308.07C248.455 308.07 249.631 307.58 249.631 306.782C249.631 305.956 248.455 305.494 246.579 305.494C244.717 305.494 243.555 305.956 243.555 306.782ZM262.204 296.73H263.506V305.83H262.204V302.624H259.194C258.606 303.324 257.724 303.744 256.688 303.744C254.854 303.744 253.482 302.456 253.482 300.622C253.482 298.802 254.854 297.514 256.688 297.514C257.71 297.514 258.592 297.92 259.166 298.606H262.204V296.73ZM254.7 300.622C254.7 301.798 255.54 302.61 256.688 302.61C257.78 302.61 258.634 301.798 258.634 300.622C258.634 299.46 257.78 298.634 256.688 298.634C255.54 298.634 254.7 299.46 254.7 300.622ZM255.54 308.826V304.906H256.842V307.762H263.828V308.826H255.54ZM259.74 299.67C259.838 299.964 259.88 300.286 259.88 300.622C259.88 300.958 259.838 301.28 259.74 301.574H262.204V299.67H259.74ZM266.068 302.918C266.6 301.518 267.832 301.266 268.406 301.28C269.218 301.322 269.624 301.644 269.764 301.728L270.282 302.036L270.464 302.162L270.954 302.442C271.136 302.54 271.29 302.68 271.682 302.694C272.018 302.694 272.578 302.554 272.83 301.868L274.034 302.316C273.516 303.716 272.158 303.982 271.654 303.982C270.842 303.94 270.422 303.604 270.31 303.534L269.792 303.254L269.582 303.1L269.092 302.82C268.91 302.694 268.77 302.582 268.35 302.568C268.014 302.554 267.538 302.652 267.272 303.366L266.068 302.918ZM278.187 297.668L277.991 305.55H276.843L276.619 297.668H278.187ZM276.717 308.098V306.726H278.117V308.098H276.717Z" fill="white"/>
<path d="M59.9965 333C61.852 333 63.6316 333.737 64.9437 335.049C66.2558 336.361 66.9929 338.141 66.9929 339.996C66.9929 342.953 64.9155 346.175 60.8145 349.697C60.5865 349.893 60.2957 350 59.9951 350C59.6945 350 59.404 349.892 59.1763 349.695L58.905 349.46C54.9856 346.03 53 342.887 53 339.996C53 338.141 53.7371 336.361 55.0492 335.049C56.3613 333.737 58.1409 333 59.9965 333ZM59.9965 334.076C58.4264 334.076 56.9206 334.7 55.8103 335.81C54.7001 336.921 54.0764 338.426 54.0764 339.996C54.0764 342.509 55.9048 345.405 59.6118 348.648L59.8795 348.88C59.912 348.908 59.9535 348.924 59.9965 348.924C60.0394 348.924 60.0809 348.908 60.1134 348.88C63.9999 345.542 65.9165 342.569 65.9165 339.996C65.9165 339.219 65.7634 338.449 65.4659 337.731C65.1684 337.013 64.7323 336.36 64.1826 335.81C63.6329 335.261 62.9802 334.825 62.262 334.527C61.5437 334.23 60.7739 334.076 59.9965 334.076ZM59.9965 337.306C60.7101 337.306 61.3946 337.589 61.8992 338.094C62.4039 338.598 62.6874 339.283 62.6874 339.996C62.6874 340.71 62.4039 341.395 61.8992 341.899C61.3946 342.404 60.7101 342.687 59.9965 342.687C59.2828 342.687 58.5983 342.404 58.0937 341.899C57.589 341.395 57.3055 340.71 57.3055 339.996C57.3055 339.283 57.589 338.598 58.0937 338.094C58.5983 337.589 59.2828 337.306 59.9965 337.306ZM59.9965 338.382C59.5683 338.382 59.1576 338.552 58.8548 338.855C58.552 339.158 58.3819 339.568 58.3819 339.996C58.3819 340.425 58.552 340.835 58.8548 341.138C59.1576 341.441 59.5683 341.611 59.9965 341.611C60.4247 341.611 60.8353 341.441 61.1381 341.138C61.4409 340.835 61.611 340.425 61.611 339.996C61.611 339.568 61.4409 339.158 61.1381 338.855C60.8353 338.552 60.4247 338.382 59.9965 338.382Z" fill="white"/>
<path d="M73.41 340.32H76.98V339.28H74.41V336.38H80.32V336.99H75.16V338.66H80.38V339.28H77.72V340.32H81.31V340.93H73.41V340.32ZM74.36 343.15C74.36 342.15 75.48 341.57 77.35 341.57C79.22 341.57 80.34 342.15 80.34 343.15C80.34 344.16 79.22 344.72 77.35 344.72C75.48 344.72 74.36 344.16 74.36 343.15ZM75.12 343.15C75.12 343.77 75.97 344.13 77.35 344.13C78.73 344.13 79.57 343.77 79.57 343.15C79.57 342.53 78.73 342.18 77.35 342.18C75.97 342.18 75.12 342.53 75.12 343.15ZM82.6202 336.59H86.6102V337.22H83.3702V340.17C85.0202 340.17 85.9802 340.12 87.0902 339.89L87.1902 340.5C86.0102 340.73 85.0102 340.78 83.2702 340.78H82.6202V336.59ZM83.5002 342.29V341.67H89.3302V344.75H88.5702V342.29H83.5002ZM86.0802 338.87V338.26H88.5702V335.97H89.3302V341.21H88.5702V338.87H86.0802ZM93.2205 336.66C94.0205 336.66 94.6805 337.13 95.0605 337.95H97.3305V335.97H98.0805V344.75H97.3305V341.35H95.1005C94.7405 342.23 94.0605 342.75 93.2205 342.75C91.9505 342.75 91.0505 341.56 91.0505 339.7C91.0505 337.84 91.9505 336.66 93.2205 336.66ZM91.7605 339.7C91.7605 341.14 92.3605 342.08 93.2205 342.08C94.0705 342.08 94.6705 341.14 94.6705 339.7C94.6705 338.27 94.0705 337.34 93.2205 337.34C92.3605 337.34 91.7605 338.27 91.7605 339.7ZM95.2705 338.57C95.3605 338.91 95.4005 339.29 95.4005 339.7C95.4005 340.07 95.3605 340.41 95.3005 340.72H97.3305V338.57H95.2705ZM99.7907 336.88H104.501V337.52H102.551V338.68C102.551 340.08 103.561 341.63 104.811 342.24L104.371 342.84C103.401 342.35 102.571 341.31 102.181 340.13C101.781 341.41 100.911 342.54 99.9307 343.06L99.4807 342.45C100.711 341.84 101.801 340.18 101.801 338.68V337.52H99.7907V336.88ZM105.571 344.75V335.98H106.331V339.53H107.781V340.18H106.331V344.75H105.571ZM115.061 335.97H115.791V344.74H115.061V340.14H113.781V344.28H113.071V336.18H113.781V339.5H115.061V335.97ZM108.691 342.56V337.06H111.941V337.67H109.441V341.92C110.631 341.92 111.471 341.88 112.431 341.66L112.511 342.3C111.461 342.52 110.581 342.56 109.261 342.56H108.691ZM117.131 336.92H119.321V335.93H120.091V336.92H122.301V337.54H117.131V336.92ZM117.611 339.59C117.611 338.63 118.461 338.01 119.711 338.01C120.951 338.01 121.801 338.63 121.801 339.59C121.801 340.54 120.951 341.15 119.711 341.15C118.461 341.15 117.611 340.54 117.611 339.59ZM118.211 342.56V341.94H123.881V344.75H123.121V342.56H118.211ZM118.341 339.59C118.341 340.18 118.891 340.56 119.711 340.56C120.521 340.56 121.071 340.18 121.071 339.59C121.071 338.99 120.521 338.61 119.711 338.61C118.891 338.61 118.341 338.99 118.341 339.59ZM123.121 341.45V335.99H123.881V338.41H125.181V339.05H123.881V341.45H123.121ZM126.661 336.88H132.801V337.85C132.801 338.97 132.801 340.1 132.501 341.73L131.751 341.63C132.051 340.09 132.051 338.95 132.051 337.85V337.5H126.661V336.88ZM125.841 343.49V342.87H127.811V339.96H128.561V342.87H129.971V339.96H130.721V342.87H133.751V343.49H125.841ZM137.286 336.55H138.006V337.95H139.946V336.55H140.666V340.61H137.286V336.55ZM138.006 339.99H139.946V338.53H138.006V339.99ZM138.406 342.4V341.77H144.256V344.75H143.496V342.4H138.406ZM141.646 341.19V336.15H142.366V338.27H143.536V335.98H144.256V341.24H143.536V338.9H142.366V341.19H141.646ZM145.627 340.97H153.537V341.61H149.937V344.73H149.187V341.61H145.627V340.97ZM146.097 339.61C147.607 339.39 149.167 338.39 149.167 337.21V337.14H146.367V336.53H152.777V337.14H149.997V337.21C149.997 338.39 151.557 339.39 153.067 339.61L152.777 340.22C151.437 339.99 150.107 339.25 149.587 338.19C149.057 339.25 147.737 339.99 146.397 340.22L146.097 339.61ZM160.797 335.99H161.557V342.48H160.797V339.44H158.287V338.82H160.797V337.76H158.287V337.14H160.797V335.99ZM154.877 341.16V336.62H155.647V340.51C156.857 340.51 157.997 340.44 159.327 340.2L159.407 340.84C157.997 341.1 156.807 341.16 155.527 341.16H154.877ZM155.977 344.54V341.92H156.727V343.91H161.797V344.54H155.977ZM171.842 335.97H172.592V344.74H171.842V335.97ZM165.542 342.48C167.892 341.35 169.092 339.65 169.252 337.55H165.932V336.92H170.022C170.022 339.44 168.852 341.66 165.942 343.09L165.542 342.48ZM174.692 336.42H175.442V340.1C176.822 340.1 177.852 340.03 179.042 339.79L179.142 340.41C177.892 340.67 176.792 340.73 175.322 340.73H174.692V336.42ZM175.742 344.61V341.53H181.342V344.61H175.742ZM176.472 344H180.592V342.14H176.472V344ZM178.092 339.13V338.53H180.582V337.57H178.092V336.98H180.582V335.98H181.342V341.14H180.582V339.13H178.092ZM183.372 336.66H187.692V337.13C187.692 337.68 187.692 338.56 187.472 339.71L186.722 339.63C186.932 338.59 186.952 337.83 186.952 337.29H183.372V336.66ZM182.832 340.53C183.392 340.53 184.042 340.53 184.712 340.51V338.61H185.462V340.49C186.432 340.45 187.422 340.38 188.322 340.25L188.382 340.82C186.562 341.12 184.462 341.16 182.932 341.17L182.832 340.53ZM184.182 344.54V341.98H184.942V343.91H189.962V344.54H184.182ZM188.922 342.57V335.98H189.692V338.85H190.962V339.49H189.692V342.57H188.922ZM196.257 336.66C197.537 336.66 198.437 337.84 198.437 339.7C198.437 341.56 197.537 342.75 196.257 342.75C194.977 342.75 194.067 341.56 194.067 339.7C194.067 337.84 194.977 336.66 196.257 336.66ZM194.797 339.7C194.797 341.14 195.397 342.08 196.257 342.08C197.127 342.08 197.717 341.14 197.717 339.7C197.717 338.27 197.127 337.34 196.257 337.34C195.397 337.34 194.797 338.27 194.797 339.7ZM199.887 344.75V335.98H200.647V338.2H202.057V338.83H200.647V340.8H202.057V341.45H200.647V344.75H199.887ZM205.537 336.56C206.897 336.56 207.867 337.39 207.867 338.61C207.867 339.71 207.067 340.49 205.907 340.63V342.13C206.767 342.09 207.647 342.02 208.467 341.9L208.527 342.44C206.557 342.82 204.407 342.83 202.837 342.83L202.737 342.19C203.447 342.19 204.277 342.19 205.147 342.16V340.63C203.977 340.49 203.187 339.7 203.187 338.61C203.187 337.39 204.157 336.56 205.537 336.56ZM203.937 338.61C203.937 339.43 204.607 340.01 205.537 340.01C206.457 340.01 207.127 339.43 207.127 338.61C207.127 337.77 206.457 337.21 205.537 337.21C204.607 337.21 203.937 337.77 203.937 338.61ZM209.047 344.75V335.97H209.807V344.75H209.047ZM217.062 340.62H218.682V339.05H217.202C216.782 340.53 215.832 341.85 214.182 342.85L213.742 342.3C215.622 341.16 216.572 339.56 216.712 337.72H214.112V337.1H217.462C217.462 337.55 217.422 338 217.342 338.43H218.682V336.21H219.402V344.28H218.682V341.25H217.062V340.62ZM220.432 344.74V335.97H221.162V344.74H220.432ZM228.473 335.98H229.243V338.6H230.553V339.23H229.243V342.32H228.473V335.98ZM222.863 340.77V336.74H226.723V337.37H223.613V340.13C225.363 340.13 226.373 340.08 227.533 339.84L227.613 340.45C226.403 340.7 225.363 340.77 223.532 340.77H222.863ZM223.803 344.54V341.68H224.553V343.91H229.633V344.54H223.803ZM239.527 335.99H240.287V338.14H241.587V338.76H240.287V340.95H239.527V335.99ZM233.667 338.54C233.667 337.34 234.627 336.49 235.947 336.49C237.267 336.49 238.217 337.34 238.217 338.54C238.217 339.75 237.267 340.58 235.947 340.58C234.627 340.58 233.667 339.75 233.667 338.54ZM234.417 338.54C234.417 339.37 235.057 339.96 235.947 339.96C236.837 339.96 237.487 339.37 237.487 338.54C237.487 337.71 236.837 337.14 235.947 337.14C235.057 337.14 234.417 337.71 234.417 338.54ZM234.647 344.6V343.98H235.947V342.05H234.717V341.42H240.517V342.05H239.297V343.98H240.617V344.6H234.647ZM236.697 343.98H238.557V342.05H236.697V343.98Z" fill="white"/>
<defs>
<linearGradient id="paint0_linear_679_78" x1="178.39" y1="0" x2="178.39" y2="44" gradientUnits="userSpaceOnUse">
<stop stop-color="#FE01B0"/>
<stop offset="1" stop-color="#FE01B0" stop-opacity="0.35"/>
</linearGradient>
<linearGradient id="paint1_linear_679_78" x1="85.875" y1="39.5003" x2="5.60104" y2="41.1759" gradientUnits="userSpaceOnUse">
<stop stop-color="#FF98DF"/>
<stop offset="1" stop-color="#FF21BB"/>
</linearGradient>
<linearGradient id="paint2_linear_679_78" x1="177.5" y1="100.708" x2="177.5" y2="193.569" gradientUnits="userSpaceOnUse">
<stop stop-color="#FE01B0"/>
<stop offset="1" stop-color="#FE01B0" stop-opacity="0.35"/>
</linearGradient>
<linearGradient id="paint3_linear_679_78" x1="175.5" y1="267.708" x2="175.5" y2="360.569" gradientUnits="userSpaceOnUse">
<stop stop-color="#FE01B0"/>
<stop offset="1" stop-color="#FE01B0" stop-opacity="0.35"/>
</linearGradient>
<linearGradient id="paint4_linear_679_78" x1="176" y1="600" x2="176" y2="715" gradientUnits="userSpaceOnUse">
<stop stop-color="#FE01B0" stop-opacity="0.63"/>
<stop offset="1" stop-color="#FE01B0" stop-opacity="0"/>
</linearGradient>
</defs>
</svg>
