<svg width="63" height="15" viewBox="0 0 63 15" fill="none" xmlns="http://www.w3.org/2000/svg">
<path d="M7.632 11.48C8.262 10.49 8.316 9.32 8.316 7.484C8.316 5.666 8.262 4.514 7.632 3.524C7.326 2.93 6.66 2.12 5.148 2.12C3.618 2.12 2.952 2.912 2.646 3.506C2.034 4.514 1.98 5.666 1.98 7.484C1.98 9.302 2.034 10.472 2.646 11.462C2.952 12.074 3.618 12.866 5.148 12.866C6.66 12.866 7.326 12.074 7.632 11.48ZM0.918 7.484C0.918 5.828 0.936 4.37 1.674 3.092C2.106 2.21 3.15 1.058 5.148 1.058C7.164 1.058 8.19 2.228 8.64 3.092C9.378 4.37 9.378 5.846 9.378 7.484C9.378 9.176 9.378 10.634 8.64 11.912C8.19 12.794 7.164 13.946 5.148 13.946C3.15 13.946 2.106 12.776 1.674 11.912C0.936 10.616 0.918 9.14 0.918 7.484ZM15.2148 5.864C17.4468 5.864 19.3188 7.628 19.3188 9.932C19.3188 12.236 17.5368 13.964 15.3228 13.964C13.8828 13.964 12.2808 13.19 11.4708 11.966C11.4168 11.912 11.3088 11.75 11.2188 11.588L12.1548 11.066L12.3888 11.408C12.9468 12.236 14.1528 12.884 15.3408 12.884C17.0148 12.884 18.2748 11.552 18.2748 9.95C18.2748 8.132 16.8528 6.926 15.3408 6.926C14.7288 6.926 13.5948 7.142 12.9108 7.808L12.1548 7.322L12.3168 1.202H18.5628V2.21H13.3608L13.2528 6.35C13.8108 6.044 14.5488 5.864 15.2148 5.864ZM25.9024 0.247999L22.1404 14.864H21.0604L24.8404 0.247999H25.9024ZM37.2219 1.004V2.048H33.2439V14H32.1639V2.048H28.2219V1.004H37.2219ZM49.2857 1.004V14H48.2057V7.862H40.7897V14H39.6917V1.004H40.7897V6.8H48.2057V1.004H49.2857ZM62.2668 8.96C62.2668 11.876 59.9448 14.126 57.2988 14.126C54.4188 14.126 52.3308 11.876 52.3308 8.96V1.004H53.4108V8.978C53.4108 11.336 55.0848 13.028 57.2988 13.028C59.3688 13.028 61.1868 11.336 61.1868 8.978V1.004H62.2668V8.96Z" fill="white"/>
</svg>
