<svg width="67" height="16" viewBox="0 0 67 16" fill="none" xmlns="http://www.w3.org/2000/svg">
<path d="M7.65 10.85C8.154 10.022 8.19 9.032 8.19 7.484C8.19 5.954 8.154 4.982 7.65 4.154C7.38 3.668 6.822 3.002 5.544 3.002C4.266 3.002 3.708 3.65 3.456 4.136C2.934 4.982 2.898 5.954 2.898 7.484C2.898 9.014 2.934 10.004 3.456 10.832C3.708 11.336 4.266 11.984 5.544 11.984C6.822 11.984 7.38 11.336 7.65 10.85ZM0.774 7.484C0.774 5.774 0.792 4.28 1.62 2.948C2.124 2.066 3.294 0.877999 5.544 0.877999C7.794 0.877999 8.964 2.084 9.486 2.948C10.332 4.28 10.332 5.792 10.332 7.484C10.332 9.212 10.332 10.724 9.486 12.056C8.964 12.938 7.794 14.126 5.544 14.126C3.294 14.126 2.124 12.92 1.62 12.056C0.792 10.706 0.774 9.194 0.774 7.484ZM16.5998 5.594C19.1198 5.594 20.8658 7.502 20.8658 9.896C20.8658 12.29 18.9398 14.144 16.3838 14.144C14.7998 14.144 13.0358 13.388 12.1538 12.128C12.0998 12.038 11.9558 11.876 11.8658 11.714L13.7378 10.76L13.8998 10.994C14.3858 11.588 15.3938 12.056 16.3838 12.056C17.8418 12.056 18.8318 11.084 18.8318 9.896C18.8318 8.636 17.8238 7.682 16.3838 7.682C15.5738 7.682 14.6738 7.934 14.1518 8.42L12.6398 7.574L12.8018 1.022H20.1098V3.074H14.7458L14.6558 6.062C15.2858 5.738 15.8258 5.594 16.5998 5.594ZM28.5147 0.0319996L24.6447 15.08H22.4667L26.3547 0.0319996H28.5147ZM40.201 0.805999V2.93H36.529V14.198H34.351V2.93H30.625V0.805999H40.201ZM53.0715 0.805999V14.198H50.8935V8.384H44.3955V14.198H42.2355V0.805999H44.3955V6.26H50.8935V0.805999H53.0715ZM66.4291 8.87C66.4291 11.894 63.8731 14.324 61.0651 14.324C58.0951 14.324 55.6831 11.894 55.6831 8.87V0.805999H57.8611V8.816C57.8611 10.706 59.2651 12.128 61.0651 12.128C62.7571 12.128 64.2511 10.706 64.2511 8.816V0.805999H66.4291V8.87Z" fill="white"/>
</svg>
