<svg width="104" height="23" viewBox="0 0 104 23" fill="none" xmlns="http://www.w3.org/2000/svg">
<path d="M0.56 2.288H10.688V4.712H3.56V8.312H10.352V10.64H3.56V14.72C6.632 14.696 9.152 14.6 12.008 14.144L12.272 16.52C9.008 17.048 6.104 17.144 2.36 17.144H0.56V2.288ZM13.544 22.04V0.511999H16.544V8.696H19.688V11.168H16.544V22.04H13.544ZM35.6006 0.511999H38.6006V12.704H35.6006V0.511999ZM21.0566 6.656C21.0566 3.656 23.5766 1.52 26.8886 1.52C30.2246 1.52 32.7446 3.656 32.7446 6.656C32.7446 9.632 30.2246 11.792 26.8886 11.792C23.5766 11.792 21.0566 9.632 21.0566 6.656ZM23.9846 6.656C23.9846 8.336 25.2326 9.344 26.8886 9.344C28.5926 9.344 29.8166 8.336 29.8166 6.656C29.8166 4.976 28.5926 3.968 26.8886 3.968C25.2326 3.968 23.9846 4.976 23.9846 6.656ZM24.3206 21.776V13.688H38.6006V21.776H24.3206ZM27.2486 19.424H35.6726V16.016H27.2486V19.424ZM50.4811 8.36H52.8811V0.895998H55.6651V21.056H52.8811V10.784H50.4811V8.36ZM42.3451 17.24V2.888H50.3371V5.264H45.1771V8.672H49.4971V10.976H45.1771V14.864C47.4811 14.84 49.1611 14.72 51.1531 14.384L51.4171 16.808C48.9691 17.192 46.9051 17.24 43.8091 17.24H42.3451ZM57.3211 22.016V0.487999H60.1771V22.016H57.3211ZM77.5297 0.464H80.5057V22.064H77.5297V0.464ZM63.3217 9.656C63.3217 4.952 65.7217 2 68.9617 2C72.2017 2 74.6017 4.952 74.6017 9.656C74.6017 14.384 72.2017 17.36 68.9617 17.36C65.7217 17.36 63.3217 14.384 63.3217 9.656ZM66.2017 9.656C66.2017 12.896 67.3057 14.648 68.9617 14.648C70.6177 14.648 71.7217 12.896 71.7217 9.656C71.7217 6.44 70.6177 4.712 68.9617 4.712C67.3057 4.712 66.2017 6.44 66.2017 9.656ZM86.1223 0.871999H89.0742V2.36H97.6663V0.871999H100.642V8.096H86.1223V0.871999ZM83.6263 11.624V9.272H103.114V11.624H83.6263ZM85.8823 15.104V12.92H100.738V18.344H88.8583V19.64H101.29V21.872H85.9303V16.28H97.7863V15.104H85.8823ZM89.0742 5.864H97.6663V4.52H89.0742V5.864Z" fill="white"/>
</svg>
