<svg width="199" height="45" viewBox="0 0 199 45" fill="none" xmlns="http://www.w3.org/2000/svg">
<path d="M20.6463 1C20.3832 1 20.1307 1.10367 19.9436 1.28855L1.29727 19.7064C1.10706 19.8943 1 20.1505 1 20.4178V43C1 43.5523 1.44772 44 2 44H197C197.552 44 198 43.5523 198 43V2C198 1.44772 197.552 1 197 1H20.6463Z" fill="#FE01B0" fill-opacity="0.5"/>
<path d="M2.71934 10.5529C2.0946 11.1998 1 10.7576 1 9.85824V2C1 1.44771 1.44772 1 2 1H9.5886C10.4711 1 10.921 2.05983 10.3079 2.69466L2.71934 10.5529Z" fill="#FE01B0" fill-opacity="0.5"/>
<path d="M20.6463 1C20.3832 1 20.1307 1.10367 19.9436 1.28855L1.29727 19.7064C1.10706 19.8943 1 20.1505 1 20.4178V43C1 43.5523 1.44772 44 2 44H197C197.552 44 198 43.5523 198 43V2C198 1.44772 197.552 1 197 1H20.6463Z" stroke="url(#paint0_linear_328_337)" stroke-width="2" stroke-linejoin="round"/>
<path d="M2.71934 10.5529C2.0946 11.1998 1 10.7576 1 9.85824V2C1 1.44771 1.44772 1 2 1H9.5886C10.4711 1 10.921 2.05983 10.3079 2.69466L2.71934 10.5529Z" stroke="url(#paint1_linear_328_337)" stroke-width="2" stroke-linejoin="round"/>
<path d="M37.992 14.408V17.24H33.096V32.264H30.192V17.24H25.224V14.408H37.992ZM40.8452 14.408H43.7252V32.264H40.8452V14.408ZM66.2773 14.408V32.264H63.3733V18.8L58.1173 28.304H55.3573L50.0533 18.8V32.264H47.1493V14.408H51.0613L56.7253 24.656L62.3413 14.408H66.2773ZM81.9529 14.408V17.24H72.5929V21.656H81.1849V24.512H72.5929V29.408H81.9529V32.264H69.7369V14.408H81.9529ZM84.2413 31.952H95.7133V34.784H84.2413V31.952ZM110.672 14.408V17.24H105.776V32.264H102.872V17.24H97.9037V14.408H110.672ZM121.404 14.408L128.844 32.264H125.796L123.852 27.608H115.788L113.868 32.264H110.796L118.236 14.408H121.404ZM117.108 24.488H122.532L119.844 17.912L117.108 24.488ZM131.384 14.408H139.352C142.064 14.408 144.248 16.544 144.248 19.256C144.248 20.792 143.528 22.016 142.424 22.904C143.744 23.792 144.656 25.4 144.656 27.296C144.656 30.032 142.472 32.264 139.76 32.264H131.384V14.408ZM134.288 29.216H139.352C140.624 29.216 141.632 28.232 141.632 26.96C141.632 25.592 140.624 24.512 139.352 24.512H134.288V29.216ZM134.288 21.656H139.16C140.384 21.608 141.32 20.744 141.32 19.52C141.32 18.224 140.312 17.288 139.04 17.288H134.288V21.656ZM150.248 14.408V29.408H158.864V32.264H147.344V14.408H150.248ZM173.453 14.408V17.24H164.093V21.656H172.685V24.512H164.093V29.408H173.453V32.264H161.237V14.408H173.453Z" fill="white"/>
<defs>
<linearGradient id="paint0_linear_328_337" x1="6.5" y1="44" x2="178" y2="44" gradientUnits="userSpaceOnUse">
<stop stop-color="white"/>
<stop offset="1" stop-color="#FF98DF"/>
</linearGradient>
<linearGradient id="paint1_linear_328_337" x1="6.5" y1="44" x2="178" y2="44" gradientUnits="userSpaceOnUse">
<stop stop-color="white"/>
<stop offset="1" stop-color="#FF98DF"/>
</linearGradient>
</defs>
</svg>
