<svg width="198" height="40" viewBox="0 0 198 40" fill="none" xmlns="http://www.w3.org/2000/svg">
<path fill-rule="evenodd" clip-rule="evenodd" d="M4.26163 0C1.90805 0 9.0461e-05 1.90795 9.0461e-05 4.26153V10.6434C-3.04217e-05 10.651 -2.98853e-05 10.6585 9.0461e-05 10.6661V29.1083C-2.98853e-05 29.1158 -3.04217e-05 29.1234 9.0461e-05 29.131V35.5128C9.0461e-05 37.8664 1.90804 39.7744 4.26163 39.7744H193.19C195.543 39.7744 197.451 37.8664 197.451 35.5128V29.1316C197.451 29.1236 197.451 29.1156 197.451 29.1077V10.6667L197.451 10.6535L197.451 10.6428V4.26154C197.451 1.90796 195.543 0 193.19 0H4.26163ZM196.031 11.4728V28.3016L192.48 27.7943V11.9801L196.031 11.4728ZM191.669 10.661L196.031 10.0379V4.26154C196.031 2.69248 194.759 1.42051 193.19 1.42051H4.26163C2.69257 1.42051 1.4206 2.69248 1.4206 4.26153V10.0379L5.78259 10.661C6.13249 10.711 6.3924 11.0107 6.3924 11.3641V28.4103C6.3924 28.7637 6.13249 29.0634 5.78259 29.1134L1.4206 29.7365V35.5128C1.4206 37.0819 2.69257 38.3538 4.26163 38.3538H193.19C194.759 38.3538 196.031 37.0819 196.031 35.5128V29.7365L191.669 29.1134C191.319 29.0634 191.059 28.7637 191.059 28.4103V11.3641C191.059 11.0107 191.319 10.711 191.669 10.661ZM1.4206 11.4728V28.3016L4.97189 27.7943V11.9801L1.4206 11.4728ZM7.10264 2.84096H3.55136V6.39224H7.10264V2.84096ZM7.81291 2.84096H10.6539V6.39224H7.81291V2.84096ZM13.495 2.84096H11.3642V6.39224H13.495V2.84096ZM14.2052 2.84096H15.6257V6.39224H14.2052V2.84096ZM17.0462 2.84096H16.336V6.39224H17.0462V2.84096ZM17.7565 2.84096H18.4668V6.39224H17.7565V2.84096ZM19.8873 2.84096H19.177V6.39224H19.8873V2.84096ZM20.5975 2.84096H21.3078V6.39224H20.5975V2.84096ZM187.801 34.4296L187.433 34.6937L187.517 35.1387C187.528 35.199 187.534 35.2616 187.534 35.3264C187.534 35.878 187.087 36.3252 186.536 36.3252C186.31 36.3252 186.104 36.2512 185.937 36.1258L185.51 35.8054L185.084 36.1258C184.917 36.2512 184.71 36.3252 184.485 36.3252C183.933 36.3252 183.486 35.878 183.486 35.3264C183.486 35.2616 183.492 35.199 183.503 35.1387L183.588 34.6937L183.22 34.4296C182.966 34.2472 182.802 33.9513 182.802 33.6173C182.802 33.0657 183.249 32.6185 183.801 32.6185L183.821 32.6187L184.414 32.6303L184.531 32.0497C184.624 31.594 185.028 31.2513 185.51 31.2513C185.993 31.2513 186.397 31.594 186.489 32.0497L186.607 32.6303L187.199 32.6187L187.219 32.6185C187.771 32.6185 188.218 33.0657 188.218 33.6173C188.218 33.9513 188.055 34.2472 187.801 34.4296ZM182.776 35.3264C182.776 35.2171 182.786 35.1102 182.806 35.0066C182.373 34.6965 182.092 34.1898 182.092 33.6173C182.092 32.6734 182.857 31.9083 183.801 31.9083C183.813 31.9083 183.824 31.9084 183.835 31.9086C183.993 31.1283 184.683 30.541 185.51 30.541C186.337 30.541 187.027 31.1283 187.185 31.9086L187.21 31.9083L187.219 31.9083C188.163 31.9083 188.928 32.6734 188.928 33.6173C188.928 34.1898 188.647 34.6965 188.215 35.0066C188.234 35.1102 188.245 35.2171 188.245 35.3264C188.245 36.2703 187.48 37.0354 186.536 37.0354C186.151 37.0354 185.796 36.9083 185.51 36.6937C185.225 36.9083 184.869 37.0354 184.485 37.0354C183.541 37.0354 182.776 36.2703 182.776 35.3264ZM170.83 34.6937L171.198 34.4296C171.453 34.2472 171.616 33.9513 171.616 33.6173C171.616 33.0657 171.169 32.6185 170.617 32.6185L170.597 32.6187L170.004 32.6303L169.887 32.0497C169.794 31.594 169.39 31.2513 168.908 31.2513C168.425 31.2513 168.021 31.594 167.929 32.0497L167.811 32.6303L167.219 32.6187L167.199 32.6185C166.647 32.6185 166.2 33.0657 166.2 33.6173C166.2 33.9513 166.363 34.2472 166.617 34.4296L166.985 34.6937L166.901 35.1387C166.89 35.199 166.884 35.2616 166.884 35.3264C166.884 35.878 167.331 36.3252 167.882 36.3252C168.108 36.3252 168.314 36.2512 168.481 36.1258L168.908 35.8054L169.334 36.1258C169.501 36.2512 169.708 36.3252 169.933 36.3252C170.485 36.3252 170.932 35.878 170.932 35.3264C170.932 35.2616 170.926 35.199 170.915 35.1387L170.83 34.6937ZM166.203 35.0066C166.184 35.1102 166.173 35.2171 166.173 35.3264C166.173 36.2703 166.939 37.0354 167.882 37.0354C168.267 37.0354 168.622 36.9083 168.908 36.6937C169.194 36.9083 169.549 37.0354 169.933 37.0354C170.877 37.0354 171.642 36.2703 171.642 35.3264C171.642 35.2171 171.632 35.1102 171.613 35.0066C172.045 34.6965 172.326 34.1898 172.326 33.6173C172.326 32.6734 171.561 31.9083 170.617 31.9083C170.606 31.9083 170.594 31.9084 170.583 31.9086C170.425 31.1283 169.735 30.541 168.908 30.541C168.081 30.541 167.391 31.1283 167.233 31.9086C167.222 31.9084 167.21 31.9083 167.199 31.9083C166.255 31.9083 165.49 32.6734 165.49 33.6173C165.49 34.1898 165.771 34.6964 166.203 35.0066ZM179.721 34.4296L179.354 34.6937L179.438 35.1387C179.449 35.199 179.455 35.2616 179.455 35.3264C179.455 35.878 179.008 36.3252 178.456 36.3252C178.231 36.3252 178.024 36.2512 177.858 36.1258L177.431 35.8054L177.004 36.1258C176.838 36.2512 176.631 36.3252 176.406 36.3252C175.854 36.3252 175.407 35.878 175.407 35.3264C175.407 35.2616 175.413 35.199 175.424 35.1387L175.508 34.6937L175.141 34.4296C174.886 34.2472 174.723 33.9513 174.723 33.6173C174.723 33.0657 175.17 32.6185 175.722 32.6185L175.742 32.6187L176.334 32.6303L176.452 32.0497C176.545 31.594 176.949 31.2513 177.431 31.2513C177.913 31.2513 178.317 31.594 178.41 32.0497L178.528 32.6303L179.12 32.6187L179.14 32.6185C179.692 32.6185 180.139 33.0657 180.139 33.6173C180.139 33.9513 179.976 34.2472 179.721 34.4296ZM174.697 35.3264C174.697 35.2171 174.707 35.1102 174.726 35.0066C174.294 34.6965 174.013 34.1898 174.013 33.6173C174.013 32.6734 174.778 31.9083 175.722 31.9083C175.733 31.9083 175.745 31.9084 175.756 31.9086C175.914 31.1283 176.604 30.541 177.431 30.541C178.258 30.541 178.948 31.1283 179.106 31.9086C179.117 31.9084 179.129 31.9083 179.14 31.9083C180.084 31.9083 180.849 32.6734 180.849 33.6173C180.849 34.1898 180.568 34.6964 180.136 35.0066C180.155 35.1102 180.166 35.2171 180.166 35.3264C180.166 36.2703 179.4 37.0354 178.456 37.0354C178.072 37.0354 177.717 36.9083 177.431 36.6937C177.145 36.9083 176.79 37.0354 176.406 37.0354C175.462 37.0354 174.697 36.2703 174.697 35.3264Z" fill="url(#paint0_linear_597_316)"/>
<defs>
<linearGradient id="paint0_linear_597_316" x1="98.7257" y1="0" x2="98.7257" y2="39.7744" gradientUnits="userSpaceOnUse">
<stop stop-color="#86E4D4"/>
<stop offset="1" stop-color="#43A5EF"/>
</linearGradient>
</defs>
</svg>
