<svg width="392" height="56" viewBox="0 0 392 56" fill="none" xmlns="http://www.w3.org/2000/svg">
<path fill-rule="evenodd" clip-rule="evenodd" d="M63 0C59.6863 0 57 2.68629 57 6V14.9854L56.9999 14.9962L57 15.0171V23H44.5146L39.8137 16.4188C39.4927 15.9693 38.8682 15.8653 38.4188 16.1863C37.9693 16.5073 37.8653 17.1318 38.1863 17.5812L42.0568 23H34.5146L29.8137 16.4188C29.4927 15.9693 28.8682 15.8653 28.4188 16.1863C27.9693 16.5073 27.8653 17.1318 28.1863 17.5812L32.0568 23H1C0.447715 23 0 23.4477 0 24C0 24.5523 0.447715 25 1 25H33.9883C33.9967 25.0001 34.005 25.0001 34.0134 25H43.9883L44.0037 25.0001L44.0134 25H57V27H44.0134C44.005 26.9999 43.9967 26.9999 43.9883 27H34.0134C34.005 26.9999 33.9967 26.9999 33.9883 27H1C0.447715 27 0 27.4477 0 28C0 28.5523 0.447715 29 1 29H32.0568L28.1863 34.4188C27.8653 34.8682 27.9693 35.4927 28.4188 35.8137C28.8682 36.1347 29.4927 36.0307 29.8137 35.5812L34.5146 29H42.0568L38.1863 34.4188C37.8653 34.8682 37.9693 35.4927 38.4188 35.8137C38.8682 36.1347 39.4927 36.0307 39.8137 35.5812L44.5146 29H57V40.9829C56.9998 40.9934 56.9998 41.004 57 41.0146V50C57 53.3137 59.6863 56 63 56H329C332.314 56 335 53.3137 335 50V41.0152L335 40.9995L335 40.9824V29H347.485L352.186 35.5812C352.507 36.0307 353.132 36.1347 353.581 35.8137C354.031 35.4927 354.135 34.8682 353.814 34.4188L349.943 29H357.485L362.186 35.5812C362.507 36.0307 363.132 36.1347 363.581 35.8137C364.031 35.4927 364.135 34.8682 363.814 34.4188L359.943 29H391C391.552 29 392 28.5523 392 28C392 27.4477 391.552 27 391 27H358.012C358.003 26.9999 357.995 26.9999 357.987 27H348.012C348.003 26.9999 347.995 26.9999 347.987 27H335V25H347.987C347.995 25.0001 348.003 25.0001 348.012 25H357.987C357.995 25.0001 358.003 25.0001 358.012 25H391C391.552 25 392 24.5523 392 24C392 23.4477 391.552 23 391 23H359.943L363.814 17.5812C364.135 17.1318 364.031 16.5073 363.581 16.1863C363.132 15.8653 362.507 15.9693 362.186 16.4188L357.485 23H349.943L353.814 17.5812C354.135 17.1318 354.031 16.5073 353.581 16.1863C353.132 15.8653 352.507 15.9693 352.186 16.4188L347.485 23H335V15.0176C335 15.0067 335 14.9958 335 14.9848V6C335 2.68629 332.314 0 329 0H63ZM59 28L59 27.9972V24.0028L59 24L59 23.9972V16.153L64 16.8673V39.1327L59 39.847V28.0028L59 28ZM333 39.847L328 39.1327V16.8673L333 16.153V39.847ZM326.859 15.0101L333 14.1327V6C333 3.79086 331.209 2 329 2H63C60.7909 2 59 3.79086 59 6V14.1327L65.1414 15.0101C65.6341 15.0804 66 15.5023 66 16V40C66 40.4977 65.6341 40.9196 65.1414 40.99L59 41.8673V50C59 52.2091 60.7909 54 63 54H329C331.209 54 333 52.2091 333 50V41.8673L326.859 40.99C326.366 40.9196 326 40.4977 326 40V16C326 15.5023 326.366 15.0804 326.859 15.0101ZM67 4H62V9H67V4ZM68 4H72V9H68V4ZM76 4H73V9H76V4ZM77 4H79V9H77V4ZM81 4H80V9H81V4ZM82 4H83V9H82V4ZM85 4H84V9H85V4ZM86 4H87V9H86V4ZM321.412 48.4749L320.894 48.8468L321.013 49.4733C321.029 49.5581 321.038 49.6463 321.038 49.7375C321.038 50.5141 320.408 51.1437 319.631 51.1437C319.314 51.1437 319.023 51.0396 318.788 50.8631L318.188 50.412L317.587 50.8631C317.352 51.0396 317.061 51.1437 316.744 51.1437C315.967 51.1437 315.337 50.5141 315.337 49.7375C315.337 49.6463 315.346 49.5581 315.362 49.4733L315.481 48.8468L314.963 48.4749C314.605 48.218 314.375 47.8015 314.375 47.3312C314.375 46.5546 315.005 45.925 315.781 45.925L315.81 45.9253L316.644 45.9416L316.809 45.1242C316.939 44.4826 317.508 44 318.188 44C318.867 44 319.436 44.4826 319.566 45.1242L319.731 45.9416L320.565 45.9253L320.594 45.925C321.37 45.925 322 46.5546 322 47.3312C322 47.8015 321.77 48.218 321.412 48.4749ZM314.337 49.7375C314.337 49.5836 314.352 49.4331 314.38 49.2873C313.771 48.8506 313.375 48.1372 313.375 47.3312C313.375 46.0023 314.452 44.925 315.781 44.925C315.797 44.925 315.813 44.9252 315.829 44.9255C316.052 43.8269 317.023 43 318.188 43C319.352 43 320.323 43.8269 320.546 44.9255C320.562 44.9252 320.578 44.925 320.594 44.925C321.923 44.925 323 46.0023 323 47.3312C323 48.1372 322.604 48.8506 321.995 49.2873C322.023 49.4331 322.038 49.5836 322.038 49.7375C322.038 51.0664 320.96 52.1437 319.631 52.1437C319.09 52.1437 318.59 51.9647 318.188 51.6627C317.785 51.9647 317.285 52.1437 316.744 52.1437C315.415 52.1437 314.337 51.0664 314.337 49.7375ZM297.519 48.8468L298.037 48.4749C298.395 48.218 298.625 47.8015 298.625 47.3312C298.625 46.5546 297.995 45.925 297.219 45.925L297.19 45.9253L296.356 45.9416L296.191 45.1242C296.061 44.4826 295.492 44 294.812 44C294.133 44 293.564 44.4826 293.434 45.1242L293.269 45.9416L292.435 45.9253L292.406 45.925C291.63 45.925 291 46.5546 291 47.3312C291 47.8015 291.23 48.218 291.588 48.4749L292.106 48.8468L291.987 49.4733C291.971 49.5581 291.962 49.6463 291.962 49.7375C291.962 50.5141 292.592 51.1437 293.369 51.1437C293.686 51.1437 293.977 51.0396 294.212 50.8631L294.812 50.412L295.413 50.8631C295.648 51.0396 295.939 51.1437 296.256 51.1437C297.033 51.1437 297.663 50.5141 297.663 49.7375C297.663 49.6463 297.654 49.5581 297.638 49.4733L297.519 48.8468ZM291.005 49.2873C290.977 49.4331 290.962 49.5836 290.962 49.7375C290.962 51.0664 292.04 52.1437 293.369 52.1437C293.91 52.1437 294.41 51.9647 294.812 51.6627C295.215 51.9647 295.715 52.1437 296.256 52.1437C297.585 52.1437 298.663 51.0664 298.663 49.7375C298.663 49.5836 298.648 49.4331 298.62 49.2873C299.229 48.8506 299.625 48.1372 299.625 47.3312C299.625 46.0023 298.548 44.925 297.219 44.925L297.197 44.9251C297.188 44.9252 297.179 44.9253 297.171 44.9255C296.948 43.8269 295.977 43 294.812 43C293.648 43 292.677 43.8269 292.454 44.9255C292.438 44.9252 292.422 44.925 292.406 44.925C291.077 44.925 290 46.0023 290 47.3312C290 48.1372 290.396 48.8506 291.005 49.2873ZM310.037 48.4749L309.519 48.8468L309.638 49.4733C309.654 49.5581 309.663 49.6463 309.663 49.7375C309.663 50.5141 309.033 51.1437 308.256 51.1437C307.939 51.1437 307.648 51.0396 307.413 50.8631L306.812 50.412L306.212 50.8631C305.977 51.0396 305.686 51.1437 305.369 51.1437C304.592 51.1437 303.962 50.5141 303.962 49.7375C303.962 49.6463 303.971 49.5581 303.987 49.4733L304.106 48.8468L303.588 48.4749C303.23 48.218 303 47.8015 303 47.3312C303 46.5546 303.63 45.925 304.406 45.925L304.435 45.9253L305.269 45.9416L305.434 45.1242C305.564 44.4826 306.133 44 306.812 44C307.492 44 308.061 44.4826 308.191 45.1242L308.356 45.9416L309.19 45.9253L309.219 45.925C309.995 45.925 310.625 46.5546 310.625 47.3312C310.625 47.8015 310.395 48.218 310.037 48.4749ZM302.962 49.7375C302.962 49.5836 302.977 49.4331 303.005 49.2873C302.396 48.8506 302 48.1372 302 47.3312C302 46.0023 303.077 44.925 304.406 44.925C304.422 44.925 304.438 44.9252 304.454 44.9255C304.677 43.8269 305.648 43 306.812 43C307.977 43 308.948 43.8269 309.171 44.9255C309.187 44.9252 309.203 44.925 309.219 44.925C310.548 44.925 311.625 46.0023 311.625 47.3312C311.625 48.1372 311.229 48.8506 310.62 49.2873C310.648 49.4331 310.663 49.5836 310.663 49.7375C310.663 51.0664 309.585 52.1437 308.256 52.1437C307.715 52.1437 307.215 51.9647 306.812 51.6627C306.41 51.9647 305.91 52.1437 305.369 52.1437C304.04 52.1437 302.962 51.0664 302.962 49.7375Z" fill="url(#paint0_linear_597_317)"/>
<defs>
<linearGradient id="paint0_linear_597_317" x1="196" y1="0" x2="196" y2="56" gradientUnits="userSpaceOnUse">
<stop stop-color="#86E4D4"/>
<stop offset="1" stop-color="#43A5EF"/>
</linearGradient>
</defs>
</svg>
