<svg width="357" height="578" viewBox="0 0 357 578" fill="none" xmlns="http://www.w3.org/2000/svg">
<path d="M6 134L6.00003 504" stroke="#FE01B0" stroke-width="6"/>
<path d="M13 66.5L3.25 70.3971L3.25 62.6029L13 66.5Z" fill="#FE01B0"/>
<path d="M13 81L3.25 85.3301L3.25 76.6699L13 81Z" fill="#FE01B0"/>
<path d="M13 96L3.25 100.33L3.25 91.6699L13 96Z" fill="#FE01B0"/>
<path d="M3.25 54.25H125H145H209H236H351.75V576.75H3.25V54.25Z" stroke="#FE01B0" stroke-opacity="0.48" stroke-width="2.5"/>
<path d="M307.602 43.5H2.5V6.5H75.5H75.5296L75.559 6.49651L126.03 0.5H229.607L274.434 6.49559L274.467 6.5H274.5H354.281V21.6818L307.602 43.5Z" fill="url(#paint0_linear_565_215)" fill-opacity="0.64" stroke="#FF98DF"/>
<path d="M341.675 32.0002L342.307 43.6341L312.701 44.9835L341.675 32.0002Z" fill="#FE01B0"/>
<path d="M344.852 29.5462L354.559 23.9112L355 43.9072L345.172 44.0887L344.852 29.5462Z" fill="#FE01B0"/>
<path d="M57.6667 44C57.6667 46.9455 60.0545 49.3333 63 49.3333C65.9455 49.3333 68.3333 46.9455 68.3333 44C68.3333 41.0545 65.9455 38.6667 63 38.6667C60.0545 38.6667 57.6667 41.0545 57.6667 44ZM2 45L63 45L63 43L2 43L2 45Z" fill="url(#paint1_linear_565_215)"/>
<path d="M145.655 101.16L145.755 101.208H145.867H313.158V146.966L277.082 193.069H41.8428V87.668H116.873L145.655 101.16Z" fill="url(#paint2_linear_565_215)" fill-opacity="0.64" stroke="#FF98DF"/>
<path d="M148.118 96.1021L148.222 96.1525H148.337H323.248V147.869L284.716 199.915H33.5859V82.5742H120.323L148.118 96.1021Z" stroke="#FFA3E3"/>
<path d="M238.448 214.676L238.322 214.592H238.172H170.271L157.735 204.32H280.706V224.425H253.137L238.448 214.676Z" fill="#FE01B0" stroke="#FF98DF"/>
<path d="M206.036 87.7059L205.946 87.7423H205.849H166.885L160.38 92.3828H230.314L236.962 82.452L218.3 82.7574L206.036 87.7059Z" stroke="#FF3AC2"/>
<path d="M203.491 421.117L203.429 421.133H203.365H49.8249L44.7696 432.5H306.593L311.384 409.507L245.279 410.207L203.491 421.117Z" stroke="#FF3AC2"/>
<line x1="23.5" y1="147.741" x2="23.5" y2="214.674" stroke="#FF98DF"/>
<line x1="23" y1="214.174" x2="87.1986" y2="214.174" stroke="#FF98DF"/>
<line x1="87.6982" y1="214.674" x2="87.6982" y2="224.925" stroke="#FF98DF"/>
<path d="M81.5543 227.337L84.3763 224.925H90.7256L93.5475 227.337L96.3694 229.749V234.874L93.5475 237.588L90.7256 240H84.0235L81.5543 237.588L78.7324 234.874V229.749L81.5543 227.337Z" fill="#FE01B0"/>
<path d="M31.4658 199.6H78.0275L74.8528 203.821H31.4658V199.6Z" fill="#FF91DD"/>
<path d="M32.877 203.82L32.877 185.73L27.2331 186.964L27.2331 203.82L32.877 203.82Z" fill="#FF98DF"/>
<path d="M243.815 79H252.986L242.756 94.0749H233.232L243.815 79Z" fill="#FE01B0"/>
<path d="M255.103 79H264.274L254.044 94.0749H244.521L255.103 79Z" fill="#FE01B0"/>
<path d="M266.391 79H275.562L265.333 94.0749H255.809L266.391 79Z" fill="#FE01B0"/>
<path d="M277.678 79H286.849L276.62 94.0749H267.096L277.678 79Z" fill="#FE01B0"/>
<path d="M288.966 79H298.137L287.908 94.0749H278.384L288.966 79Z" fill="#FE01B0"/>
<path d="M300.253 79H309.424L299.195 94.0749H289.671L300.253 79Z" fill="#FE01B0"/>
<path d="M311.541 79H320.712L310.483 94.0749H300.959L311.541 79Z" fill="#FE01B0"/>
<path d="M322.828 79H332L321.77 94.0749H312.246L322.828 79Z" fill="#FE01B0"/>
<path d="M350 54L350 424" stroke="#FE01B0" stroke-width="6"/>
<path d="M357 519L347.25 523.33L347.25 514.67L357 519Z" fill="#FE01B0"/>
<path d="M357 535L347.25 539.33L347.25 530.67L357 535Z" fill="#FE01B0"/>
<path d="M357 550L347.25 554.33L347.25 545.67L357 550Z" fill="#FE01B0"/>
<line x1="23.5" y1="150" x2="23.5" y2="529" stroke="#FE01B0" stroke-opacity="0.32"/>
<rect x="38.5" y="440.5" width="279" height="114" rx="4.5" fill="url(#paint3_linear_565_215)" stroke="#FF98DF"/>
<path d="M309.833 435.5C309.833 436.973 311.027 438.167 312.5 438.167C313.973 438.167 315.167 436.973 315.167 435.5C315.167 434.027 313.973 432.833 312.5 432.833C311.027 432.833 309.833 434.027 309.833 435.5ZM39.5 435.5L39.0606 435.261L38.6596 436H39.5V435.5ZM49 418V417.5H48.7025L48.5606 417.761L49 418ZM203 418.5C203.276 418.5 203.5 418.276 203.5 418C203.5 417.724 203.276 417.5 203 417.5V418.5ZM312.5 435H39.5V436H312.5V435ZM39.9394 435.739L49.4394 418.239L48.5606 417.761L39.0606 435.261L39.9394 435.739ZM49 418.5H203V417.5H49V418.5Z" fill="#FF98DF"/>
<defs>
<linearGradient id="paint0_linear_565_215" x1="178.39" y1="0" x2="178.39" y2="44" gradientUnits="userSpaceOnUse">
<stop stop-color="#FE01B0"/>
<stop offset="1" stop-color="#FE01B0" stop-opacity="0.35"/>
</linearGradient>
<linearGradient id="paint1_linear_565_215" x1="85.875" y1="39.5003" x2="5.60104" y2="41.1759" gradientUnits="userSpaceOnUse">
<stop stop-color="#FF98DF"/>
<stop offset="1" stop-color="#FF21BB"/>
</linearGradient>
<linearGradient id="paint2_linear_565_215" x1="177.5" y1="100.708" x2="177.5" y2="193.569" gradientUnits="userSpaceOnUse">
<stop stop-color="#FE01B0"/>
<stop offset="1" stop-color="#FE01B0" stop-opacity="0.35"/>
</linearGradient>
<linearGradient id="paint3_linear_565_215" x1="178" y1="440" x2="178" y2="555" gradientUnits="userSpaceOnUse">
<stop stop-color="#FE01B0" stop-opacity="0.63"/>
<stop offset="1" stop-color="#FE01B0" stop-opacity="0"/>
</linearGradient>
</defs>
</svg>
