<svg width="70" height="15" viewBox="0 0 70 15" fill="none" xmlns="http://www.w3.org/2000/svg">
<path d="M7.632 11.48C8.262 10.49 8.316 9.32 8.316 7.484C8.316 5.666 8.262 4.514 7.632 3.524C7.326 2.93 6.66 2.12 5.148 2.12C3.618 2.12 2.952 2.912 2.646 3.506C2.034 4.514 1.98 5.666 1.98 7.484C1.98 9.302 2.034 10.472 2.646 11.462C2.952 12.074 3.618 12.866 5.148 12.866C6.66 12.866 7.326 12.074 7.632 11.48ZM0.918 7.484C0.918 5.828 0.936 4.37 1.674 3.092C2.106 2.21 3.15 1.058 5.148 1.058C7.164 1.058 8.19 2.228 8.64 3.092C9.378 4.37 9.378 5.846 9.378 7.484C9.378 9.176 9.378 10.634 8.64 11.912C8.19 12.794 7.164 13.946 5.148 13.946C3.15 13.946 2.106 12.776 1.674 11.912C0.936 10.616 0.918 9.14 0.918 7.484ZM18.6168 1.202V9.536H20.6328V10.526H18.6168V13.802H17.5548V10.526H11.2188V9.518L17.5548 1.202H18.6168ZM12.5508 9.536H17.5548V2.84L12.5508 9.536ZM27.2032 0.247999L23.4412 14.864H22.3612L26.1412 0.247999H27.2032ZM46.6227 1.004L42.6807 14H41.5287L38.1087 2.84L34.8147 14H33.6627L29.7027 1.004H30.8007L34.2387 12.146L37.5327 1.004H38.6487L42.1227 12.146L45.5067 1.004H46.6227ZM57.16 1.004V2.048H49.978V6.782H56.602V7.844H49.978V12.956H57.16V14H48.88V1.004H57.16ZM63.2391 12.92C66.2091 12.92 68.6211 10.508 68.6211 7.502C68.6211 4.514 66.2091 2.084 63.2391 2.084H60.8991V12.92H63.2391ZM59.8011 14V1.004H63.2391C66.8031 1.004 69.7011 3.92 69.7011 7.502C69.7011 11.084 66.8031 14 63.2391 14H59.8011Z" fill="white"/>
</svg>
