<svg width="75" height="16" viewBox="0 0 75 16" fill="none" xmlns="http://www.w3.org/2000/svg">
<path d="M7.65 10.85C8.154 10.022 8.19 9.032 8.19 7.484C8.19 5.954 8.154 4.982 7.65 4.154C7.38 3.668 6.822 3.002 5.544 3.002C4.266 3.002 3.708 3.65 3.456 4.136C2.934 4.982 2.898 5.954 2.898 7.484C2.898 9.014 2.934 10.004 3.456 10.832C3.708 11.336 4.266 11.984 5.544 11.984C6.822 11.984 7.38 11.336 7.65 10.85ZM0.774 7.484C0.774 5.774 0.792 4.28 1.62 2.948C2.124 2.066 3.294 0.877999 5.544 0.877999C7.794 0.877999 8.964 2.084 9.486 2.948C10.332 4.28 10.332 5.792 10.332 7.484C10.332 9.212 10.332 10.724 9.486 12.056C8.964 12.938 7.794 14.126 5.544 14.126C3.294 14.126 2.124 12.92 1.62 12.056C0.792 10.706 0.774 9.194 0.774 7.484ZM20.1098 1.004V9.104H21.7118V11.138H20.1098V14H18.1118V11.138H11.8658V9.194L18.1118 1.004H20.1098ZM14.2958 9.104H18.1118V4.082L14.2958 9.104ZM29.3408 0.0319996L25.4708 15.08H23.2928L27.1808 0.0319996H29.3408ZM50.6572 0.805999L46.4632 14.198H44.3392L41.3332 4.442L37.9672 14.198H35.8972L31.6312 0.805999H33.8452L37.0132 10.814L40.1452 0.823999H42.4672L45.4732 10.814L48.4432 0.805999H50.6572ZM61.6404 0.805999V2.93H54.6204V6.242H61.0644V8.384H54.6204V12.056H61.6404V14.198H52.4784V0.805999H61.6404ZM67.9965 12.02C70.4805 12.02 72.5145 10.004 72.5145 7.502C72.5145 5 70.4805 2.984 67.9965 2.984H66.0345V12.02H67.9965ZM63.8565 14.198V0.805999H68.0325C71.7045 0.805999 74.7105 3.812 74.7105 7.502C74.7105 11.192 71.7045 14.198 68.0325 14.198H63.8565Z" fill="white"/>
</svg>
