<svg width="357" height="578" viewBox="0 0 357 578" fill="none" xmlns="http://www.w3.org/2000/svg">
<path d="M6 134L6.00003 504" stroke="#FE01B0" stroke-width="6"/>
<path d="M13 66.5L3.25 70.3971L3.25 62.6029L13 66.5Z" fill="#FE01B0"/>
<path d="M13 81L3.25 85.3301L3.25 76.6699L13 81Z" fill="#FE01B0"/>
<path d="M13 96L3.25 100.33L3.25 91.6699L13 96Z" fill="#FE01B0"/>
<path d="M3.25 54.25H125H145H209H236H351.75V576.75H3.25V54.25Z" stroke="#FE01B0" stroke-opacity="0.48" stroke-width="2.5"/>
<path d="M307.602 43.5H2.5V6.5H75.5H75.5296L75.559 6.49651L126.03 0.5H229.607L274.434 6.49559L274.467 6.5H274.5H354.281V21.6818L307.602 43.5Z" fill="url(#paint0_linear_565_215)" fill-opacity="0.64" stroke="#FF98DF"/>
<path d="M341.675 32.0002L342.307 43.6341L312.701 44.9835L341.675 32.0002Z" fill="#FE01B0"/>
<path d="M344.852 29.5462L354.559 23.9112L355 43.9072L345.172 44.0887L344.852 29.5462Z" fill="#FE01B0"/>
<path d="M57.6667 44C57.6667 46.9455 60.0545 49.3333 63 49.3333C65.9455 49.3333 68.3333 46.9455 68.3333 44C68.3333 41.0545 65.9455 38.6667 63 38.6667C60.0545 38.6667 57.6667 41.0545 57.6667 44ZM2 45L63 45L63 43L2 43L2 45Z" fill="url(#paint1_linear_565_215)"/>
<path d="M145.655 101.16L145.755 101.208H145.867H313.158V146.966L277.082 193.069H41.8428V87.668H116.873L145.655 101.16Z" fill="url(#paint2_linear_565_215)" fill-opacity="0.64" stroke="#FF98DF"/>
<path d="M148.118 96.1021L148.222 96.1525H148.337H323.248V147.869L284.716 199.915H33.5859V82.5742H120.323L148.118 96.1021Z" stroke="#FFA3E3"/>
<path d="M238.448 214.676L238.322 214.592H238.172H170.271L157.735 204.32H280.706V224.425H253.137L238.448 214.676Z" fill="#FE01B0" stroke="#FF98DF"/>
<path d="M206.036 87.7059L205.946 87.7423H205.849H166.885L160.38 92.3828H230.314L236.962 82.452L218.3 82.7574L206.036 87.7059Z" stroke="#FF3AC2"/>
<path d="M203.491 421.117L203.429 421.133H203.365H49.8249L44.7696 432.5H306.593L311.384 409.507L245.279 410.207L203.491 421.117Z" stroke="#FF3AC2"/>
<line x1="23.5" y1="147.741" x2="23.5" y2="214.674" stroke="#FF98DF"/>
<line x1="23" y1="214.174" x2="87.1986" y2="214.174" stroke="#FF98DF"/>
<line x1="87.6982" y1="214.674" x2="87.6982" y2="224.925" stroke="#FF98DF"/>
<path d="M81.5543 227.337L84.3763 224.925H90.7256L93.5475 227.337L96.3694 229.749V234.874L93.5475 237.588L90.7256 240H84.0235L81.5543 237.588L78.7324 234.874V229.749L81.5543 227.337Z" fill="#FE01B0"/>
<path d="M31.4658 199.6H78.0275L74.8528 203.821H31.4658V199.6Z" fill="#FF91DD"/>
<path d="M32.877 203.82L32.877 185.73L27.2331 186.964L27.2331 203.82L32.877 203.82Z" fill="#FF98DF"/>
<path d="M243.815 79H252.986L242.756 94.0749H233.232L243.815 79Z" fill="#FE01B0"/>
<path d="M255.103 79H264.274L254.044 94.0749H244.521L255.103 79Z" fill="#FE01B0"/>
<path d="M266.391 79H275.562L265.333 94.0749H255.809L266.391 79Z" fill="#FE01B0"/>
<path d="M277.678 79H286.849L276.62 94.0749H267.096L277.678 79Z" fill="#FE01B0"/>
<path d="M288.966 79H298.137L287.908 94.0749H278.384L288.966 79Z" fill="#FE01B0"/>
<path d="M300.253 79H309.424L299.195 94.0749H289.671L300.253 79Z" fill="#FE01B0"/>
<path d="M311.541 79H320.712L310.483 94.0749H300.959L311.541 79Z" fill="#FE01B0"/>
<path d="M322.828 79H332L321.77 94.0749H312.246L322.828 79Z" fill="#FE01B0"/>
<path d="M350 54L350 424" stroke="#FE01B0" stroke-width="6"/>
<path d="M357 519L347.25 523.33L347.25 514.67L357 519Z" fill="#FE01B0"/>
<path d="M357 535L347.25 539.33L347.25 530.67L357 535Z" fill="#FE01B0"/>
<path d="M357 550L347.25 554.33L347.25 545.67L357 550Z" fill="#FE01B0"/>
<line x1="23.5" y1="150" x2="23.5" y2="529" stroke="#FE01B0" stroke-opacity="0.32"/>
<rect x="38.5" y="440.5" width="279" height="114" rx="4.5" fill="url(#paint3_linear_565_215)" stroke="#FF98DF"/>
<path d="M309.833 435.5C309.833 436.973 311.027 438.167 312.5 438.167C313.973 438.167 315.167 436.973 315.167 435.5C315.167 434.027 313.973 432.833 312.5 432.833C311.027 432.833 309.833 434.027 309.833 435.5ZM39.5 435.5L39.0606 435.261L38.6596 436H39.5V435.5ZM49 418V417.5H48.7025L48.5606 417.761L49 418ZM203 418.5C203.276 418.5 203.5 418.276 203.5 418C203.5 417.724 203.276 417.5 203 417.5V418.5ZM312.5 435H39.5V436H312.5V435ZM39.9394 435.739L49.4394 418.239L48.5606 417.761L39.0606 435.261L39.9394 435.739ZM49 418.5H203V417.5H49V418.5Z" fill="#FF98DF"/>
<path d="M58.9965 167C60.852 167 62.6316 167.737 63.9437 169.049C65.2558 170.361 65.9929 172.141 65.9929 173.996C65.9929 176.953 63.9155 180.175 59.8145 183.697C59.5865 183.893 59.2957 184 58.9951 184C58.6945 184 58.404 183.892 58.1763 183.695L57.905 183.46C53.9856 180.03 52 176.887 52 173.996C52 172.141 52.7371 170.361 54.0492 169.049C55.3613 167.737 57.1409 167 58.9965 167ZM58.9965 168.076C57.4264 168.076 55.9206 168.7 54.8103 169.81C53.7001 170.921 53.0764 172.426 53.0764 173.996C53.0764 176.509 54.9048 179.405 58.6118 182.648L58.8795 182.88C58.912 182.908 58.9535 182.924 58.9965 182.924C59.0394 182.924 59.0809 182.908 59.1134 182.88C62.9999 179.542 64.9165 176.569 64.9165 173.996C64.9165 173.219 64.7634 172.449 64.4659 171.731C64.1684 171.013 63.7323 170.36 63.1826 169.81C62.6329 169.261 61.9802 168.825 61.262 168.527C60.5437 168.23 59.7739 168.076 58.9965 168.076ZM58.9965 171.306C59.7101 171.306 60.3946 171.589 60.8992 172.094C61.4039 172.598 61.6874 173.283 61.6874 173.996C61.6874 174.71 61.4039 175.395 60.8992 175.899C60.3946 176.404 59.7101 176.687 58.9965 176.687C58.2828 176.687 57.5983 176.404 57.0937 175.899C56.589 175.395 56.3055 174.71 56.3055 173.996C56.3055 173.283 56.589 172.598 57.0937 172.094C57.5983 171.589 58.2828 171.306 58.9965 171.306ZM58.9965 172.382C58.5683 172.382 58.1576 172.552 57.8548 172.855C57.552 173.158 57.3819 173.568 57.3819 173.996C57.3819 174.425 57.552 174.835 57.8548 175.138C58.1576 175.441 58.5683 175.611 58.9965 175.611C59.4247 175.611 59.8353 175.441 60.1381 175.138C60.4409 174.835 60.611 174.425 60.611 173.996C60.611 173.568 60.4409 173.158 60.1381 172.855C59.8353 172.552 59.4247 172.382 58.9965 172.382Z" fill="white"/>
<path d="M72.41 174.32H75.98V173.28H73.41V170.38H79.32V170.99H74.16V172.66H79.38V173.28H76.72V174.32H80.31V174.93H72.41V174.32ZM73.36 177.15C73.36 176.15 74.48 175.57 76.35 175.57C78.22 175.57 79.34 176.15 79.34 177.15C79.34 178.16 78.22 178.72 76.35 178.72C74.48 178.72 73.36 178.16 73.36 177.15ZM74.12 177.15C74.12 177.77 74.97 178.13 76.35 178.13C77.73 178.13 78.57 177.77 78.57 177.15C78.57 176.53 77.73 176.18 76.35 176.18C74.97 176.18 74.12 176.53 74.12 177.15ZM81.6202 170.59H85.6102V171.22H82.3702V174.17C84.0202 174.17 84.9802 174.12 86.0902 173.89L86.1902 174.5C85.0102 174.73 84.0102 174.78 82.2702 174.78H81.6202V170.59ZM82.5002 176.29V175.67H88.3302V178.75H87.5702V176.29H82.5002ZM85.0802 172.87V172.26H87.5702V169.97H88.3302V175.21H87.5702V172.87H85.0802ZM92.2205 170.66C93.0205 170.66 93.6805 171.13 94.0605 171.95H96.3305V169.97H97.0805V178.75H96.3305V175.35H94.1005C93.7405 176.23 93.0605 176.75 92.2205 176.75C90.9505 176.75 90.0505 175.56 90.0505 173.7C90.0505 171.84 90.9505 170.66 92.2205 170.66ZM90.7605 173.7C90.7605 175.14 91.3605 176.08 92.2205 176.08C93.0705 176.08 93.6705 175.14 93.6705 173.7C93.6705 172.27 93.0705 171.34 92.2205 171.34C91.3605 171.34 90.7605 172.27 90.7605 173.7ZM94.2705 172.57C94.3605 172.91 94.4005 173.29 94.4005 173.7C94.4005 174.07 94.3605 174.41 94.3005 174.72H96.3305V172.57H94.2705ZM98.7907 170.88H103.501V171.52H101.551V172.68C101.551 174.08 102.561 175.63 103.811 176.24L103.371 176.84C102.401 176.35 101.571 175.31 101.181 174.13C100.781 175.41 99.9107 176.54 98.9307 177.06L98.4807 176.45C99.7107 175.84 100.801 174.18 100.801 172.68V171.52H98.7907V170.88ZM104.571 178.75V169.98H105.331V173.53H106.781V174.18H105.331V178.75H104.571ZM114.061 169.97H114.791V178.74H114.061V174.14H112.781V178.28H112.071V170.18H112.781V173.5H114.061V169.97ZM107.691 176.56V171.06H110.941V171.67H108.441V175.92C109.631 175.92 110.471 175.88 111.431 175.66L111.511 176.3C110.461 176.52 109.581 176.56 108.261 176.56H107.691ZM116.131 170.92H118.321V169.93H119.091V170.92H121.301V171.54H116.131V170.92ZM116.611 173.59C116.611 172.63 117.461 172.01 118.711 172.01C119.951 172.01 120.801 172.63 120.801 173.59C120.801 174.54 119.951 175.15 118.711 175.15C117.461 175.15 116.611 174.54 116.611 173.59ZM117.211 176.56V175.94H122.881V178.75H122.121V176.56H117.211ZM117.341 173.59C117.341 174.18 117.891 174.56 118.711 174.56C119.521 174.56 120.071 174.18 120.071 173.59C120.071 172.99 119.521 172.61 118.711 172.61C117.891 172.61 117.341 172.99 117.341 173.59ZM122.121 175.45V169.99H122.881V172.41H124.181V173.05H122.881V175.45H122.121ZM125.661 170.88H131.801V171.85C131.801 172.97 131.801 174.1 131.501 175.73L130.751 175.63C131.051 174.09 131.051 172.95 131.051 171.85V171.5H125.661V170.88ZM124.841 177.49V176.87H126.811V173.96H127.561V176.87H128.971V173.96H129.721V176.87H132.751V177.49H124.841ZM135.896 174.32H139.466V173.28H136.896V170.38H142.806V170.99H137.646V172.66H142.866V173.28H140.206V174.32H143.796V174.93H135.896V174.32ZM136.846 177.15C136.846 176.15 137.966 175.57 139.836 175.57C141.706 175.57 142.826 176.15 142.826 177.15C142.826 178.16 141.706 178.72 139.836 178.72C137.966 178.72 136.846 178.16 136.846 177.15ZM137.606 177.15C137.606 177.77 138.456 178.13 139.836 178.13C141.216 178.13 142.056 177.77 142.056 177.15C142.056 176.53 141.216 176.18 139.836 176.18C138.456 176.18 137.606 176.53 137.606 177.15ZM151.027 169.99H151.787V176.39H151.027V169.99ZM144.837 172.75C144.837 171.49 145.817 170.6 147.107 170.6C148.417 170.6 149.387 171.49 149.387 172.75C149.387 174.01 148.417 174.9 147.107 174.9C145.817 174.9 144.837 174.01 144.837 172.75ZM145.577 172.75C145.577 173.62 146.237 174.24 147.107 174.24C147.987 174.24 148.647 173.62 148.647 172.75C148.647 171.88 147.987 171.26 147.107 171.26C146.237 171.26 145.577 171.88 145.577 172.75ZM146.197 178.54V175.74H146.947V177.91H152.067V178.54H146.197ZM153.847 170.66H158.167V171.13C158.167 171.68 158.167 172.56 157.947 173.71L157.197 173.63C157.407 172.59 157.427 171.83 157.427 171.29H153.847V170.66ZM153.307 174.53C153.867 174.53 154.517 174.53 155.187 174.51V172.61H155.937V174.49C156.907 174.45 157.897 174.38 158.797 174.25L158.857 174.82C157.037 175.12 154.937 175.16 153.407 175.17L153.307 174.53ZM154.657 178.54V175.98H155.417V177.91H160.437V178.54H154.657ZM159.397 176.57V169.98H160.167V172.85H161.437V173.49H160.167V176.57H159.397ZM170.432 169.97H171.192V172.26H172.492V172.91H171.192V175.23H170.432V169.97ZM164.432 174.63C166.522 174.02 167.872 172.78 168.022 171.26H164.802V170.63H168.832C168.832 172.86 167.272 174.5 164.752 175.25L164.432 174.63ZM165.612 177.03C165.612 175.98 166.732 175.34 168.462 175.34C170.182 175.34 171.292 175.98 171.292 177.03C171.292 178.08 170.182 178.72 168.462 178.72C166.732 178.72 165.612 178.08 165.612 177.03ZM166.352 177.03C166.352 177.69 167.182 178.1 168.462 178.1C169.732 178.1 170.552 177.69 170.552 177.03C170.552 176.36 169.732 175.95 168.462 175.95C167.182 175.95 166.352 176.36 166.352 177.03ZM179.172 169.97H179.942V172.28H181.232V172.92H179.942V175.2H179.172V169.97ZM173.542 174.48V170.65H177.402V171.29H174.292V173.85C176.052 173.85 177.062 173.8 178.232 173.56L178.312 174.18C177.092 174.42 176.052 174.48 174.212 174.48H173.542ZM174.272 177.05C174.272 176.01 175.372 175.38 177.142 175.38C178.922 175.38 180.012 176.01 180.012 177.05C180.012 178.1 178.922 178.73 177.142 178.73C175.372 178.73 174.272 178.1 174.272 177.05ZM175.022 177.05C175.022 177.7 175.832 178.1 177.142 178.1C178.452 178.1 179.272 177.7 179.272 177.05C179.272 176.38 178.452 176 177.142 176C175.832 176 175.022 176.38 175.022 177.05Z" fill="white"/>
<path d="M52.564 102.88V101.572L56.212 98.152C56.332 98.032 56.476 97.864 56.536 97.732C56.86 97.024 56.608 96.148 55.828 95.812C55.06 95.476 54.088 95.788 53.836 96.592L52.516 96.328C53.032 94.468 54.976 93.976 56.356 94.588C57.772 95.152 58.42 96.832 57.784 98.296C57.652 98.572 57.436 98.908 57.136 99.16L54.628 101.5H58.108V102.88H52.564ZM63.7211 100.9C64.0571 100.348 64.0811 99.688 64.0811 98.656C64.0811 97.636 64.0571 96.988 63.7211 96.436C63.5411 96.112 63.1691 95.668 62.3171 95.668C61.4651 95.668 61.0931 96.1 60.9251 96.424C60.5771 96.988 60.5531 97.636 60.5531 98.656C60.5531 99.676 60.5771 100.336 60.9251 100.888C61.0931 101.224 61.4651 101.656 62.3171 101.656C63.1691 101.656 63.5411 101.224 63.7211 100.9ZM59.1371 98.656C59.1371 97.516 59.1491 96.52 59.7011 95.632C60.0371 95.044 60.8171 94.252 62.3171 94.252C63.8171 94.252 64.5971 95.056 64.9451 95.632C65.5091 96.52 65.5091 97.528 65.5091 98.656C65.5091 99.808 65.5091 100.816 64.9451 101.704C64.5971 102.292 63.8171 103.084 62.3171 103.084C60.8171 103.084 60.0371 102.28 59.7011 101.704C59.1491 100.804 59.1371 99.796 59.1371 98.656ZM67.0956 96.208H68.5716V97.636H67.0956V96.208ZM67.0956 101.404V99.976H68.5716V101.404H67.0956ZM74.7484 100.9C75.0844 100.348 75.1084 99.688 75.1084 98.656C75.1084 97.636 75.0844 96.988 74.7484 96.436C74.5684 96.112 74.1964 95.668 73.3444 95.668C72.4924 95.668 72.1204 96.1 71.9524 96.424C71.6044 96.988 71.5804 97.636 71.5804 98.656C71.5804 99.676 71.6044 100.336 71.9524 100.888C72.1204 101.224 72.4924 101.656 73.3444 101.656C74.1964 101.656 74.5684 101.224 74.7484 100.9ZM70.1644 98.656C70.1644 97.516 70.1764 96.52 70.7284 95.632C71.0644 95.044 71.8444 94.252 73.3444 94.252C74.8444 94.252 75.6244 95.056 75.9724 95.632C76.5364 96.52 76.5364 97.528 76.5364 98.656C76.5364 99.808 76.5364 100.816 75.9724 101.704C75.6244 102.292 74.8444 103.084 73.3444 103.084C71.8444 103.084 71.0644 102.28 70.7284 101.704C70.1764 100.804 70.1644 99.796 70.1644 98.656ZM82.143 100.9C82.479 100.348 82.503 99.688 82.503 98.656C82.503 97.636 82.479 96.988 82.143 96.436C81.963 96.112 81.591 95.668 80.739 95.668C79.887 95.668 79.515 96.1 79.347 96.424C78.999 96.988 78.975 97.636 78.975 98.656C78.975 99.676 78.999 100.336 79.347 100.888C79.515 101.224 79.887 101.656 80.739 101.656C81.591 101.656 81.963 101.224 82.143 100.9ZM77.559 98.656C77.559 97.516 77.571 96.52 78.123 95.632C78.459 95.044 79.239 94.252 80.739 94.252C82.239 94.252 83.019 95.056 83.367 95.632C83.931 96.52 83.931 97.528 83.931 98.656C83.931 99.808 83.931 100.816 83.367 101.704C83.019 102.292 82.239 103.084 80.739 103.084C79.239 103.084 78.459 102.28 78.123 101.704C77.571 100.804 77.559 99.796 77.559 98.656ZM85.2175 98.692C85.6255 97.516 86.6335 97.096 87.3535 97.084C87.8935 97.084 88.4335 97.336 88.6375 97.456L89.0935 97.696L89.2495 97.804L89.6575 98.008C89.8015 98.08 89.9095 98.2 90.2095 98.2C90.4375 98.2 90.9055 98.044 91.0855 97.492L92.5015 97.972C92.0695 99.268 90.7615 99.688 90.2095 99.688C89.6935 99.688 89.0335 99.376 88.9855 99.352L88.4815 99.1L88.3015 98.968L87.8935 98.752C87.7255 98.644 87.6535 98.584 87.3535 98.572C87.0895 98.584 86.8015 98.668 86.6335 99.172L85.2175 98.692ZM93.8726 102.88V101.572L97.5206 98.152C97.6406 98.032 97.7846 97.864 97.8446 97.732C98.1686 97.024 97.9166 96.148 97.1366 95.812C96.3686 95.476 95.3966 95.788 95.1446 96.592L93.8246 96.328C94.3406 94.468 96.2846 93.976 97.6646 94.588C99.0806 95.152 99.7286 96.832 99.0926 98.296C98.9606 98.572 98.7446 98.908 98.4446 99.16L95.9366 101.5H99.4166V102.88H93.8726ZM103.59 94.336V103H102.186V95.908L100.926 96.532L100.35 95.284L102.186 94.336H103.59ZM105.568 96.208H107.044V97.636H105.568V96.208ZM105.568 101.404V99.976H107.044V101.404H105.568ZM113.221 100.9C113.557 100.348 113.581 99.688 113.581 98.656C113.581 97.636 113.557 96.988 113.221 96.436C113.041 96.112 112.669 95.668 111.817 95.668C110.965 95.668 110.593 96.1 110.425 96.424C110.077 96.988 110.053 97.636 110.053 98.656C110.053 99.676 110.077 100.336 110.425 100.888C110.593 101.224 110.965 101.656 111.817 101.656C112.669 101.656 113.041 101.224 113.221 100.9ZM108.637 98.656C108.637 97.516 108.649 96.52 109.201 95.632C109.537 95.044 110.317 94.252 111.817 94.252C113.317 94.252 114.097 95.056 114.445 95.632C115.009 96.52 115.009 97.528 115.009 98.656C115.009 99.808 115.009 100.816 114.445 101.704C114.097 102.292 113.317 103.084 111.817 103.084C110.317 103.084 109.537 102.28 109.201 101.704C108.649 100.804 108.637 99.796 108.637 98.656ZM120.616 100.9C120.952 100.348 120.976 99.688 120.976 98.656C120.976 97.636 120.952 96.988 120.616 96.436C120.436 96.112 120.064 95.668 119.212 95.668C118.36 95.668 117.988 96.1 117.82 96.424C117.472 96.988 117.448 97.636 117.448 98.656C117.448 99.676 117.472 100.336 117.82 100.888C117.988 101.224 118.36 101.656 119.212 101.656C120.064 101.656 120.436 101.224 120.616 100.9ZM116.032 98.656C116.032 97.516 116.044 96.52 116.596 95.632C116.932 95.044 117.712 94.252 119.212 94.252C120.712 94.252 121.492 95.056 121.84 95.632C122.404 96.52 122.404 97.528 122.404 98.656C122.404 99.808 122.404 100.816 121.84 101.704C121.492 102.292 120.712 103.084 119.212 103.084C117.712 103.084 116.932 102.28 116.596 101.704C116.044 100.804 116.032 99.796 116.032 98.656Z" fill="white"/>
<path d="M63.54 126H75.96V128H66.02V132.8H76.1V134.78H70.94V138.62H77.86V140.66H61.62V138.62H68.48V134.78H63.54V126ZM88.7005 129.44H91.6005V124.76H94.1005V137.84H91.6005V131.42H88.7005V129.44ZM79.0405 133.88C81.9605 132.9 83.2805 130.56 83.2805 128.24V127.98H79.7205V126H89.3405V127.98H85.8205V128.24C85.8205 130.38 87.0805 132.6 89.9005 133.54L88.6805 135.48C86.7205 134.82 85.3605 133.52 84.6005 131.88C83.8205 133.68 82.3805 135.14 80.2805 135.84L79.0405 133.88ZM82.3005 142.36V136.74H84.8005V140.36H94.5005V142.36H82.3005ZM101.061 125.62L100.701 137H98.3809L97.9609 125.62H101.061ZM98.2809 141.4V138.96H100.801V141.4H98.2809ZM115.14 130.98H117.6V133.18H124.52V135.14H108.28V133.18H115.14V130.98ZM109.12 130.12C113.06 129.62 115.1 127.58 115.1 125.56V124.98H117.64V125.56C117.64 127.66 119.64 129.62 123.62 130.12L122.72 132.06C119.72 131.6 117.5 130.36 116.36 128.58C115.22 130.34 113.04 131.62 110.04 132.06L109.12 130.12ZM110.2 142.48V136.44H122.58V142.48H110.2ZM112.62 140.52H120.12V138.42H112.62V140.52ZM125.8 133.62H142V135.62H125.8V133.62ZM127.72 142.34V137.02H130.2V140.36H140.34V142.34H127.72ZM127.76 132.12V125.42H140.06V127.38H130.24V130.14H140.22V132.12H127.76ZM156.161 124.76H158.501V134H156.161V124.76ZM143.901 133.42V125.76H146.241V127.74H148.681V125.76H150.961V128.54H152.541V125.08H154.861V133.92H152.541V130.5H150.961V133.42H143.901ZM146.241 131.52H148.681V129.56H146.241V131.52ZM146.361 136.66V134.74H158.501V139.5H148.901V140.66H159.121V142.56H146.401V137.7H156.041V136.66H146.361ZM165.682 135.232H172.206V136.45H165.682V135.232ZM177.401 130.416H182.875V131.452H178.675V134.49C180.999 134.476 182.413 134.392 184.009 134.056L184.149 135.078C182.427 135.442 180.943 135.512 178.381 135.512H177.401V130.416ZM178.591 137.556V136.52H186.515V139.656H179.879V140.888H186.921V141.91H178.619V138.676H185.241V137.556H178.591ZM185.227 135.918V129.716H186.515V132.264H188.279V133.328H186.515V135.918H185.227ZM197.365 129.702H198.667V134.574H200.585V135.666H198.667V142.078H197.365V129.702ZM189.581 138.97V130.92H190.869V137.892C192.591 137.878 194.369 137.738 196.301 137.346L196.455 138.424C194.369 138.844 192.451 138.97 190.589 138.97H189.581ZM209.616 129.702H210.904V134.56H212.85V135.652H210.904V142.106H209.616V129.702ZM201.846 131.9V130.836H207.432V135.372H203.134V138.074C205.248 138.074 206.83 137.99 208.608 137.654L208.734 138.704C206.816 139.054 205.164 139.152 202.854 139.152H201.86V134.322H206.172V131.9H201.846ZM217.168 131.186H219.828V129.674H221.116V131.186H223.776V132.222H221.116V132.39C221.116 133.874 222.236 135.26 224.084 135.792L223.468 136.8C222.068 136.366 221.046 135.47 220.5 134.322C219.968 135.582 218.89 136.576 217.448 137.038L216.818 136.03C218.708 135.456 219.828 134 219.828 132.39V132.222H217.168V131.186ZM218.372 138.928V137.878H226.45V142.092H225.162V138.928H218.372ZM225.162 137.262V129.73H226.45V132.95H228.214V134.028H226.45V137.262H225.162ZM229.069 136.212H240.255V137.248H237.315V138.564H238.911V142.092H237.623V139.586H230.315V138.564H231.995V137.248H229.069V136.212ZM230.483 131.018V130.024H238.841V133.09H231.771V134.252H239.093V135.246H230.497V132.152H237.567V131.018H230.483ZM233.283 138.564H236.027V137.248H233.283V138.564ZM253.828 129.716H255.06V142.078H253.828V135.694H252.232V141.448H251.028V129.982H252.232V134.63H253.828V129.716ZM244.966 139.096V131.214H249.544V132.25H246.24V138.018C247.738 138.004 248.886 137.948 250.188 137.668L250.314 138.746C248.83 139.04 247.556 139.096 245.792 139.096H244.966ZM257.048 130.556H263.684V131.606H261.038V131.928C261.038 133.524 262.13 135.022 263.978 135.666L263.334 136.688C261.962 136.212 260.94 135.232 260.408 134.014C259.862 135.344 258.798 136.394 257.37 136.898L256.684 135.904C258.588 135.246 259.75 133.636 259.75 131.928V131.606H257.048V130.556ZM258.308 138.844V137.78H266.4V142.092H265.098V138.844H258.308ZM265.098 137.164V129.73H266.4V132.908H268.164V134H266.4V137.164H265.098ZM275.57 133.09H277.922V129.73H279.224V138.774H277.922V134.14H275.57V133.09ZM269.032 136.226C270.908 135.568 272.084 133.958 272.084 132.222V131.732H269.41V130.696H276.018V131.732H273.386V132.222C273.386 133.79 274.492 135.33 276.326 135.96L275.696 136.982C274.324 136.492 273.302 135.498 272.77 134.266C272.238 135.638 271.16 136.73 269.69 137.262L269.032 136.226ZM271.258 141.826V137.99H272.56V140.762H279.546V141.826H271.258Z" fill="white"/>
<path d="M237.76 415.832H239.26V416.936C239.26 418.244 240.004 419.504 241.684 420.032L240.916 421.196C239.776 420.8 238.984 420.068 238.528 419.12C238.072 420.212 237.232 421.076 236.008 421.496L235.216 420.32C236.992 419.72 237.76 418.28 237.76 416.804V415.832ZM236.692 423.944C236.692 422.648 238.084 421.88 240.316 421.88C242.548 421.88 243.952 422.648 243.952 423.944C243.952 425.24 242.548 426.02 240.316 426.02C238.084 426.02 236.692 425.24 236.692 423.944ZM238.168 423.944C238.168 424.556 238.936 424.856 240.316 424.856C241.72 424.856 242.476 424.556 242.476 423.944C242.476 423.332 241.72 423.032 240.316 423.032C238.936 423.032 238.168 423.332 238.168 423.944ZM242.332 421.628V415.256H243.832V417.776H245.272V419.012H243.832V421.628H242.332ZM248.512 416.084H250.024V417.692C250.024 419.684 250.912 421.652 252.724 422.432L251.848 423.644C250.624 423.068 249.772 421.988 249.292 420.656C248.812 422.108 247.936 423.272 246.64 423.884L245.74 422.66C247.588 421.844 248.512 419.78 248.512 417.692V416.084ZM253.288 426.032V415.232H254.788V426.032H253.288ZM259.114 420.5H268.858V421.688H264.826V423.548H263.314V421.688H259.114V420.5ZM260.134 417.68C260.134 416.312 261.658 415.46 263.974 415.46C266.29 415.46 267.826 416.312 267.826 417.68C267.826 419.048 266.29 419.9 263.974 419.9C261.658 419.9 260.134 419.048 260.134 417.68ZM260.266 425.816V422.612H261.766V424.616H267.79V425.816H260.266ZM261.718 417.68C261.718 418.364 262.594 418.724 263.974 418.724C265.366 418.724 266.23 418.364 266.23 417.68C266.23 416.996 265.366 416.648 263.974 416.648C262.594 416.648 261.718 416.996 261.718 417.68ZM272.578 415.832C273.43 415.832 274.174 416.144 274.69 416.672H277.102V415.256H278.602V421.556H277.102V420.26H274.678C274.162 420.776 273.418 421.076 272.578 421.076C270.97 421.076 269.746 419.984 269.746 418.46C269.746 416.936 270.97 415.832 272.578 415.832ZM271.162 418.46C271.162 419.312 271.762 419.828 272.578 419.828C273.394 419.828 273.994 419.312 273.994 418.46C273.994 417.596 273.394 417.092 272.578 417.092C271.762 417.092 271.162 417.596 271.162 418.46ZM271.294 423.896C271.294 422.576 272.698 421.784 274.966 421.784C277.222 421.784 278.638 422.576 278.638 423.896C278.638 425.228 277.222 426.02 274.966 426.02C272.698 426.02 271.294 425.228 271.294 423.896ZM272.758 423.896C272.758 424.532 273.538 424.856 274.966 424.856C276.394 424.856 277.162 424.532 277.162 423.896C277.162 423.248 276.394 422.936 274.966 422.936C273.538 422.936 272.758 423.248 272.758 423.896ZM275.338 419.06H277.102V417.86H275.338C275.386 418.052 275.41 418.256 275.41 418.46C275.41 418.664 275.386 418.868 275.338 419.06ZM282.856 421.46H292.6V422.636H288.424V426.02H286.936V422.636H282.856V421.46ZM283.972 420.416V415.664H285.448V416.9H289.972V415.664H291.436V420.416H283.972ZM285.448 419.216H289.972V418.076H285.448V419.216ZM297.365 415.88H298.949V416.672C298.949 418.268 300.353 419.936 302.741 420.344L302.093 421.592C300.233 421.22 298.853 420.164 298.157 418.784C297.473 420.164 296.093 421.22 294.245 421.592L293.609 420.344C295.973 419.936 297.365 418.244 297.365 416.672V415.88ZM293.345 424.688V423.476H303.089V424.688H293.345Z" fill="white"/>
<path d="M69.7952 453.61C71.0952 453.61 72.0252 454.8 72.0252 456.7C72.0252 458.59 71.0952 459.8 69.7952 459.8C68.4852 459.8 67.5452 458.59 67.5452 456.7C67.5452 454.8 68.4852 453.61 69.7952 453.61ZM68.4352 456.7C68.4352 458.11 68.9852 458.98 69.7952 458.98C70.5952 458.98 71.1452 458.11 71.1452 456.7C71.1452 455.3 70.5952 454.44 69.7952 454.44C68.9852 454.44 68.4352 455.3 68.4352 456.7ZM73.3352 461.78V452.95H74.2552V456.42H75.6452V457.19H74.2552V461.78H73.3352ZM76.1854 459.93H84.1754V460.7H76.1854V459.93ZM77.1454 454.35V453.59H83.2154V456.34H78.0754V457.67H83.4254V458.41H77.1654V455.61H82.3054V454.35H77.1454ZM88.5757 456.26H89.7657V453.15H90.6357V461.33H89.7657V457.01H88.5757V456.26ZM85.2457 459.69V453.98H88.5157V454.73H86.1157V456.37H88.1257V457.09H86.1157V458.95C87.2757 458.94 88.0257 458.91 88.9157 458.73L89.0057 459.48C88.0057 459.66 87.1657 459.69 85.8157 459.69H85.2457ZM91.5657 461.77V452.94H92.4457V461.77H91.5657ZM94.1559 453.79H98.2559V459.58H94.1559V453.79ZM95.0559 458.84H97.3659V454.53H95.0559V458.84ZM99.9859 461.79V452.93H100.906V461.79H99.9859ZM105.926 455.99H106.836V457.2H110.386V457.95H102.406V457.2H105.926V455.99ZM102.866 455.75C104.536 455.52 105.916 454.53 105.916 453.41V453.05H106.846V453.41C106.846 454.54 108.226 455.52 109.906 455.75L109.566 456.47C108.176 456.24 106.946 455.58 106.386 454.61C105.826 455.58 104.606 456.25 103.206 456.47L102.866 455.75ZM103.376 461.65V458.75H109.416V461.65H103.376ZM104.266 460.92H108.506V459.5H104.266V460.92ZM128.99 452.93H129.92V461.79H128.99V452.93ZM122.98 456.7C122.98 454.8 123.93 453.61 125.24 453.61C126.55 453.61 127.51 454.8 127.51 456.7C127.51 458.59 126.55 459.8 125.24 459.8C123.93 459.8 122.98 458.59 122.98 456.7ZM123.87 456.7C123.87 458.11 124.43 458.98 125.24 458.98C126.06 458.98 126.62 458.11 126.62 456.7C126.62 455.3 126.06 454.44 125.24 454.44C124.43 454.44 123.87 455.3 123.87 456.7ZM137.99 452.95H138.86V459.63H137.99V452.95ZM131.78 458V453.64H132.65V455.1H134.35V453.64H135.21V455.47H136.28V453.12H137.15V459.37H136.28V456.23H135.21V458H131.78ZM132.65 457.26H134.35V455.81H132.65V457.26ZM133.07 461.59V458.75H133.98V460.83H139.12V461.59H133.07ZM141.16 453.68H147.16V454.43H142.08V455.63H146.97V456.37H142.08V457.65H147.25V458.39H141.16V453.68ZM140.15 460.68V459.91H148.14V460.68H140.15ZM151.745 453.73H156.055V454.48H152.645V456.2H155.725V456.93H152.645V458.93C154.175 458.93 155.295 458.87 156.595 458.65L156.685 459.4C155.295 459.64 154.115 459.68 152.455 459.68H151.745V453.73ZM157.545 461.78V452.95H158.465V461.78H157.545ZM166.555 452.95H167.435V458.92H166.555V452.95ZM159.975 458.01C161.195 457.49 161.975 456.83 162.435 456.03L160.135 456.27L159.995 455.51L162.735 455.34C162.825 455.05 162.885 454.74 162.915 454.42H160.405V453.67H163.835C163.835 454.32 163.755 454.94 163.575 455.5H164.795V453.1H165.665V458.13H164.795V456.25H163.265C162.745 457.25 161.835 458.07 160.425 458.68L159.975 458.01ZM161.025 461.01C162.675 460.77 163.985 459.78 163.985 458.65V458.41H164.915V458.65C164.915 459.78 166.225 460.77 167.875 461.01L167.525 461.74C166.165 461.51 164.995 460.83 164.445 459.87C163.905 460.83 162.735 461.51 161.385 461.74L161.025 461.01ZM183.669 453.53H184.639V454.2C184.639 455.66 186.169 457 187.829 457.3L187.419 458.07C186.019 457.77 184.729 456.84 184.159 455.6C183.589 456.84 182.299 457.77 180.909 458.07L180.509 457.3C182.149 457 183.669 455.64 183.669 454.2V453.53ZM180.199 460.61V459.86H188.189V460.61H180.199ZM189.299 453.5H192.729V454.24H190.189V455.22H192.629V455.93H190.189V456.99C191.359 456.98 192.139 456.94 193.039 456.77L193.119 457.5C192.109 457.7 191.259 457.72 189.879 457.72H189.299V453.5ZM190.559 461.65V458.58H196.399V461.65H190.559ZM191.459 460.92H195.509V459.3H191.459V460.92ZM193.589 458.06V453.12H194.459V455.16H195.519V452.95H196.399V458.16H195.519V455.92H194.459V458.06H193.589ZM197.68 459.91H205.67V460.67H197.68V459.91ZM198.36 454.55V453.8H204.95V454.55H203.62V457.51H204.93V458.26H198.38V457.51H199.69V454.55H198.36ZM200.61 457.51H202.7V454.55H200.61V457.51ZM208.714 458.26H216.704V459.02H213.164V461.78H212.254V459.02H208.714V458.26ZM209.764 457.42V453.34H215.734V454.07H210.674V454.99H215.534V455.71H210.674V456.68H215.834V457.42H209.764ZM219.845 453.61C221.035 453.61 221.915 454.62 222.045 456.27H223.855V452.93H224.775V461.79H223.855V457.01H222.055C221.965 458.72 221.065 459.8 219.845 459.8C218.555 459.8 217.625 458.59 217.625 456.7C217.625 454.8 218.555 453.61 219.845 453.61ZM218.495 456.7C218.495 458.11 219.045 458.98 219.845 458.98C220.635 458.98 221.175 458.11 221.175 456.7C221.175 455.3 220.635 454.44 219.845 454.44C219.045 454.44 218.495 455.3 218.495 456.7ZM242.848 453.74V454.6H239.028V456.95H242.348V457.82H239.028V461.04H238.138V453.74H242.848ZM243.857 453.54H244.737V461.04H243.857V453.54ZM249.581 457.96C249.381 457.18 249.041 456.71 248.141 456.71C247.241 456.71 246.761 457.22 246.571 457.96H249.581ZM245.671 458.46C245.671 457.05 246.541 455.86 248.121 455.86C249.781 455.86 250.211 457.15 250.251 457.26C250.561 457.99 250.451 458.78 250.451 458.78H246.541C246.671 459.63 247.151 460.24 248.131 460.24C249.231 460.24 249.461 459.55 249.461 459.55L250.211 459.91C250.211 459.91 249.771 461.06 248.121 461.06C246.541 461.06 245.671 459.87 245.671 458.46ZM253.894 460.25C254.744 460.25 255.484 459.5 255.494 458.51C255.484 457.51 254.744 456.76 253.894 456.76C252.834 456.76 252.294 457.52 252.294 458.51C252.294 459.5 252.834 460.25 253.894 460.25ZM251.404 458.51C251.404 457.1 252.284 455.91 253.854 455.91C254.434 455.91 255.074 456.21 255.514 456.89V455.88H256.394V461.03H255.514V460.12C255.054 460.83 254.444 461.11 253.854 461.11C252.284 461.11 251.404 459.9 251.404 458.51ZM257.784 456.88H262.444V457.75H257.784V456.88ZM267.42 458.08C267.42 457.38 266.98 456.79 266.13 456.79C265.31 456.79 264.7 457.39 264.7 458.08V461.03H263.82V455.88H264.7V456.71C265.03 456.13 265.56 455.88 266.19 455.88C267.39 455.88 268.3 456.72 268.3 457.98V461.03H267.42V458.08ZM273.126 457.96C272.926 457.18 272.586 456.71 271.686 456.71C270.786 456.71 270.306 457.22 270.116 457.96H273.126ZM269.216 458.46C269.216 457.05 270.086 455.86 271.666 455.86C273.326 455.86 273.756 457.15 273.796 457.26C274.106 457.99 273.996 458.78 273.996 458.78H270.086C270.216 459.63 270.696 460.24 271.676 460.24C272.776 460.24 273.006 459.55 273.006 459.55L273.756 459.91C273.756 459.91 273.316 461.06 271.666 461.06C270.086 461.06 269.216 459.87 269.216 458.46ZM277.826 460.63C277.586 460.84 277.246 461.02 276.826 461.02C276.026 461.02 275.356 460.35 275.356 459.54V456.63H274.506V455.79H275.356V454.17H276.256V455.79H277.516V456.63H276.256V459.54C276.256 459.91 276.466 460.12 276.826 460.12C277.006 460.12 277.086 460.08 277.226 459.95L277.826 460.63ZM283.578 460.15C285.088 460.15 286.328 458.91 286.328 457.39C286.328 455.87 285.088 454.63 283.578 454.63H282.378V460.15H283.578ZM281.488 461.04V453.74H283.578C285.578 453.74 287.218 455.38 287.218 457.39C287.218 459.4 285.578 461.04 283.578 461.04H281.488ZM69.9647 476.96H77.9547V477.72H74.3847V480.77H73.4747V477.72H69.9647V476.96ZM70.8347 474.23C70.8347 473.04 72.0847 472.29 73.9347 472.29C75.7947 472.29 77.0447 473.04 77.0447 474.23C77.0447 475.42 75.7947 476.18 73.9347 476.18C72.0847 476.18 70.8347 475.42 70.8347 474.23ZM71.7747 474.23C71.7747 474.97 72.6447 475.43 73.9347 475.43C75.2447 475.43 76.1047 474.97 76.1047 474.23C76.1047 473.49 75.2447 473.02 73.9347 473.02C72.6447 473.02 71.7747 473.49 71.7747 474.23ZM78.705 476.92H86.685V477.68H83.125V480.77H82.215V477.68H78.705V476.92ZM79.155 475.52C80.795 475.29 82.165 474.3 82.185 473.2H79.435V472.47H85.925V473.2H83.205C83.225 474.3 84.595 475.29 86.235 475.52L85.895 476.25C84.475 476.02 83.235 475.3 82.695 474.29C82.165 475.3 80.915 476.02 79.505 476.25L79.155 475.52ZM89.7499 476.34H93.2699V475.05H94.1799V476.34H97.7399V477.08H89.7499V476.34ZM90.2099 474.79C91.8799 474.57 93.2599 473.58 93.2599 472.45V472.09H94.1899V472.45C94.1899 473.59 95.5699 474.57 97.2499 474.79L96.9099 475.52C95.5199 475.29 94.2899 474.62 93.7299 473.65C93.1699 474.63 91.9499 475.3 90.5499 475.52L90.2099 474.79ZM90.6399 478.62V477.89H96.7499V480.78H95.8199V478.62H90.6399ZM101.095 472.83H106.035V473.6H104.025V474.56C104.025 476.04 104.995 477.56 106.335 478.14L105.815 478.87C104.795 478.41 103.975 477.42 103.565 476.24C103.165 477.5 102.345 478.59 101.325 479.09L100.795 478.36C102.115 477.74 103.095 476.08 103.095 474.56V473.6H101.095V472.83ZM107.125 480.78V471.95H108.045V480.78H107.125ZM110.525 472.5H116.495V473.27C116.495 474.11 116.495 475.02 116.255 476.29H117.515V477.03H113.965V480.77H113.035V477.03H109.535V476.29H115.325C115.595 475.03 115.595 474.1 115.595 473.27V473.23H110.525V472.5ZM118.275 476.02H126.265V476.7H118.275V476.02ZM119.215 478V477.35H125.275V479.28H120.135V480.02H125.545V480.66H119.235V478.66H124.375V478H119.215ZM119.285 472.82V472.18H125.255V474.08H120.205V474.76H125.415V475.42H119.295V473.46H124.345V472.82H119.285ZM135.26 471.94H136.19V474.04H137.45V474.8H136.19V476.88H135.26V471.94ZM129.72 476.29V472.44H130.63V475.52C131.8 475.51 133.04 475.41 134.39 475.14L134.5 475.9C133.02 476.21 131.71 476.29 130.42 476.29H129.72ZM130.26 478.09V477.34H133.02V480.78H132.11V478.09H130.26ZM133.43 478.09V477.34H136.19V480.78H135.27V478.09H133.43ZM140.41 472.61C141.71 472.61 142.64 473.8 142.64 475.7C142.64 477.59 141.71 478.8 140.41 478.8C139.1 478.8 138.16 477.59 138.16 475.7C138.16 473.8 139.1 472.61 140.41 472.61ZM139.05 475.7C139.05 477.11 139.6 477.98 140.41 477.98C141.21 477.98 141.76 477.11 141.76 475.7C141.76 474.3 141.21 473.44 140.41 473.44C139.6 473.44 139.05 474.3 139.05 475.7ZM143.95 480.78V471.95H144.87V475.42H146.26V476.19H144.87V480.78H143.95ZM152.691 471.93H153.611V475.4H155.001V476.18H153.611V480.79H152.691V471.93ZM147.141 473.5V472.74H151.131V475.98H148.061V477.91C149.571 477.91 150.701 477.85 151.971 477.61L152.061 478.36C150.691 478.61 149.511 478.68 147.861 478.68H147.151V475.23H150.231V473.5H147.141ZM170.584 474.99H171.494V476.2H175.044V476.95H167.064V476.2H170.584V474.99ZM167.524 474.75C169.194 474.52 170.574 473.53 170.574 472.41V472.05H171.504V472.41C171.504 473.54 172.884 474.52 174.564 474.75L174.224 475.47C172.834 475.24 171.604 474.58 171.044 473.61C170.484 474.58 169.264 475.25 167.864 475.47L167.524 474.75ZM168.034 480.65V477.75H174.074V480.65H168.034ZM168.924 479.92H173.164V478.5H168.924V479.92ZM179.325 474.99H180.235V476.2H183.785V476.95H175.805V476.2H179.325V474.99ZM176.265 474.75C177.935 474.52 179.315 473.53 179.315 472.41V472.05H180.245V472.41C180.245 473.54 181.625 474.52 183.305 474.75L182.965 475.47C181.575 475.24 180.345 474.58 179.785 473.61C179.225 474.58 178.005 475.25 176.605 475.47L176.265 474.75ZM176.775 480.65V477.75H182.815V480.65H176.775ZM177.665 479.92H181.905V478.5H177.665V479.92ZM184.905 472.73H189.035V473.48H185.825V475.2H188.845V475.93H185.825V477.93C187.305 477.92 188.385 477.87 189.665 477.66L189.745 478.4C188.395 478.64 187.225 478.68 185.605 478.68H184.905V472.73ZM190.425 480.78V471.95H191.355V475.44H192.745V476.21H191.355V480.78H190.425ZM193.285 478.96H196.805V477.39H194.265V474.59H199.405V473.32H194.245V472.57H200.315V475.32H195.175V476.64H200.525V477.39H197.715V478.96H201.275V479.71H193.285V478.96ZM213.549 477.01H221.539V477.77H217.969V480.77H217.059V477.77H213.549V477.01ZM214.539 475.89V472.42H220.529V475.89H214.539ZM215.439 475.16H219.629V473.15H215.439V475.16ZM228.659 471.95H229.579V477.97H228.659V475.08H226.959C226.779 476.12 225.859 476.82 224.709 476.82C223.389 476.82 222.419 475.93 222.419 474.68C222.419 473.42 223.389 472.54 224.709 472.54C225.869 472.54 226.799 473.26 226.969 474.32H228.659V471.95ZM223.299 474.68C223.299 475.49 223.889 476.05 224.709 476.05C225.499 476.05 226.099 475.49 226.099 474.68C226.099 473.86 225.499 473.31 224.709 473.31C223.889 473.31 223.299 473.86 223.299 474.68ZM223.319 480C224.959 479.74 226.239 478.75 226.239 477.63V477.31H227.189V477.63C227.189 478.78 228.449 479.74 230.109 480L229.749 480.73C228.379 480.49 227.229 479.81 226.709 478.85C226.179 479.8 225.029 480.5 223.669 480.73L223.319 480ZM237.349 471.93H238.279V480.79H237.349V471.93ZM231.339 475.7C231.339 473.8 232.289 472.61 233.599 472.61C234.909 472.61 235.869 473.8 235.869 475.7C235.869 477.59 234.909 478.8 233.599 478.8C232.289 478.8 231.339 477.59 231.339 475.7ZM232.229 475.7C232.229 477.11 232.789 477.98 233.599 477.98C234.419 477.98 234.979 477.11 234.979 475.7C234.979 474.3 234.419 473.44 233.599 473.44C232.789 473.44 232.229 474.3 232.229 475.7ZM239.779 476.38H247.749V477.13H239.779V476.38ZM240.769 480.58V477.99H241.689V479.83H246.919V480.58H240.769ZM240.769 475.47V472.31H246.759V473.04H241.689V474.72H246.839V475.47H240.769ZM251.534 472.1H252.414V473.01H253.614V472.1H254.474V475.18H255.134V472.1H256.004V473.01H257.194V472.1H258.064V475.31H255.254V476.2H258.794V476.95H250.814V476.2H254.344V475.31H251.534V472.1ZM251.804 480.65V477.49H252.714V478.31H256.874V477.49H257.784V480.65H251.804ZM252.414 474.57H253.614V473.7H252.414V474.57ZM252.714 479.92H256.874V479.01H252.714V479.92ZM256.004 474.57H257.194V473.7H256.004V474.57ZM261.905 472.61C263.205 472.61 264.135 473.8 264.135 475.7C264.135 477.59 263.205 478.8 261.905 478.8C260.595 478.8 259.655 477.59 259.655 475.7C259.655 473.8 260.595 472.61 261.905 472.61ZM260.545 475.7C260.545 477.11 261.095 477.98 261.905 477.98C262.705 477.98 263.255 477.11 263.255 475.7C263.255 474.3 262.705 473.44 261.905 473.44C261.095 473.44 260.545 474.3 260.545 475.7ZM265.445 480.78V471.95H266.365V475.42H267.755V476.19H266.365V480.78H265.445ZM268.295 478.92H271.815V477.09H269.215V472.55H270.135V474.08H274.435V472.55H275.355V477.09H272.725V478.92H276.285V479.68H268.295V478.92ZM270.135 476.34H274.435V474.83H270.135V476.34ZM280.555 474.99H281.465V476.2H285.015V476.95H277.035V476.2H280.555V474.99ZM277.495 474.75C279.165 474.52 280.545 473.53 280.545 472.41V472.05H281.475V472.41C281.475 473.54 282.855 474.52 284.535 474.75L284.195 475.47C282.805 475.24 281.575 474.58 281.015 473.61C280.455 474.58 279.235 475.25 277.835 475.47L277.495 474.75ZM278.005 480.65V477.75H284.045V480.65H278.005ZM278.895 479.92H283.135V478.5H278.895V479.92ZM83.7045 493.99H84.6145V495.2H88.1645V495.95H80.1845V495.2H83.7045V493.99ZM80.6445 493.75C82.3145 493.52 83.6945 492.53 83.6945 491.41V491.05H84.6245V491.41C84.6245 492.54 86.0045 493.52 87.6845 493.75L87.3445 494.47C85.9545 494.24 84.7245 493.58 84.1645 492.61C83.6045 493.58 82.3845 494.25 80.9845 494.47L80.6445 493.75ZM81.1545 499.65V496.75H87.1945V499.65H81.1545ZM82.0445 498.92H86.2845V497.5H82.0445V498.92ZM91.3847 498.15C92.2847 498.15 92.8747 497.5 92.8747 496.79C92.8747 496.08 92.2847 495.44 91.3847 495.44C90.4747 495.44 89.8847 496.08 89.8847 496.79C89.8847 497.5 90.4747 498.15 91.3847 498.15ZM89.0347 496.79C89.0347 496.46 89.1247 496.14 89.2747 495.84L91.8547 491.81L92.6047 492.27L91.0547 494.65C91.2447 494.63 91.3247 494.61 91.5047 494.62C92.7547 494.63 93.7147 495.55 93.7147 496.79C93.7147 498.06 92.6947 499 91.3847 499C90.0647 499 89.0347 498.06 89.0347 496.79ZM96.879 491.85V498.93H96.029V492.83L94.979 493.38L94.609 492.62L96.029 491.85H96.879ZM98.1958 498.83V498L101.296 494.79C101.376 494.69 101.476 494.57 101.526 494.46C101.826 493.83 101.566 493.08 100.846 492.77C100.136 492.47 99.2858 492.72 99.0358 493.49L98.1558 493.35C98.5458 491.92 100.086 491.53 101.196 492.01C102.306 492.46 102.796 493.71 102.316 494.83C102.206 495.04 102.076 495.26 101.886 495.44L99.4358 497.98H102.596V498.83H98.1958ZM105.751 497.95H109.261V496.04H106.451V495.3H107.761V492.51H106.431V491.75H113.021V492.51H111.691V495.3H113.001V496.04H110.171V497.95H113.741V498.71H105.751V497.95ZM108.681 495.3H110.771V492.51H108.681V495.3ZM115.501 491.63H121.501V492.38H116.421V493.52H121.311V494.26H116.421V495.48H121.591V496.22H118.931V497.96H122.481V498.71H114.491V497.96H118.021V496.22H115.501V491.63ZM123.961 491.37H130.491V492.1H127.821C127.861 493.09 129.141 493.94 130.751 494.15L130.421 494.89C128.931 494.68 127.691 493.97 127.221 492.97C126.751 493.97 125.521 494.68 124.021 494.89L123.681 494.15C125.301 493.94 126.571 493.09 126.611 492.1H123.961V491.37ZM123.231 496.41V495.66H126.751V494.26H127.661V495.66H131.221V496.41H123.231ZM124.251 499.59V497.1H125.161V498.83H130.311V499.59H124.251ZM147.015 493.99H147.925V495.2H151.475V495.95H143.495V495.2H147.015V493.99ZM143.955 493.75C145.625 493.52 147.005 492.53 147.005 491.41V491.05H147.935V491.41C147.935 492.54 149.315 493.52 150.995 493.75L150.655 494.47C149.265 494.24 148.035 493.58 147.475 492.61C146.915 493.58 145.695 494.25 144.295 494.47L143.955 493.75ZM144.465 499.65V496.75H150.505V499.65H144.465ZM145.355 498.92H149.595V497.5H145.355V498.92ZM155.755 493.99H156.665V495.2H160.215V495.95H152.235V495.2H155.755V493.99ZM152.695 493.75C154.365 493.52 155.745 492.53 155.745 491.41V491.05H156.675V491.41C156.675 492.54 158.055 493.52 159.735 493.75L159.395 494.47C158.005 494.24 156.775 493.58 156.215 492.61C155.655 493.58 154.435 494.25 153.035 494.47L152.695 493.75ZM153.205 499.65V496.75H159.245V499.65H153.205ZM154.095 498.92H158.335V497.5H154.095V498.92ZM163.28 495.96H171.27V496.72H167.7V499.77H166.79V496.72H163.28V495.96ZM164.15 493.23C164.15 492.04 165.4 491.29 167.25 491.29C169.11 491.29 170.36 492.04 170.36 493.23C170.36 494.42 169.11 495.18 167.25 495.18C165.4 495.18 164.15 494.42 164.15 493.23ZM165.09 493.23C165.09 493.97 165.96 494.43 167.25 494.43C168.56 494.43 169.42 493.97 169.42 493.23C169.42 492.49 168.56 492.02 167.25 492.02C165.96 492.02 165.09 492.49 165.09 493.23ZM172.02 495.92H180V496.68H176.44V499.77H175.53V496.68H172.02V495.92ZM172.47 494.52C174.11 494.29 175.48 493.3 175.5 492.2H172.75V491.47H179.24V492.2H176.52C176.54 493.3 177.91 494.29 179.55 494.52L179.21 495.25C177.79 495.02 176.55 494.3 176.01 493.29C175.48 494.3 174.23 495.02 172.82 495.25L172.47 494.52ZM187.111 490.95H188.031V495.5H187.111V490.95ZM180.921 494.49L181.981 494.48V492.25H181.161V491.53H185.891V492.25H185.071V494.36C185.491 494.33 185.901 494.3 186.291 494.25L186.341 494.92C184.601 495.19 182.561 495.24 181.021 495.24L180.921 494.49ZM182.231 496.64V495.92H188.031V498.1H183.151V498.95H188.341V499.68H182.251V497.43H187.121V496.64H182.231ZM182.861 494.46C183.291 494.45 183.741 494.44 184.181 494.41V492.25H182.861V494.46ZM189.501 495.47H197.491V496.22H189.501V495.47ZM190.511 491.87V491.16H196.481V493.31H191.431V494.08H196.661V494.79H190.521V492.63H195.571V491.87H190.511ZM190.561 499.65V496.95H196.501V499.65H190.561ZM191.461 498.92H195.601V497.68H191.461V498.92ZM213.285 493.99H214.195V495.2H217.745V495.95H209.765V495.2H213.285V493.99ZM210.225 493.75C211.895 493.52 213.275 492.53 213.275 491.41V491.05H214.205V491.41C214.205 492.54 215.585 493.52 217.265 493.75L216.925 494.47C215.535 494.24 214.305 493.58 213.745 492.61C213.185 493.58 211.965 494.25 210.565 494.47L210.225 493.75ZM210.735 499.65V496.75H216.775V499.65H210.735ZM211.625 498.92H215.865V497.5H211.625V498.92ZM222.025 493.99H222.935V495.2H226.485V495.95H218.505V495.2H222.025V493.99ZM218.965 493.75C220.635 493.52 222.015 492.53 222.015 491.41V491.05H222.945V491.41C222.945 492.54 224.325 493.52 226.005 493.75L225.665 494.47C224.275 494.24 223.045 493.58 222.485 492.61C221.925 493.58 220.705 494.25 219.305 494.47L218.965 493.75ZM219.475 499.65V496.75H225.515V499.65H219.475ZM220.365 498.92H224.605V497.5H220.365V498.92ZM229.55 495.55H237.53V496.3H229.55V495.55ZM230.42 493.01C230.42 491.9 231.63 491.24 233.53 491.24C235.44 491.24 236.66 491.9 236.66 493.01C236.66 494.12 235.44 494.78 233.53 494.78C231.63 494.78 230.42 494.12 230.42 493.01ZM230.57 499.59V497.03H231.48V498.83H236.63V499.59H230.57ZM231.36 493.01C231.36 493.65 232.21 494.04 233.53 494.04C234.88 494.04 235.71 493.65 235.71 493.01C235.71 492.35 234.88 491.98 233.53 491.98C232.21 491.98 231.36 492.35 231.36 493.01ZM244.19 490.95H245.1V494.53H246.5V495.3H245.1V499.78H244.19V490.95ZM238.24 493.08V492.33H240.39V491.07H241.33V492.33H243.43V493.08H238.24ZM238.71 495.79C238.71 494.59 239.62 493.75 240.86 493.75C242.12 493.75 243.04 494.59 243.04 495.79C243.04 497 242.12 497.84 240.86 497.84C239.62 497.84 238.71 497 238.71 495.79ZM239.58 495.79C239.58 496.56 240.13 497.08 240.86 497.08C241.61 497.08 242.17 496.56 242.17 495.79C242.17 495.04 241.61 494.51 240.86 494.51C240.13 494.51 239.58 495.04 239.58 495.79ZM250.54 491.25H251.5V491.72C251.5 492.89 252.94 494 254.64 494.25L254.27 494.98C252.85 494.75 251.6 494 251.03 492.96C250.46 494.01 249.21 494.75 247.78 494.98L247.41 494.25C249.13 494 250.54 492.91 250.54 491.72V491.25ZM247.03 496.62V495.86H255.01V496.62H251.45V499.78H250.54V496.62H247.03ZM258.525 491.48H262.925V491.99C262.925 492.54 262.925 493.34 262.715 494.35L261.815 494.28C261.995 493.41 262.025 492.75 262.025 492.23H258.525V491.48ZM257.995 495.12C258.545 495.12 259.155 495.12 259.795 495.11V493.41H260.705V495.08C261.645 495.05 262.615 494.98 263.495 494.87L263.565 495.53C261.735 495.83 259.685 495.88 258.105 495.88L257.995 495.12ZM259.145 498.13C259.145 497.12 260.275 496.52 262.105 496.52C263.925 496.52 265.055 497.12 265.055 498.13C265.055 499.15 263.925 499.76 262.105 499.76C260.275 499.76 259.145 499.15 259.145 498.13ZM260.075 498.13C260.075 498.71 260.845 499.02 262.105 499.02C263.375 499.02 264.125 498.71 264.125 498.13C264.125 497.56 263.375 497.24 262.105 497.24C260.845 497.24 260.075 497.56 260.075 498.13ZM264.055 496.42V490.94H264.985V493.28H266.195V494.06H264.985V496.42H264.055ZM267.015 491.58H271.755V492.33H269.865V492.57C269.865 493.7 270.645 494.73 271.965 495.15L271.515 495.87C270.525 495.55 269.805 494.89 269.425 494.04C269.045 495.01 268.275 495.78 267.235 496.15L266.755 495.41C268.115 494.95 268.945 493.81 268.945 492.58V492.33H267.015V491.58ZM267.935 498.11C267.935 497.07 269.045 496.46 270.855 496.46C272.655 496.46 273.775 497.07 273.775 498.11C273.775 499.14 272.655 499.76 270.855 499.76C269.045 499.76 267.935 499.14 267.935 498.11ZM268.835 498.11C268.835 498.69 269.595 499.03 270.855 499.03C272.115 499.03 272.865 498.69 272.865 498.11C272.865 497.51 272.115 497.19 270.855 497.19C269.595 497.19 268.835 497.51 268.835 498.11ZM272.765 496.24V490.95H273.695V493.13H274.955V493.9H273.695V496.24H272.765ZM95.2621 512.99H96.1721V514.2H99.7221V514.95H91.7421V514.2H95.2621V512.99ZM92.2021 512.75C93.8721 512.52 95.2521 511.53 95.2521 510.41V510.05H96.1821V510.41C96.1821 511.54 97.5621 512.52 99.2421 512.75L98.9021 513.47C97.5121 513.24 96.2821 512.58 95.7221 511.61C95.1621 512.58 93.9421 513.25 92.5421 513.47L92.2021 512.75ZM92.7121 518.65V515.75H98.7521V518.65H92.7121ZM93.6021 517.92H97.8421V516.5H93.6021V517.92ZM100.822 510.46H104.802V512.97H101.742V514.13C103.272 514.13 104.362 514.07 105.642 513.86L105.722 514.6C104.372 514.83 103.212 514.88 101.542 514.88H100.842V512.27H103.902V511.21H100.822V510.46ZM101.572 516.5V515.76H107.352V518.78H106.432V516.5H101.572ZM106.432 515.32V509.95H107.352V512.17H108.622V512.93H107.352V515.32H106.432ZM115.553 509.95H116.473V514.48H115.553V509.95ZM109.273 513.7C110.633 513.24 111.463 512.08 111.463 510.85V510.19H112.403V510.85C112.403 512.04 113.253 513.12 114.593 513.55L114.133 514.28C113.103 513.93 112.343 513.23 111.943 512.32C111.563 513.29 110.773 514.07 109.723 514.43L109.273 513.7ZM110.733 515.64V514.92H116.473V517.11H111.653V517.95H116.763V518.68H110.753V516.43H115.573V515.64H110.733ZM120.917 512.51H121.847V513.42H120.917V512.51ZM120.587 517.65L120.917 515.59H121.847L121.237 517.65H120.587ZM129.022 512.99H129.932V514.2H133.482V514.95H125.502V514.2H129.022V512.99ZM125.962 512.75C127.632 512.52 129.012 511.53 129.012 510.41V510.05H129.942V510.41C129.942 511.54 131.322 512.52 133.002 512.75L132.662 513.47C131.272 513.24 130.042 512.58 129.482 511.61C128.922 512.58 127.702 513.25 126.302 513.47L125.962 512.75ZM126.472 518.65V515.75H132.512V518.65H126.472ZM127.362 517.92H131.602V516.5H127.362V517.92ZM137.762 512.99H138.672V514.2H142.222V514.95H134.242V514.2H137.762V512.99ZM134.702 512.75C136.372 512.52 137.752 511.53 137.752 510.41V510.05H138.682V510.41C138.682 511.54 140.062 512.52 141.742 512.75L141.402 513.47C140.012 513.24 138.782 512.58 138.222 511.61C137.662 512.58 136.442 513.25 135.042 513.47L134.702 512.75ZM135.212 518.65V515.75H141.252V518.65H135.212ZM136.102 517.92H140.342V516.5H136.102V517.92ZM143.282 510.83H148.222V511.6H146.212V512.56C146.212 514.04 147.182 515.56 148.522 516.14L148.002 516.87C146.982 516.41 146.162 515.42 145.752 514.24C145.352 515.5 144.532 516.59 143.512 517.09L142.982 516.36C144.302 515.74 145.282 514.08 145.282 512.56V511.6H143.282V510.83ZM149.312 518.78V509.95H150.232V518.78H149.312ZM152.713 510.5H158.683V511.27C158.683 512.11 158.683 513.02 158.443 514.29H159.703V515.03H156.153V518.77H155.223V515.03H151.723V514.29H157.513C157.783 513.03 157.783 512.1 157.783 511.27V511.23H152.713V510.5ZM164.443 510.5C166.323 510.5 167.683 511.42 167.683 512.84C167.683 514.14 166.533 515.03 164.893 515.16V516.92H168.453V517.68H160.463V516.92H163.983V515.16C162.363 515.02 161.223 514.14 161.223 512.84C161.223 511.42 162.583 510.5 164.443 510.5ZM162.113 512.84C162.113 513.82 163.093 514.44 164.443 514.44C165.803 514.44 166.773 513.82 166.773 512.84C166.773 511.86 165.803 511.23 164.443 511.23C163.093 511.23 162.113 511.86 162.113 512.84ZM169.543 510.46H173.523V512.97H170.463V514.13C171.993 514.13 173.083 514.07 174.363 513.86L174.443 514.6C173.093 514.83 171.933 514.88 170.263 514.88H169.563V512.27H172.623V511.21H169.543V510.46ZM170.293 516.5V515.76H176.073V518.78H175.153V516.5H170.293ZM175.153 515.32V509.95H176.073V512.17H177.343V512.93H176.073V515.32H175.153ZM184.273 509.95H185.193V514.48H184.273V509.95ZM177.993 513.7C179.353 513.24 180.183 512.08 180.183 510.85V510.19H181.123V510.85C181.123 512.04 181.973 513.12 183.313 513.55L182.853 514.28C181.823 513.93 181.063 513.23 180.663 512.32C180.283 513.29 179.493 514.07 178.443 514.43L177.993 513.7ZM179.453 515.64V514.92H185.193V517.11H180.373V517.95H185.483V518.68H179.473V516.43H184.293V515.64H179.453ZM204.032 512.99H204.942V514.2H208.492V514.95H200.512V514.2H204.032V512.99ZM200.972 512.75C202.642 512.52 204.022 511.53 204.022 510.41V510.05H204.952V510.41C204.952 511.54 206.332 512.52 208.012 512.75L207.672 513.47C206.282 513.24 205.052 512.58 204.492 511.61C203.932 512.58 202.712 513.25 201.312 513.47L200.972 512.75ZM201.482 518.65V515.75H207.522V518.65H201.482ZM202.372 517.92H206.612V516.5H202.372V517.92ZM209.972 510.21H216.482V510.91H215.192V512.46H216.432V513.16H210.022V512.46H211.262V510.91H209.972V510.21ZM209.252 514.56V513.81H217.232V514.56H209.252ZM210.202 515.94V515.26H216.222V517.26H211.132V517.99H216.472V518.68H210.232V516.61H215.312V515.94H210.202ZM212.182 512.46H214.282V510.91H212.182V512.46ZM218.262 510.88H221.572V514.06H219.162V515.94C220.112 515.93 221.002 515.89 222.062 515.71L222.132 516.46C220.942 516.68 219.952 516.7 218.872 516.7H218.272V513.32H220.682V511.63H218.262V510.88ZM222.632 518.32V510.13H223.492V513.38H224.632V509.94H225.512V518.77H224.632V514.14H223.492V518.32H222.632ZM233.062 509.94H233.982V515.89H233.062V509.94ZM227.262 514.55V510.55H228.182V513.79C229.612 513.78 230.852 513.68 232.172 513.41L232.282 514.16C230.842 514.46 229.532 514.55 227.982 514.55H227.262ZM227.682 518.01C229.362 517.74 230.612 516.75 230.612 515.51V515.2H231.582V515.51C231.582 516.74 232.812 517.74 234.502 518.01L234.132 518.75C232.762 518.48 231.622 517.8 231.092 516.8C230.552 517.8 229.412 518.48 228.052 518.75L227.682 518.01ZM238.137 510.73H242.267V511.48H239.057V513.2H242.077V513.93H239.057V515.93C240.537 515.92 241.617 515.87 242.897 515.66L242.977 516.4C241.627 516.64 240.457 516.68 238.837 516.68H238.137V510.73ZM243.657 518.78V509.95H244.587V513.44H245.977V514.21H244.587V518.78H243.657ZM246.517 514.19H248.697C249.037 512.9 249.107 511.93 249.117 511.28H247.157V510.53H250.007V510.9C250.007 511.51 250.007 512.62 249.627 514.19H252.357C252.647 512.9 252.687 511.94 252.697 511.28H250.647V510.53H253.597V510.99C253.597 511.64 253.597 512.69 253.287 514.19H254.497V514.94H250.937V518.76H250.027V514.94H246.517V514.19ZM257.368 510.34H258.298V511.13C258.298 512.3 259.118 513.39 260.418 513.85L259.928 514.56C258.968 514.22 258.258 513.53 257.868 512.65C257.488 513.64 256.728 514.4 255.688 514.78L255.198 514.05C256.578 513.58 257.368 512.42 257.368 511.15V510.34ZM256.518 518.65V515.21H257.438V516.19H261.218V515.21H262.138V518.65H256.518ZM257.438 517.91H261.218V516.91H257.438V517.91ZM261.208 514.79V509.95H262.138V511.08H263.378V511.83H262.138V512.86H263.378V513.62H262.138V514.79H261.208ZM133.437 533.39C133.437 531.9 133.887 530.5 134.657 529.29H135.607C134.747 530.48 134.237 531.89 134.237 533.39C134.237 534.89 134.747 536.3 135.607 537.49H134.657C133.887 536.28 133.437 534.88 133.437 533.39ZM141.505 531.47C141.365 531.24 141.205 531.06 140.925 530.87C140.395 530.51 139.845 530.44 139.375 530.49C138.975 530.53 138.535 530.65 138.285 531.14C138.105 531.53 138.215 531.95 138.395 532.19C138.515 532.32 138.615 532.42 138.795 532.55C139.005 532.69 139.185 532.8 139.455 532.87L139.945 533.03C141.185 533.41 141.675 533.72 141.935 534C142.245 534.36 142.555 535.07 142.205 535.89C141.995 536.31 141.635 536.62 141.235 536.83C140.955 536.96 140.545 537.12 140.215 537.14C139.455 537.22 138.765 537.05 138.075 536.6C137.405 536.16 137.075 535.54 136.985 535.28L137.835 534.99C137.905 535.18 138.105 535.6 138.565 535.9C139.115 536.26 139.545 536.37 140.135 536.3C140.315 536.28 140.585 536.2 140.815 536.09C141.065 535.95 141.255 535.8 141.395 535.55C141.595 535.12 141.435 534.77 141.265 534.57C141.105 534.36 140.755 534.19 139.695 533.84L139.205 533.68C138.835 533.55 138.545 533.4 138.305 533.24C137.995 533.03 137.795 532.82 137.725 532.74C137.395 532.33 137.135 531.57 137.475 530.8C137.865 529.97 138.735 529.71 139.285 529.65C139.845 529.6 140.685 529.67 141.415 530.16C141.815 530.43 142.085 530.74 142.255 531.02L141.505 531.47ZM145.755 533.39C145.755 534.88 145.305 536.28 144.545 537.49H143.585C144.455 536.3 144.955 534.89 144.955 533.39C144.955 531.89 144.455 530.48 143.585 529.29H144.545C145.305 530.5 145.755 531.9 145.755 533.39ZM152.282 529.74V530.6H148.462V532.95H151.782V533.82H148.462V537.04H147.572V529.74H152.282ZM156.177 529.74L159.217 537.04H158.267L157.417 535H153.977L153.137 537.04H152.187L155.227 529.74H156.177ZM154.347 534.1H157.047L155.707 530.84L154.347 534.1ZM163.035 537.12C160.835 537.12 159.435 535.43 159.435 533.39C159.435 531.35 160.835 529.66 163.035 529.66C164.035 529.66 164.925 530.09 165.575 530.75L164.955 531.39C164.475 530.88 163.765 530.59 163.025 530.59C161.355 530.59 160.325 531.83 160.325 533.39C160.325 534.96 161.355 536.2 163.025 536.2C163.765 536.2 164.475 535.9 164.955 535.39L165.575 536.03C164.925 536.69 164.035 537.12 163.035 537.12ZM171.579 529.74V530.6H167.649V532.85H171.269V533.72H167.649V536.17H171.579V537.04H166.769V529.74H171.579ZM178.05 533.48C178.84 533.48 179.48 532.82 179.48 532.04C179.48 531.25 178.84 530.61 178.05 530.61H176.05V533.48H178.05ZM175.16 537.04V529.74H178.05C179.32 529.74 180.33 530.77 180.33 532.04C180.33 533.3 179.32 534.34 178.05 534.34H176.05V537.04H175.16ZM184.166 529.74L187.206 537.04H186.256L185.406 535H181.966L181.126 537.04H180.176L183.216 529.74H184.166ZM182.336 534.1H185.036L183.696 530.84L182.336 534.1ZM188.529 529.74H189.409V537.04H188.529V529.74ZM197.15 529.74V537.04H196.16L191.87 531.12V537.04H190.98V529.74H191.97L196.28 535.65V529.74H197.15ZM203.449 529.74V530.6H201.329V537.04H200.439V530.6H198.319V529.74H203.449ZM204.76 529.74H205.64V537.04H204.76V529.74ZM213.38 529.74V537.04H212.39L208.1 531.12V537.04H207.21V529.74H208.2L212.51 535.65V529.74H213.38ZM221.76 533.14C221.8 533.39 221.75 533.95 221.75 533.95C221.56 536.01 220.25 537.08 218.3 537.12C216.06 537.12 214.69 535.47 214.69 533.39C214.69 531.32 216.06 529.67 218.3 529.67C220.59 529.67 221.36 531.43 221.36 531.43L220.58 531.85C220.58 531.85 220.01 530.56 218.3 530.56C216.57 530.56 215.57 531.81 215.57 533.39C215.57 534.98 216.57 536.23 218.3 536.23C219.7 536.18 220.66 535.55 220.84 533.99H218.44V533.14H221.76Z" fill="white"/>
<defs>
<linearGradient id="paint0_linear_565_215" x1="178.39" y1="0" x2="178.39" y2="44" gradientUnits="userSpaceOnUse">
<stop stop-color="#FE01B0"/>
<stop offset="1" stop-color="#FE01B0" stop-opacity="0.35"/>
</linearGradient>
<linearGradient id="paint1_linear_565_215" x1="85.875" y1="39.5003" x2="5.60104" y2="41.1759" gradientUnits="userSpaceOnUse">
<stop stop-color="#FF98DF"/>
<stop offset="1" stop-color="#FF21BB"/>
</linearGradient>
<linearGradient id="paint2_linear_565_215" x1="177.5" y1="100.708" x2="177.5" y2="193.569" gradientUnits="userSpaceOnUse">
<stop stop-color="#FE01B0"/>
<stop offset="1" stop-color="#FE01B0" stop-opacity="0.35"/>
</linearGradient>
<linearGradient id="paint3_linear_565_215" x1="178" y1="440" x2="178" y2="555" gradientUnits="userSpaceOnUse">
<stop stop-color="#FE01B0" stop-opacity="0.63"/>
<stop offset="1" stop-color="#FE01B0" stop-opacity="0"/>
</linearGradient>
</defs>
</svg>
